<svg xmlns="http://www.w3.org/2000/svg" width="980" height="560" viewBox="0 0 980 560" font-family="Arial, sans-serif">
<rect width="100%" height="100%" fill="#ffffff"/>
<text x="80" y="35" font-size="20" font-weight="700" text-anchor="start" fill="#111827">aux_fusion Self-Attention Self Position Attention Over Training</text>
<text x="20" y="275.0" font-size="13" font-weight="400" text-anchor="middle" fill="#111827">attention weight</text>
<line x1="80" y1="70" x2="80" y2="480" stroke="#9ca3af"/>
<line x1="80" y1="480" x2="760" y2="480" stroke="#9ca3af"/>
<line x1="80" y1="480.0" x2="760" y2="480.0" stroke="#e5e7eb"/>
<text x="72" y="484.0" font-size="11" font-weight="400" text-anchor="end" fill="#4b5563">0.016</text>
<line x1="80" y1="377.49999999999994" x2="760" y2="377.49999999999994" stroke="#e5e7eb"/>
<text x="72" y="381.49999999999994" font-size="11" font-weight="400" text-anchor="end" fill="#4b5563">0.017</text>
<line x1="80" y1="274.9999999999999" x2="760" y2="274.9999999999999" stroke="#e5e7eb"/>
<text x="72" y="278.9999999999999" font-size="11" font-weight="400" text-anchor="end" fill="#4b5563">0.018</text>
<line x1="80" y1="172.50000000000006" x2="760" y2="172.50000000000006" stroke="#e5e7eb"/>
<text x="72" y="176.50000000000006" font-size="11" font-weight="400" text-anchor="end" fill="#4b5563">0.020</text>
<line x1="80" y1="70.0" x2="760" y2="70.0" stroke="#e5e7eb"/>
<text x="72" y="74.0" font-size="11" font-weight="400" text-anchor="end" fill="#4b5563">0.021</text>
<text x="80.0" y="504" font-size="11" font-weight="400" text-anchor="middle" fill="#4b5563">1</text>
<text x="250.0" y="504" font-size="11" font-weight="400" text-anchor="middle" fill="#4b5563">2561</text>
<text x="420.0" y="504" font-size="11" font-weight="400" text-anchor="middle" fill="#4b5563">5120</text>
<text x="590.0" y="504" font-size="11" font-weight="400" text-anchor="middle" fill="#4b5563">7680</text>
<text x="760.0" y="504" font-size="11" font-weight="400" text-anchor="middle" fill="#4b5563">10240</text>
<polyline points="80.00,76.56 80.27,72.98 80.60,78.08 81.59,70.00 83.25,76.71 86.57,71.06 96.54,81.32 96.94,78.02 113.14,79.66 113.94,80.70 130.94,80.55 146.35,92.15 147.94,85.18 164.94,93.14 181.94,90.41 198.95,98.31 215.95,110.30 232.95,117.64 249.95,117.50 266.95,113.31 283.95,121.46 300.96,125.79 317.96,126.03 334.96,136.83 351.96,131.11 368.96,121.73 385.96,133.08 402.97,125.33 419.97,137.32 436.97,129.38 453.97,133.06 470.97,127.93 487.97,127.91 504.98,126.00 521.98,136.03 538.98,130.69 555.98,128.93 572.98,132.06 589.98,137.64 606.99,130.53 623.99,129.21 640.99,135.99 657.99,131.15 674.99,133.50 691.99,128.84 709.00,127.55 726.00,124.03 743.00,138.27 760.00,132.34 760.00,130.79" fill="none" stroke="#2563eb" stroke-width="2.5"/>
<circle cx="80.00" cy="76.56" r="3" fill="#2563eb"/>
<circle cx="80.27" cy="72.98" r="3" fill="#2563eb"/>
<circle cx="80.60" cy="78.08" r="3" fill="#2563eb"/>
<circle cx="81.59" cy="70.00" r="3" fill="#2563eb"/>
<circle cx="83.25" cy="76.71" r="3" fill="#2563eb"/>
<circle cx="86.57" cy="71.06" r="3" fill="#2563eb"/>
<circle cx="96.54" cy="81.32" r="3" fill="#2563eb"/>
<circle cx="96.94" cy="78.02" r="3" fill="#2563eb"/>
<circle cx="113.14" cy="79.66" r="3" fill="#2563eb"/>
<circle cx="113.94" cy="80.70" r="3" fill="#2563eb"/>
<circle cx="130.94" cy="80.55" r="3" fill="#2563eb"/>
<circle cx="146.35" cy="92.15" r="3" fill="#2563eb"/>
<circle cx="147.94" cy="85.18" r="3" fill="#2563eb"/>
<circle cx="164.94" cy="93.14" r="3" fill="#2563eb"/>
<circle cx="181.94" cy="90.41" r="3" fill="#2563eb"/>
<circle cx="198.95" cy="98.31" r="3" fill="#2563eb"/>
<circle cx="215.95" cy="110.30" r="3" fill="#2563eb"/>
<circle cx="232.95" cy="117.64" r="3" fill="#2563eb"/>
<circle cx="249.95" cy="117.50" r="3" fill="#2563eb"/>
<circle cx="266.95" cy="113.31" r="3" fill="#2563eb"/>
<circle cx="283.95" cy="121.46" r="3" fill="#2563eb"/>
<circle cx="300.96" cy="125.79" r="3" fill="#2563eb"/>
<circle cx="317.96" cy="126.03" r="3" fill="#2563eb"/>
<circle cx="334.96" cy="136.83" r="3" fill="#2563eb"/>
<circle cx="351.96" cy="131.11" r="3" fill="#2563eb"/>
<circle cx="368.96" cy="121.73" r="3" fill="#2563eb"/>
<circle cx="385.96" cy="133.08" r="3" fill="#2563eb"/>
<circle cx="402.97" cy="125.33" r="3" fill="#2563eb"/>
<circle cx="419.97" cy="137.32" r="3" fill="#2563eb"/>
<circle cx="436.97" cy="129.38" r="3" fill="#2563eb"/>
<circle cx="453.97" cy="133.06" r="3" fill="#2563eb"/>
<circle cx="470.97" cy="127.93" r="3" fill="#2563eb"/>
<circle cx="487.97" cy="127.91" r="3" fill="#2563eb"/>
<circle cx="504.98" cy="126.00" r="3" fill="#2563eb"/>
<circle cx="521.98" cy="136.03" r="3" fill="#2563eb"/>
<circle cx="538.98" cy="130.69" r="3" fill="#2563eb"/>
<circle cx="555.98" cy="128.93" r="3" fill="#2563eb"/>
<circle cx="572.98" cy="132.06" r="3" fill="#2563eb"/>
<circle cx="589.98" cy="137.64" r="3" fill="#2563eb"/>
<circle cx="606.99" cy="130.53" r="3" fill="#2563eb"/>
<circle cx="623.99" cy="129.21" r="3" fill="#2563eb"/>
<circle cx="640.99" cy="135.99" r="3" fill="#2563eb"/>
<circle cx="657.99" cy="131.15" r="3" fill="#2563eb"/>
<circle cx="674.99" cy="133.50" r="3" fill="#2563eb"/>
<circle cx="691.99" cy="128.84" r="3" fill="#2563eb"/>
<circle cx="709.00" cy="127.55" r="3" fill="#2563eb"/>
<circle cx="726.00" cy="124.03" r="3" fill="#2563eb"/>
<circle cx="743.00" cy="138.27" r="3" fill="#2563eb"/>
<circle cx="760.00" cy="132.34" r="3" fill="#2563eb"/>
<circle cx="760.00" cy="130.79" r="3" fill="#2563eb"/>
<rect x="795" y="65" width="12" height="12" fill="#2563eb"/>
<text x="815" y="75" font-size="12" font-weight="400" text-anchor="start" fill="#111827">audio layer0</text>
<polyline points="80.00,105.55 80.27,102.50 80.60,107.75 81.59,104.71 83.25,107.79 86.57,104.43 96.54,115.58 96.94,118.74 113.14,127.76 113.94,127.07 130.94,136.40 146.35,167.60 147.94,158.93 164.94,193.03 181.94,222.52 198.95,249.21 215.95,279.37 232.95,311.51 249.95,330.38 266.95,344.06 283.95,379.43 300.96,385.50 317.96,391.79 334.96,434.87 351.96,428.26 368.96,422.16 385.96,457.91 402.97,447.88 419.97,444.68 436.97,458.71 453.97,454.56 470.97,444.14 487.97,445.08 504.98,457.79 521.98,477.72 538.98,439.68 555.98,469.52 572.98,457.30 589.98,458.94 606.99,466.97 623.99,463.98 640.99,480.00 657.99,458.98 674.99,464.92 691.99,466.40 709.00,462.66 726.00,455.98 743.00,443.02 760.00,463.88 760.00,460.67" fill="none" stroke="#dc2626" stroke-width="2.5"/>
<circle cx="80.00" cy="105.55" r="3" fill="#dc2626"/>
<circle cx="80.27" cy="102.50" r="3" fill="#dc2626"/>
<circle cx="80.60" cy="107.75" r="3" fill="#dc2626"/>
<circle cx="81.59" cy="104.71" r="3" fill="#dc2626"/>
<circle cx="83.25" cy="107.79" r="3" fill="#dc2626"/>
<circle cx="86.57" cy="104.43" r="3" fill="#dc2626"/>
<circle cx="96.54" cy="115.58" r="3" fill="#dc2626"/>
<circle cx="96.94" cy="118.74" r="3" fill="#dc2626"/>
<circle cx="113.14" cy="127.76" r="3" fill="#dc2626"/>
<circle cx="113.94" cy="127.07" r="3" fill="#dc2626"/>
<circle cx="130.94" cy="136.40" r="3" fill="#dc2626"/>
<circle cx="146.35" cy="167.60" r="3" fill="#dc2626"/>
<circle cx="147.94" cy="158.93" r="3" fill="#dc2626"/>
<circle cx="164.94" cy="193.03" r="3" fill="#dc2626"/>
<circle cx="181.94" cy="222.52" r="3" fill="#dc2626"/>
<circle cx="198.95" cy="249.21" r="3" fill="#dc2626"/>
<circle cx="215.95" cy="279.37" r="3" fill="#dc2626"/>
<circle cx="232.95" cy="311.51" r="3" fill="#dc2626"/>
<circle cx="249.95" cy="330.38" r="3" fill="#dc2626"/>
<circle cx="266.95" cy="344.06" r="3" fill="#dc2626"/>
<circle cx="283.95" cy="379.43" r="3" fill="#dc2626"/>
<circle cx="300.96" cy="385.50" r="3" fill="#dc2626"/>
<circle cx="317.96" cy="391.79" r="3" fill="#dc2626"/>
<circle cx="334.96" cy="434.87" r="3" fill="#dc2626"/>
<circle cx="351.96" cy="428.26" r="3" fill="#dc2626"/>
<circle cx="368.96" cy="422.16" r="3" fill="#dc2626"/>
<circle cx="385.96" cy="457.91" r="3" fill="#dc2626"/>
<circle cx="402.97" cy="447.88" r="3" fill="#dc2626"/>
<circle cx="419.97" cy="444.68" r="3" fill="#dc2626"/>
<circle cx="436.97" cy="458.71" r="3" fill="#dc2626"/>
<circle cx="453.97" cy="454.56" r="3" fill="#dc2626"/>
<circle cx="470.97" cy="444.14" r="3" fill="#dc2626"/>
<circle cx="487.97" cy="445.08" r="3" fill="#dc2626"/>
<circle cx="504.98" cy="457.79" r="3" fill="#dc2626"/>
<circle cx="521.98" cy="477.72" r="3" fill="#dc2626"/>
<circle cx="538.98" cy="439.68" r="3" fill="#dc2626"/>
<circle cx="555.98" cy="469.52" r="3" fill="#dc2626"/>
<circle cx="572.98" cy="457.30" r="3" fill="#dc2626"/>
<circle cx="589.98" cy="458.94" r="3" fill="#dc2626"/>
<circle cx="606.99" cy="466.97" r="3" fill="#dc2626"/>
<circle cx="623.99" cy="463.98" r="3" fill="#dc2626"/>
<circle cx="640.99" cy="480.00" r="3" fill="#dc2626"/>
<circle cx="657.99" cy="458.98" r="3" fill="#dc2626"/>
<circle cx="674.99" cy="464.92" r="3" fill="#dc2626"/>
<circle cx="691.99" cy="466.40" r="3" fill="#dc2626"/>
<circle cx="709.00" cy="462.66" r="3" fill="#dc2626"/>
<circle cx="726.00" cy="455.98" r="3" fill="#dc2626"/>
<circle cx="743.00" cy="443.02" r="3" fill="#dc2626"/>
<circle cx="760.00" cy="463.88" r="3" fill="#dc2626"/>
<circle cx="760.00" cy="460.67" r="3" fill="#dc2626"/>
<rect x="795" y="87" width="12" height="12" fill="#dc2626"/>
<text x="815" y="97" font-size="12" font-weight="400" text-anchor="start" fill="#111827">audio layer1</text>
<polyline points="80.00,160.28 80.27,159.90 80.60,160.14 81.59,162.17 83.25,160.65 86.57,162.76 96.54,164.27 96.94,166.52 113.14,162.20 113.94,164.59 130.94,165.17 146.35,166.32 147.94,164.00 164.94,166.41 181.94,165.83 198.95,167.67 215.95,166.64 232.95,171.33 249.95,168.19 266.95,168.13 283.95,170.14 300.96,172.41 317.96,168.08 334.96,173.83 351.96,175.18 368.96,169.04 385.96,174.95 402.97,173.91 419.97,170.43 436.97,166.81 453.97,169.89 470.97,175.43 487.97,168.92 504.98,170.81 521.98,169.67 538.98,168.53 555.98,171.36 572.98,165.82 589.98,174.58 606.99,167.89 623.99,169.62 640.99,167.95 657.99,166.01 674.99,168.42 691.99,173.59 709.00,171.76 726.00,169.18 743.00,167.76 760.00,168.75 760.00,163.16" fill="none" stroke="#16a34a" stroke-width="2.5"/>
<circle cx="80.00" cy="160.28" r="3" fill="#16a34a"/>
<circle cx="80.27" cy="159.90" r="3" fill="#16a34a"/>
<circle cx="80.60" cy="160.14" r="3" fill="#16a34a"/>
<circle cx="81.59" cy="162.17" r="3" fill="#16a34a"/>
<circle cx="83.25" cy="160.65" r="3" fill="#16a34a"/>
<circle cx="86.57" cy="162.76" r="3" fill="#16a34a"/>
<circle cx="96.54" cy="164.27" r="3" fill="#16a34a"/>
<circle cx="96.94" cy="166.52" r="3" fill="#16a34a"/>
<circle cx="113.14" cy="162.20" r="3" fill="#16a34a"/>
<circle cx="113.94" cy="164.59" r="3" fill="#16a34a"/>
<circle cx="130.94" cy="165.17" r="3" fill="#16a34a"/>
<circle cx="146.35" cy="166.32" r="3" fill="#16a34a"/>
<circle cx="147.94" cy="164.00" r="3" fill="#16a34a"/>
<circle cx="164.94" cy="166.41" r="3" fill="#16a34a"/>
<circle cx="181.94" cy="165.83" r="3" fill="#16a34a"/>
<circle cx="198.95" cy="167.67" r="3" fill="#16a34a"/>
<circle cx="215.95" cy="166.64" r="3" fill="#16a34a"/>
<circle cx="232.95" cy="171.33" r="3" fill="#16a34a"/>
<circle cx="249.95" cy="168.19" r="3" fill="#16a34a"/>
<circle cx="266.95" cy="168.13" r="3" fill="#16a34a"/>
<circle cx="283.95" cy="170.14" r="3" fill="#16a34a"/>
<circle cx="300.96" cy="172.41" r="3" fill="#16a34a"/>
<circle cx="317.96" cy="168.08" r="3" fill="#16a34a"/>
<circle cx="334.96" cy="173.83" r="3" fill="#16a34a"/>
<circle cx="351.96" cy="175.18" r="3" fill="#16a34a"/>
<circle cx="368.96" cy="169.04" r="3" fill="#16a34a"/>
<circle cx="385.96" cy="174.95" r="3" fill="#16a34a"/>
<circle cx="402.97" cy="173.91" r="3" fill="#16a34a"/>
<circle cx="419.97" cy="170.43" r="3" fill="#16a34a"/>
<circle cx="436.97" cy="166.81" r="3" fill="#16a34a"/>
<circle cx="453.97" cy="169.89" r="3" fill="#16a34a"/>
<circle cx="470.97" cy="175.43" r="3" fill="#16a34a"/>
<circle cx="487.97" cy="168.92" r="3" fill="#16a34a"/>
<circle cx="504.98" cy="170.81" r="3" fill="#16a34a"/>
<circle cx="521.98" cy="169.67" r="3" fill="#16a34a"/>
<circle cx="538.98" cy="168.53" r="3" fill="#16a34a"/>
<circle cx="555.98" cy="171.36" r="3" fill="#16a34a"/>
<circle cx="572.98" cy="165.82" r="3" fill="#16a34a"/>
<circle cx="589.98" cy="174.58" r="3" fill="#16a34a"/>
<circle cx="606.99" cy="167.89" r="3" fill="#16a34a"/>
<circle cx="623.99" cy="169.62" r="3" fill="#16a34a"/>
<circle cx="640.99" cy="167.95" r="3" fill="#16a34a"/>
<circle cx="657.99" cy="166.01" r="3" fill="#16a34a"/>
<circle cx="674.99" cy="168.42" r="3" fill="#16a34a"/>
<circle cx="691.99" cy="173.59" r="3" fill="#16a34a"/>
<circle cx="709.00" cy="171.76" r="3" fill="#16a34a"/>
<circle cx="726.00" cy="169.18" r="3" fill="#16a34a"/>
<circle cx="743.00" cy="167.76" r="3" fill="#16a34a"/>
<circle cx="760.00" cy="168.75" r="3" fill="#16a34a"/>
<circle cx="760.00" cy="163.16" r="3" fill="#16a34a"/>
<rect x="795" y="109" width="12" height="12" fill="#16a34a"/>
<text x="815" y="119" font-size="12" font-weight="400" text-anchor="start" fill="#111827">text layer0</text>
<polyline points="80.00,139.05 80.27,139.66 80.60,138.33 81.59,141.19 83.25,139.94 86.57,149.50 96.54,159.48 96.94,162.84 113.14,156.63 113.94,160.17 130.94,162.61 146.35,171.07 147.94,169.62 164.94,171.31 181.94,180.04 198.95,188.02 215.95,193.10 232.95,203.67 249.95,208.14 266.95,215.72 283.95,221.58 300.96,226.29 317.96,229.38 334.96,240.74 351.96,244.45 368.96,237.55 385.96,250.52 402.97,246.42 419.97,244.62 436.97,242.52 453.97,244.24 470.97,245.14 487.97,238.95 504.98,245.95 521.98,247.14 538.98,238.25 555.98,245.88 572.98,233.65 589.98,244.64 606.99,247.55 623.99,246.54 640.99,248.80 657.99,239.01 674.99,244.35 691.99,248.96 709.00,248.29 726.00,240.78 743.00,239.99 760.00,243.60 760.00,239.21" fill="none" stroke="#9333ea" stroke-width="2.5"/>
<circle cx="80.00" cy="139.05" r="3" fill="#9333ea"/>
<circle cx="80.27" cy="139.66" r="3" fill="#9333ea"/>
<circle cx="80.60" cy="138.33" r="3" fill="#9333ea"/>
<circle cx="81.59" cy="141.19" r="3" fill="#9333ea"/>
<circle cx="83.25" cy="139.94" r="3" fill="#9333ea"/>
<circle cx="86.57" cy="149.50" r="3" fill="#9333ea"/>
<circle cx="96.54" cy="159.48" r="3" fill="#9333ea"/>
<circle cx="96.94" cy="162.84" r="3" fill="#9333ea"/>
<circle cx="113.14" cy="156.63" r="3" fill="#9333ea"/>
<circle cx="113.94" cy="160.17" r="3" fill="#9333ea"/>
<circle cx="130.94" cy="162.61" r="3" fill="#9333ea"/>
<circle cx="146.35" cy="171.07" r="3" fill="#9333ea"/>
<circle cx="147.94" cy="169.62" r="3" fill="#9333ea"/>
<circle cx="164.94" cy="171.31" r="3" fill="#9333ea"/>
<circle cx="181.94" cy="180.04" r="3" fill="#9333ea"/>
<circle cx="198.95" cy="188.02" r="3" fill="#9333ea"/>
<circle cx="215.95" cy="193.10" r="3" fill="#9333ea"/>
<circle cx="232.95" cy="203.67" r="3" fill="#9333ea"/>
<circle cx="249.95" cy="208.14" r="3" fill="#9333ea"/>
<circle cx="266.95" cy="215.72" r="3" fill="#9333ea"/>
<circle cx="283.95" cy="221.58" r="3" fill="#9333ea"/>
<circle cx="300.96" cy="226.29" r="3" fill="#9333ea"/>
<circle cx="317.96" cy="229.38" r="3" fill="#9333ea"/>
<circle cx="334.96" cy="240.74" r="3" fill="#9333ea"/>
<circle cx="351.96" cy="244.45" r="3" fill="#9333ea"/>
<circle cx="368.96" cy="237.55" r="3" fill="#9333ea"/>
<circle cx="385.96" cy="250.52" r="3" fill="#9333ea"/>
<circle cx="402.97" cy="246.42" r="3" fill="#9333ea"/>
<circle cx="419.97" cy="244.62" r="3" fill="#9333ea"/>
<circle cx="436.97" cy="242.52" r="3" fill="#9333ea"/>
<circle cx="453.97" cy="244.24" r="3" fill="#9333ea"/>
<circle cx="470.97" cy="245.14" r="3" fill="#9333ea"/>
<circle cx="487.97" cy="238.95" r="3" fill="#9333ea"/>
<circle cx="504.98" cy="245.95" r="3" fill="#9333ea"/>
<circle cx="521.98" cy="247.14" r="3" fill="#9333ea"/>
<circle cx="538.98" cy="238.25" r="3" fill="#9333ea"/>
<circle cx="555.98" cy="245.88" r="3" fill="#9333ea"/>
<circle cx="572.98" cy="233.65" r="3" fill="#9333ea"/>
<circle cx="589.98" cy="244.64" r="3" fill="#9333ea"/>
<circle cx="606.99" cy="247.55" r="3" fill="#9333ea"/>
<circle cx="623.99" cy="246.54" r="3" fill="#9333ea"/>
<circle cx="640.99" cy="248.80" r="3" fill="#9333ea"/>
<circle cx="657.99" cy="239.01" r="3" fill="#9333ea"/>
<circle cx="674.99" cy="244.35" r="3" fill="#9333ea"/>
<circle cx="691.99" cy="248.96" r="3" fill="#9333ea"/>
<circle cx="709.00" cy="248.29" r="3" fill="#9333ea"/>
<circle cx="726.00" cy="240.78" r="3" fill="#9333ea"/>
<circle cx="743.00" cy="239.99" r="3" fill="#9333ea"/>
<circle cx="760.00" cy="243.60" r="3" fill="#9333ea"/>
<circle cx="760.00" cy="239.21" r="3" fill="#9333ea"/>
<rect x="795" y="131" width="12" height="12" fill="#9333ea"/>
<text x="815" y="141" font-size="12" font-weight="400" text-anchor="start" fill="#111827">text layer1</text>
<polyline points="80.00,111.13 80.27,123.06 80.60,121.17 81.59,117.63 83.25,111.71 86.57,117.52 96.54,122.84 96.94,129.07 113.14,127.17 113.94,139.26 130.94,150.74 146.35,168.33 147.94,166.09 164.94,178.56 181.94,206.25 198.95,199.41 215.95,211.13 232.95,231.58 249.95,236.45 266.95,250.78 283.95,265.77 300.96,257.62 317.96,247.45 334.96,271.12 351.96,278.20 368.96,262.69 385.96,284.09 402.97,279.79 419.97,281.66 436.97,277.44 453.97,270.99 470.97,280.50 487.97,273.66 504.98,274.97 521.98,284.92 538.98,287.88 555.98,280.32 572.98,276.68 589.98,267.37 606.99,292.30 623.99,277.16 640.99,283.68 657.99,291.12 674.99,269.98 691.99,291.05 709.00,278.74 726.00,275.63 743.00,284.96 760.00,282.82 760.00,281.79" fill="none" stroke="#ea580c" stroke-width="2.5"/>
<circle cx="80.00" cy="111.13" r="3" fill="#ea580c"/>
<circle cx="80.27" cy="123.06" r="3" fill="#ea580c"/>
<circle cx="80.60" cy="121.17" r="3" fill="#ea580c"/>
<circle cx="81.59" cy="117.63" r="3" fill="#ea580c"/>
<circle cx="83.25" cy="111.71" r="3" fill="#ea580c"/>
<circle cx="86.57" cy="117.52" r="3" fill="#ea580c"/>
<circle cx="96.54" cy="122.84" r="3" fill="#ea580c"/>
<circle cx="96.94" cy="129.07" r="3" fill="#ea580c"/>
<circle cx="113.14" cy="127.17" r="3" fill="#ea580c"/>
<circle cx="113.94" cy="139.26" r="3" fill="#ea580c"/>
<circle cx="130.94" cy="150.74" r="3" fill="#ea580c"/>
<circle cx="146.35" cy="168.33" r="3" fill="#ea580c"/>
<circle cx="147.94" cy="166.09" r="3" fill="#ea580c"/>
<circle cx="164.94" cy="178.56" r="3" fill="#ea580c"/>
<circle cx="181.94" cy="206.25" r="3" fill="#ea580c"/>
<circle cx="198.95" cy="199.41" r="3" fill="#ea580c"/>
<circle cx="215.95" cy="211.13" r="3" fill="#ea580c"/>
<circle cx="232.95" cy="231.58" r="3" fill="#ea580c"/>
<circle cx="249.95" cy="236.45" r="3" fill="#ea580c"/>
<circle cx="266.95" cy="250.78" r="3" fill="#ea580c"/>
<circle cx="283.95" cy="265.77" r="3" fill="#ea580c"/>
<circle cx="300.96" cy="257.62" r="3" fill="#ea580c"/>
<circle cx="317.96" cy="247.45" r="3" fill="#ea580c"/>
<circle cx="334.96" cy="271.12" r="3" fill="#ea580c"/>
<circle cx="351.96" cy="278.20" r="3" fill="#ea580c"/>
<circle cx="368.96" cy="262.69" r="3" fill="#ea580c"/>
<circle cx="385.96" cy="284.09" r="3" fill="#ea580c"/>
<circle cx="402.97" cy="279.79" r="3" fill="#ea580c"/>
<circle cx="419.97" cy="281.66" r="3" fill="#ea580c"/>
<circle cx="436.97" cy="277.44" r="3" fill="#ea580c"/>
<circle cx="453.97" cy="270.99" r="3" fill="#ea580c"/>
<circle cx="470.97" cy="280.50" r="3" fill="#ea580c"/>
<circle cx="487.97" cy="273.66" r="3" fill="#ea580c"/>
<circle cx="504.98" cy="274.97" r="3" fill="#ea580c"/>
<circle cx="521.98" cy="284.92" r="3" fill="#ea580c"/>
<circle cx="538.98" cy="287.88" r="3" fill="#ea580c"/>
<circle cx="555.98" cy="280.32" r="3" fill="#ea580c"/>
<circle cx="572.98" cy="276.68" r="3" fill="#ea580c"/>
<circle cx="589.98" cy="267.37" r="3" fill="#ea580c"/>
<circle cx="606.99" cy="292.30" r="3" fill="#ea580c"/>
<circle cx="623.99" cy="277.16" r="3" fill="#ea580c"/>
<circle cx="640.99" cy="283.68" r="3" fill="#ea580c"/>
<circle cx="657.99" cy="291.12" r="3" fill="#ea580c"/>
<circle cx="674.99" cy="269.98" r="3" fill="#ea580c"/>
<circle cx="691.99" cy="291.05" r="3" fill="#ea580c"/>
<circle cx="709.00" cy="278.74" r="3" fill="#ea580c"/>
<circle cx="726.00" cy="275.63" r="3" fill="#ea580c"/>
<circle cx="743.00" cy="284.96" r="3" fill="#ea580c"/>
<circle cx="760.00" cy="282.82" r="3" fill="#ea580c"/>
<circle cx="760.00" cy="281.79" r="3" fill="#ea580c"/>
<rect x="795" y="153" width="12" height="12" fill="#ea580c"/>
<text x="815" y="163" font-size="12" font-weight="400" text-anchor="start" fill="#111827">vision layer0</text>
<polyline points="80.00,148.25 80.27,158.16 80.60,154.66 81.59,157.56 83.25,157.22 86.57,160.12 96.54,183.45 96.94,184.93 113.14,202.33 113.94,207.83 130.94,220.01 146.35,246.96 147.94,241.61 164.94,261.03 181.94,292.14 198.95,303.08 215.95,311.23 232.95,335.16 249.95,343.52 266.95,370.38 283.95,392.33 300.96,394.64 317.96,382.77 334.96,405.30 351.96,411.59 368.96,412.13 385.96,420.66 402.97,412.36 419.97,417.86 436.97,416.65 453.97,416.89 470.97,421.82 487.97,410.31 504.98,412.27 521.98,422.88 538.98,419.48 555.98,424.28 572.98,418.10 589.98,407.39 606.99,433.48 623.99,409.43 640.99,418.21 657.99,421.19 674.99,411.91 691.99,427.47 709.00,414.57 726.00,410.89 743.00,413.10 760.00,427.31 760.00,419.61" fill="none" stroke="#0891b2" stroke-width="2.5"/>
<circle cx="80.00" cy="148.25" r="3" fill="#0891b2"/>
<circle cx="80.27" cy="158.16" r="3" fill="#0891b2"/>
<circle cx="80.60" cy="154.66" r="3" fill="#0891b2"/>
<circle cx="81.59" cy="157.56" r="3" fill="#0891b2"/>
<circle cx="83.25" cy="157.22" r="3" fill="#0891b2"/>
<circle cx="86.57" cy="160.12" r="3" fill="#0891b2"/>
<circle cx="96.54" cy="183.45" r="3" fill="#0891b2"/>
<circle cx="96.94" cy="184.93" r="3" fill="#0891b2"/>
<circle cx="113.14" cy="202.33" r="3" fill="#0891b2"/>
<circle cx="113.94" cy="207.83" r="3" fill="#0891b2"/>
<circle cx="130.94" cy="220.01" r="3" fill="#0891b2"/>
<circle cx="146.35" cy="246.96" r="3" fill="#0891b2"/>
<circle cx="147.94" cy="241.61" r="3" fill="#0891b2"/>
<circle cx="164.94" cy="261.03" r="3" fill="#0891b2"/>
<circle cx="181.94" cy="292.14" r="3" fill="#0891b2"/>
<circle cx="198.95" cy="303.08" r="3" fill="#0891b2"/>
<circle cx="215.95" cy="311.23" r="3" fill="#0891b2"/>
<circle cx="232.95" cy="335.16" r="3" fill="#0891b2"/>
<circle cx="249.95" cy="343.52" r="3" fill="#0891b2"/>
<circle cx="266.95" cy="370.38" r="3" fill="#0891b2"/>
<circle cx="283.95" cy="392.33" r="3" fill="#0891b2"/>
<circle cx="300.96" cy="394.64" r="3" fill="#0891b2"/>
<circle cx="317.96" cy="382.77" r="3" fill="#0891b2"/>
<circle cx="334.96" cy="405.30" r="3" fill="#0891b2"/>
<circle cx="351.96" cy="411.59" r="3" fill="#0891b2"/>
<circle cx="368.96" cy="412.13" r="3" fill="#0891b2"/>
<circle cx="385.96" cy="420.66" r="3" fill="#0891b2"/>
<circle cx="402.97" cy="412.36" r="3" fill="#0891b2"/>
<circle cx="419.97" cy="417.86" r="3" fill="#0891b2"/>
<circle cx="436.97" cy="416.65" r="3" fill="#0891b2"/>
<circle cx="453.97" cy="416.89" r="3" fill="#0891b2"/>
<circle cx="470.97" cy="421.82" r="3" fill="#0891b2"/>
<circle cx="487.97" cy="410.31" r="3" fill="#0891b2"/>
<circle cx="504.98" cy="412.27" r="3" fill="#0891b2"/>
<circle cx="521.98" cy="422.88" r="3" fill="#0891b2"/>
<circle cx="538.98" cy="419.48" r="3" fill="#0891b2"/>
<circle cx="555.98" cy="424.28" r="3" fill="#0891b2"/>
<circle cx="572.98" cy="418.10" r="3" fill="#0891b2"/>
<circle cx="589.98" cy="407.39" r="3" fill="#0891b2"/>
<circle cx="606.99" cy="433.48" r="3" fill="#0891b2"/>
<circle cx="623.99" cy="409.43" r="3" fill="#0891b2"/>
<circle cx="640.99" cy="418.21" r="3" fill="#0891b2"/>
<circle cx="657.99" cy="421.19" r="3" fill="#0891b2"/>
<circle cx="674.99" cy="411.91" r="3" fill="#0891b2"/>
<circle cx="691.99" cy="427.47" r="3" fill="#0891b2"/>
<circle cx="709.00" cy="414.57" r="3" fill="#0891b2"/>
<circle cx="726.00" cy="410.89" r="3" fill="#0891b2"/>
<circle cx="743.00" cy="413.10" r="3" fill="#0891b2"/>
<circle cx="760.00" cy="427.31" r="3" fill="#0891b2"/>
<circle cx="760.00" cy="419.61" r="3" fill="#0891b2"/>
<rect x="795" y="175" width="12" height="12" fill="#0891b2"/>
<text x="815" y="185" font-size="12" font-weight="400" text-anchor="start" fill="#111827">vision layer1</text>
</svg>
