<svg xmlns="http://www.w3.org/2000/svg" width="980" height="560" viewBox="0 0 980 560" font-family="Arial, sans-serif">
<rect width="100%" height="100%" fill="#ffffff"/>
<text x="80" y="35" font-size="20" font-weight="700" text-anchor="start" fill="#111827">baseline1 Fusion Attention Over Training</text>
<text x="20" y="275.0" font-size="13" font-weight="400" text-anchor="middle" fill="#111827">attention weight</text>
<line x1="80" y1="70" x2="80" y2="480" stroke="#9ca3af"/>
<line x1="80" y1="480" x2="760" y2="480" stroke="#9ca3af"/>
<line x1="80" y1="480.0" x2="760" y2="480.0" stroke="#e5e7eb"/>
<text x="72" y="484.0" font-size="11" font-weight="400" text-anchor="end" fill="#4b5563">0.147</text>
<line x1="80" y1="377.5" x2="760" y2="377.5" stroke="#e5e7eb"/>
<text x="72" y="381.5" font-size="11" font-weight="400" text-anchor="end" fill="#4b5563">0.282</text>
<line x1="80" y1="275.0" x2="760" y2="275.0" stroke="#e5e7eb"/>
<text x="72" y="279.0" font-size="11" font-weight="400" text-anchor="end" fill="#4b5563">0.418</text>
<line x1="80" y1="172.50000000000006" x2="760" y2="172.50000000000006" stroke="#e5e7eb"/>
<text x="72" y="176.50000000000006" font-size="11" font-weight="400" text-anchor="end" fill="#4b5563">0.554</text>
<line x1="80" y1="70.0" x2="760" y2="70.0" stroke="#e5e7eb"/>
<text x="72" y="74.0" font-size="11" font-weight="400" text-anchor="end" fill="#4b5563">0.690</text>
<text x="80.0" y="504" font-size="11" font-weight="400" text-anchor="middle" fill="#4b5563">1</text>
<text x="250.0" y="504" font-size="11" font-weight="400" text-anchor="middle" fill="#4b5563">2561</text>
<text x="420.0" y="504" font-size="11" font-weight="400" text-anchor="middle" fill="#4b5563">5120</text>
<text x="590.0" y="504" font-size="11" font-weight="400" text-anchor="middle" fill="#4b5563">7680</text>
<text x="760.0" y="504" font-size="11" font-weight="400" text-anchor="middle" fill="#4b5563">10240</text>
<polyline points="80.00,323.10 80.27,318.85 80.60,318.30 81.59,310.61 83.25,307.65 86.57,346.70 96.54,462.23 96.94,466.66 113.14,476.08 113.94,474.15 130.94,477.43 146.35,472.90 147.94,471.37 164.94,471.74 181.94,462.02 198.95,467.19 215.95,459.86 232.95,465.76 249.95,464.63 266.95,460.89 283.95,457.47 300.96,458.03 317.96,448.15 334.96,454.31 351.96,447.74 368.96,448.42 385.96,455.16 402.97,446.08 419.97,448.41 436.97,447.46 453.97,446.28 470.97,445.78 487.97,449.35 504.98,446.54 521.98,448.05 538.98,445.12 555.98,444.07 572.98,445.74 589.98,442.71 606.99,449.28 623.99,445.52 640.99,445.20 657.99,446.93 674.99,444.05 691.99,443.96 709.00,447.08 726.00,445.53 743.00,444.80 760.00,444.95 760.00,444.89" fill="none" stroke="#2563eb" stroke-width="2.5"/>
<circle cx="80.00" cy="323.10" r="3" fill="#2563eb"/>
<circle cx="80.27" cy="318.85" r="3" fill="#2563eb"/>
<circle cx="80.60" cy="318.30" r="3" fill="#2563eb"/>
<circle cx="81.59" cy="310.61" r="3" fill="#2563eb"/>
<circle cx="83.25" cy="307.65" r="3" fill="#2563eb"/>
<circle cx="86.57" cy="346.70" r="3" fill="#2563eb"/>
<circle cx="96.54" cy="462.23" r="3" fill="#2563eb"/>
<circle cx="96.94" cy="466.66" r="3" fill="#2563eb"/>
<circle cx="113.14" cy="476.08" r="3" fill="#2563eb"/>
<circle cx="113.94" cy="474.15" r="3" fill="#2563eb"/>
<circle cx="130.94" cy="477.43" r="3" fill="#2563eb"/>
<circle cx="146.35" cy="472.90" r="3" fill="#2563eb"/>
<circle cx="147.94" cy="471.37" r="3" fill="#2563eb"/>
<circle cx="164.94" cy="471.74" r="3" fill="#2563eb"/>
<circle cx="181.94" cy="462.02" r="3" fill="#2563eb"/>
<circle cx="198.95" cy="467.19" r="3" fill="#2563eb"/>
<circle cx="215.95" cy="459.86" r="3" fill="#2563eb"/>
<circle cx="232.95" cy="465.76" r="3" fill="#2563eb"/>
<circle cx="249.95" cy="464.63" r="3" fill="#2563eb"/>
<circle cx="266.95" cy="460.89" r="3" fill="#2563eb"/>
<circle cx="283.95" cy="457.47" r="3" fill="#2563eb"/>
<circle cx="300.96" cy="458.03" r="3" fill="#2563eb"/>
<circle cx="317.96" cy="448.15" r="3" fill="#2563eb"/>
<circle cx="334.96" cy="454.31" r="3" fill="#2563eb"/>
<circle cx="351.96" cy="447.74" r="3" fill="#2563eb"/>
<circle cx="368.96" cy="448.42" r="3" fill="#2563eb"/>
<circle cx="385.96" cy="455.16" r="3" fill="#2563eb"/>
<circle cx="402.97" cy="446.08" r="3" fill="#2563eb"/>
<circle cx="419.97" cy="448.41" r="3" fill="#2563eb"/>
<circle cx="436.97" cy="447.46" r="3" fill="#2563eb"/>
<circle cx="453.97" cy="446.28" r="3" fill="#2563eb"/>
<circle cx="470.97" cy="445.78" r="3" fill="#2563eb"/>
<circle cx="487.97" cy="449.35" r="3" fill="#2563eb"/>
<circle cx="504.98" cy="446.54" r="3" fill="#2563eb"/>
<circle cx="521.98" cy="448.05" r="3" fill="#2563eb"/>
<circle cx="538.98" cy="445.12" r="3" fill="#2563eb"/>
<circle cx="555.98" cy="444.07" r="3" fill="#2563eb"/>
<circle cx="572.98" cy="445.74" r="3" fill="#2563eb"/>
<circle cx="589.98" cy="442.71" r="3" fill="#2563eb"/>
<circle cx="606.99" cy="449.28" r="3" fill="#2563eb"/>
<circle cx="623.99" cy="445.52" r="3" fill="#2563eb"/>
<circle cx="640.99" cy="445.20" r="3" fill="#2563eb"/>
<circle cx="657.99" cy="446.93" r="3" fill="#2563eb"/>
<circle cx="674.99" cy="444.05" r="3" fill="#2563eb"/>
<circle cx="691.99" cy="443.96" r="3" fill="#2563eb"/>
<circle cx="709.00" cy="447.08" r="3" fill="#2563eb"/>
<circle cx="726.00" cy="445.53" r="3" fill="#2563eb"/>
<circle cx="743.00" cy="444.80" r="3" fill="#2563eb"/>
<circle cx="760.00" cy="444.95" r="3" fill="#2563eb"/>
<circle cx="760.00" cy="444.89" r="3" fill="#2563eb"/>
<rect x="795" y="65" width="12" height="12" fill="#2563eb"/>
<text x="815" y="75" font-size="12" font-weight="400" text-anchor="start" fill="#111827">layer0-&gt;audio</text>
<polyline points="80.00,306.55 80.27,310.74 80.60,315.08 81.59,327.56 83.25,334.30 86.57,273.77 96.54,102.75 96.94,93.26 113.14,81.49 113.94,82.57 130.94,76.71 146.35,75.78 147.94,82.31 164.94,76.57 181.94,80.32 198.95,70.00 215.95,85.90 232.95,73.79 249.95,78.13 266.95,90.75 283.95,94.03 300.96,92.26 317.96,117.68 334.96,104.80 351.96,117.75 368.96,111.55 385.96,107.54 402.97,110.79 419.97,118.39 436.97,118.81 453.97,118.25 470.97,124.32 487.97,115.40 504.98,119.49 521.98,116.04 538.98,121.03 555.98,124.90 572.98,122.23 589.98,126.00 606.99,116.85 623.99,122.34 640.99,122.99 657.99,117.44 674.99,125.16 691.99,121.59 709.00,116.12 726.00,119.44 743.00,120.92 760.00,123.33 760.00,121.82" fill="none" stroke="#dc2626" stroke-width="2.5"/>
<circle cx="80.00" cy="306.55" r="3" fill="#dc2626"/>
<circle cx="80.27" cy="310.74" r="3" fill="#dc2626"/>
<circle cx="80.60" cy="315.08" r="3" fill="#dc2626"/>
<circle cx="81.59" cy="327.56" r="3" fill="#dc2626"/>
<circle cx="83.25" cy="334.30" r="3" fill="#dc2626"/>
<circle cx="86.57" cy="273.77" r="3" fill="#dc2626"/>
<circle cx="96.54" cy="102.75" r="3" fill="#dc2626"/>
<circle cx="96.94" cy="93.26" r="3" fill="#dc2626"/>
<circle cx="113.14" cy="81.49" r="3" fill="#dc2626"/>
<circle cx="113.94" cy="82.57" r="3" fill="#dc2626"/>
<circle cx="130.94" cy="76.71" r="3" fill="#dc2626"/>
<circle cx="146.35" cy="75.78" r="3" fill="#dc2626"/>
<circle cx="147.94" cy="82.31" r="3" fill="#dc2626"/>
<circle cx="164.94" cy="76.57" r="3" fill="#dc2626"/>
<circle cx="181.94" cy="80.32" r="3" fill="#dc2626"/>
<circle cx="198.95" cy="70.00" r="3" fill="#dc2626"/>
<circle cx="215.95" cy="85.90" r="3" fill="#dc2626"/>
<circle cx="232.95" cy="73.79" r="3" fill="#dc2626"/>
<circle cx="249.95" cy="78.13" r="3" fill="#dc2626"/>
<circle cx="266.95" cy="90.75" r="3" fill="#dc2626"/>
<circle cx="283.95" cy="94.03" r="3" fill="#dc2626"/>
<circle cx="300.96" cy="92.26" r="3" fill="#dc2626"/>
<circle cx="317.96" cy="117.68" r="3" fill="#dc2626"/>
<circle cx="334.96" cy="104.80" r="3" fill="#dc2626"/>
<circle cx="351.96" cy="117.75" r="3" fill="#dc2626"/>
<circle cx="368.96" cy="111.55" r="3" fill="#dc2626"/>
<circle cx="385.96" cy="107.54" r="3" fill="#dc2626"/>
<circle cx="402.97" cy="110.79" r="3" fill="#dc2626"/>
<circle cx="419.97" cy="118.39" r="3" fill="#dc2626"/>
<circle cx="436.97" cy="118.81" r="3" fill="#dc2626"/>
<circle cx="453.97" cy="118.25" r="3" fill="#dc2626"/>
<circle cx="470.97" cy="124.32" r="3" fill="#dc2626"/>
<circle cx="487.97" cy="115.40" r="3" fill="#dc2626"/>
<circle cx="504.98" cy="119.49" r="3" fill="#dc2626"/>
<circle cx="521.98" cy="116.04" r="3" fill="#dc2626"/>
<circle cx="538.98" cy="121.03" r="3" fill="#dc2626"/>
<circle cx="555.98" cy="124.90" r="3" fill="#dc2626"/>
<circle cx="572.98" cy="122.23" r="3" fill="#dc2626"/>
<circle cx="589.98" cy="126.00" r="3" fill="#dc2626"/>
<circle cx="606.99" cy="116.85" r="3" fill="#dc2626"/>
<circle cx="623.99" cy="122.34" r="3" fill="#dc2626"/>
<circle cx="640.99" cy="122.99" r="3" fill="#dc2626"/>
<circle cx="657.99" cy="117.44" r="3" fill="#dc2626"/>
<circle cx="674.99" cy="125.16" r="3" fill="#dc2626"/>
<circle cx="691.99" cy="121.59" r="3" fill="#dc2626"/>
<circle cx="709.00" cy="116.12" r="3" fill="#dc2626"/>
<circle cx="726.00" cy="119.44" r="3" fill="#dc2626"/>
<circle cx="743.00" cy="120.92" r="3" fill="#dc2626"/>
<circle cx="760.00" cy="123.33" r="3" fill="#dc2626"/>
<circle cx="760.00" cy="121.82" r="3" fill="#dc2626"/>
<rect x="795" y="87" width="12" height="12" fill="#dc2626"/>
<text x="815" y="97" font-size="12" font-weight="400" text-anchor="start" fill="#111827">layer0-&gt;text</text>
<polyline points="80.00,387.54 80.27,387.60 80.60,383.81 81.59,379.02 83.25,375.23 86.57,396.72 96.54,452.22 96.94,457.27 113.14,459.61 113.94,460.47 130.94,463.05 146.35,468.51 147.94,463.50 164.94,468.88 181.94,474.85 198.95,480.00 215.95,471.42 232.95,477.64 249.95,474.42 266.95,465.55 283.95,465.69 300.96,466.89 317.96,451.37 334.96,458.08 351.96,451.70 368.96,457.23 385.96,454.48 402.97,460.32 419.97,450.39 436.97,450.92 453.97,452.66 470.97,447.09 487.97,452.44 504.98,451.16 521.98,453.11 538.98,451.03 555.98,448.22 572.98,449.21 589.98,448.47 606.99,451.06 623.99,449.33 640.99,449.00 657.99,452.83 674.99,447.98 691.99,451.64 709.00,453.98 726.00,452.22 743.00,451.47 760.00,450.48 760.00,448.91" fill="none" stroke="#16a34a" stroke-width="2.5"/>
<circle cx="80.00" cy="387.54" r="3" fill="#16a34a"/>
<circle cx="80.27" cy="387.60" r="3" fill="#16a34a"/>
<circle cx="80.60" cy="383.81" r="3" fill="#16a34a"/>
<circle cx="81.59" cy="379.02" r="3" fill="#16a34a"/>
<circle cx="83.25" cy="375.23" r="3" fill="#16a34a"/>
<circle cx="86.57" cy="396.72" r="3" fill="#16a34a"/>
<circle cx="96.54" cy="452.22" r="3" fill="#16a34a"/>
<circle cx="96.94" cy="457.27" r="3" fill="#16a34a"/>
<circle cx="113.14" cy="459.61" r="3" fill="#16a34a"/>
<circle cx="113.94" cy="460.47" r="3" fill="#16a34a"/>
<circle cx="130.94" cy="463.05" r="3" fill="#16a34a"/>
<circle cx="146.35" cy="468.51" r="3" fill="#16a34a"/>
<circle cx="147.94" cy="463.50" r="3" fill="#16a34a"/>
<circle cx="164.94" cy="468.88" r="3" fill="#16a34a"/>
<circle cx="181.94" cy="474.85" r="3" fill="#16a34a"/>
<circle cx="198.95" cy="480.00" r="3" fill="#16a34a"/>
<circle cx="215.95" cy="471.42" r="3" fill="#16a34a"/>
<circle cx="232.95" cy="477.64" r="3" fill="#16a34a"/>
<circle cx="249.95" cy="474.42" r="3" fill="#16a34a"/>
<circle cx="266.95" cy="465.55" r="3" fill="#16a34a"/>
<circle cx="283.95" cy="465.69" r="3" fill="#16a34a"/>
<circle cx="300.96" cy="466.89" r="3" fill="#16a34a"/>
<circle cx="317.96" cy="451.37" r="3" fill="#16a34a"/>
<circle cx="334.96" cy="458.08" r="3" fill="#16a34a"/>
<circle cx="351.96" cy="451.70" r="3" fill="#16a34a"/>
<circle cx="368.96" cy="457.23" r="3" fill="#16a34a"/>
<circle cx="385.96" cy="454.48" r="3" fill="#16a34a"/>
<circle cx="402.97" cy="460.32" r="3" fill="#16a34a"/>
<circle cx="419.97" cy="450.39" r="3" fill="#16a34a"/>
<circle cx="436.97" cy="450.92" r="3" fill="#16a34a"/>
<circle cx="453.97" cy="452.66" r="3" fill="#16a34a"/>
<circle cx="470.97" cy="447.09" r="3" fill="#16a34a"/>
<circle cx="487.97" cy="452.44" r="3" fill="#16a34a"/>
<circle cx="504.98" cy="451.16" r="3" fill="#16a34a"/>
<circle cx="521.98" cy="453.11" r="3" fill="#16a34a"/>
<circle cx="538.98" cy="451.03" r="3" fill="#16a34a"/>
<circle cx="555.98" cy="448.22" r="3" fill="#16a34a"/>
<circle cx="572.98" cy="449.21" r="3" fill="#16a34a"/>
<circle cx="589.98" cy="448.47" r="3" fill="#16a34a"/>
<circle cx="606.99" cy="451.06" r="3" fill="#16a34a"/>
<circle cx="623.99" cy="449.33" r="3" fill="#16a34a"/>
<circle cx="640.99" cy="449.00" r="3" fill="#16a34a"/>
<circle cx="657.99" cy="452.83" r="3" fill="#16a34a"/>
<circle cx="674.99" cy="447.98" r="3" fill="#16a34a"/>
<circle cx="691.99" cy="451.64" r="3" fill="#16a34a"/>
<circle cx="709.00" cy="453.98" r="3" fill="#16a34a"/>
<circle cx="726.00" cy="452.22" r="3" fill="#16a34a"/>
<circle cx="743.00" cy="451.47" r="3" fill="#16a34a"/>
<circle cx="760.00" cy="450.48" r="3" fill="#16a34a"/>
<circle cx="760.00" cy="448.91" r="3" fill="#16a34a"/>
<rect x="795" y="109" width="12" height="12" fill="#16a34a"/>
<text x="815" y="119" font-size="12" font-weight="400" text-anchor="start" fill="#111827">layer0-&gt;vision</text>
<polyline points="80.00,312.69 80.27,308.46 80.60,306.08 81.59,295.49 83.25,295.50 86.57,326.89 96.54,442.12 96.94,445.87 113.14,465.61 113.94,462.93 130.94,469.18 146.35,470.92 147.94,470.52 164.94,471.62 181.94,463.67 198.95,470.55 215.95,464.79 232.95,471.75 249.95,469.57 266.95,465.11 283.95,465.09 300.96,465.40 317.96,454.43 334.96,456.70 351.96,452.03 368.96,457.91 385.96,465.69 402.97,455.11 419.97,460.13 436.97,457.91 453.97,457.31 470.97,457.72 487.97,461.39 504.98,460.07 521.98,461.83 538.98,459.60 555.98,458.16 572.98,458.61 589.98,456.03 606.99,464.45 623.99,458.74 640.99,458.75 657.99,460.67 674.99,458.58 691.99,458.96 709.00,460.66 726.00,459.39 743.00,460.19 760.00,459.11 760.00,459.01" fill="none" stroke="#9333ea" stroke-width="2.5"/>
<circle cx="80.00" cy="312.69" r="3" fill="#9333ea"/>
<circle cx="80.27" cy="308.46" r="3" fill="#9333ea"/>
<circle cx="80.60" cy="306.08" r="3" fill="#9333ea"/>
<circle cx="81.59" cy="295.49" r="3" fill="#9333ea"/>
<circle cx="83.25" cy="295.50" r="3" fill="#9333ea"/>
<circle cx="86.57" cy="326.89" r="3" fill="#9333ea"/>
<circle cx="96.54" cy="442.12" r="3" fill="#9333ea"/>
<circle cx="96.94" cy="445.87" r="3" fill="#9333ea"/>
<circle cx="113.14" cy="465.61" r="3" fill="#9333ea"/>
<circle cx="113.94" cy="462.93" r="3" fill="#9333ea"/>
<circle cx="130.94" cy="469.18" r="3" fill="#9333ea"/>
<circle cx="146.35" cy="470.92" r="3" fill="#9333ea"/>
<circle cx="147.94" cy="470.52" r="3" fill="#9333ea"/>
<circle cx="164.94" cy="471.62" r="3" fill="#9333ea"/>
<circle cx="181.94" cy="463.67" r="3" fill="#9333ea"/>
<circle cx="198.95" cy="470.55" r="3" fill="#9333ea"/>
<circle cx="215.95" cy="464.79" r="3" fill="#9333ea"/>
<circle cx="232.95" cy="471.75" r="3" fill="#9333ea"/>
<circle cx="249.95" cy="469.57" r="3" fill="#9333ea"/>
<circle cx="266.95" cy="465.11" r="3" fill="#9333ea"/>
<circle cx="283.95" cy="465.09" r="3" fill="#9333ea"/>
<circle cx="300.96" cy="465.40" r="3" fill="#9333ea"/>
<circle cx="317.96" cy="454.43" r="3" fill="#9333ea"/>
<circle cx="334.96" cy="456.70" r="3" fill="#9333ea"/>
<circle cx="351.96" cy="452.03" r="3" fill="#9333ea"/>
<circle cx="368.96" cy="457.91" r="3" fill="#9333ea"/>
<circle cx="385.96" cy="465.69" r="3" fill="#9333ea"/>
<circle cx="402.97" cy="455.11" r="3" fill="#9333ea"/>
<circle cx="419.97" cy="460.13" r="3" fill="#9333ea"/>
<circle cx="436.97" cy="457.91" r="3" fill="#9333ea"/>
<circle cx="453.97" cy="457.31" r="3" fill="#9333ea"/>
<circle cx="470.97" cy="457.72" r="3" fill="#9333ea"/>
<circle cx="487.97" cy="461.39" r="3" fill="#9333ea"/>
<circle cx="504.98" cy="460.07" r="3" fill="#9333ea"/>
<circle cx="521.98" cy="461.83" r="3" fill="#9333ea"/>
<circle cx="538.98" cy="459.60" r="3" fill="#9333ea"/>
<circle cx="555.98" cy="458.16" r="3" fill="#9333ea"/>
<circle cx="572.98" cy="458.61" r="3" fill="#9333ea"/>
<circle cx="589.98" cy="456.03" r="3" fill="#9333ea"/>
<circle cx="606.99" cy="464.45" r="3" fill="#9333ea"/>
<circle cx="623.99" cy="458.74" r="3" fill="#9333ea"/>
<circle cx="640.99" cy="458.75" r="3" fill="#9333ea"/>
<circle cx="657.99" cy="460.67" r="3" fill="#9333ea"/>
<circle cx="674.99" cy="458.58" r="3" fill="#9333ea"/>
<circle cx="691.99" cy="458.96" r="3" fill="#9333ea"/>
<circle cx="709.00" cy="460.66" r="3" fill="#9333ea"/>
<circle cx="726.00" cy="459.39" r="3" fill="#9333ea"/>
<circle cx="743.00" cy="460.19" r="3" fill="#9333ea"/>
<circle cx="760.00" cy="459.11" r="3" fill="#9333ea"/>
<circle cx="760.00" cy="459.01" r="3" fill="#9333ea"/>
<rect x="795" y="131" width="12" height="12" fill="#9333ea"/>
<text x="815" y="141" font-size="12" font-weight="400" text-anchor="start" fill="#111827">layer1-&gt;audio</text>
<polyline points="80.00,323.85 80.27,327.19 80.60,331.48 81.59,345.22 83.25,351.78 86.57,312.46 96.54,135.55 96.94,127.41 113.14,98.27 113.94,100.58 130.94,87.75 146.35,80.74 147.94,86.17 164.94,82.42 181.94,88.55 198.95,74.16 215.95,89.32 232.95,76.59 249.95,80.14 266.95,95.62 283.95,94.36 300.96,89.66 317.96,122.76 334.96,108.83 351.96,124.13 368.96,111.25 385.96,105.93 402.97,113.46 419.97,116.78 436.97,118.77 453.97,118.62 470.97,121.61 487.97,113.25 504.98,115.68 521.98,111.48 538.98,116.07 555.98,121.03 572.98,120.64 589.98,123.94 606.99,110.78 623.99,118.77 640.99,118.52 657.99,114.44 674.99,121.62 691.99,117.78 709.00,111.27 726.00,115.46 743.00,116.34 760.00,118.93 760.00,117.63" fill="none" stroke="#ea580c" stroke-width="2.5"/>
<circle cx="80.00" cy="323.85" r="3" fill="#ea580c"/>
<circle cx="80.27" cy="327.19" r="3" fill="#ea580c"/>
<circle cx="80.60" cy="331.48" r="3" fill="#ea580c"/>
<circle cx="81.59" cy="345.22" r="3" fill="#ea580c"/>
<circle cx="83.25" cy="351.78" r="3" fill="#ea580c"/>
<circle cx="86.57" cy="312.46" r="3" fill="#ea580c"/>
<circle cx="96.54" cy="135.55" r="3" fill="#ea580c"/>
<circle cx="96.94" cy="127.41" r="3" fill="#ea580c"/>
<circle cx="113.14" cy="98.27" r="3" fill="#ea580c"/>
<circle cx="113.94" cy="100.58" r="3" fill="#ea580c"/>
<circle cx="130.94" cy="87.75" r="3" fill="#ea580c"/>
<circle cx="146.35" cy="80.74" r="3" fill="#ea580c"/>
<circle cx="147.94" cy="86.17" r="3" fill="#ea580c"/>
<circle cx="164.94" cy="82.42" r="3" fill="#ea580c"/>
<circle cx="181.94" cy="88.55" r="3" fill="#ea580c"/>
<circle cx="198.95" cy="74.16" r="3" fill="#ea580c"/>
<circle cx="215.95" cy="89.32" r="3" fill="#ea580c"/>
<circle cx="232.95" cy="76.59" r="3" fill="#ea580c"/>
<circle cx="249.95" cy="80.14" r="3" fill="#ea580c"/>
<circle cx="266.95" cy="95.62" r="3" fill="#ea580c"/>
<circle cx="283.95" cy="94.36" r="3" fill="#ea580c"/>
<circle cx="300.96" cy="89.66" r="3" fill="#ea580c"/>
<circle cx="317.96" cy="122.76" r="3" fill="#ea580c"/>
<circle cx="334.96" cy="108.83" r="3" fill="#ea580c"/>
<circle cx="351.96" cy="124.13" r="3" fill="#ea580c"/>
<circle cx="368.96" cy="111.25" r="3" fill="#ea580c"/>
<circle cx="385.96" cy="105.93" r="3" fill="#ea580c"/>
<circle cx="402.97" cy="113.46" r="3" fill="#ea580c"/>
<circle cx="419.97" cy="116.78" r="3" fill="#ea580c"/>
<circle cx="436.97" cy="118.77" r="3" fill="#ea580c"/>
<circle cx="453.97" cy="118.62" r="3" fill="#ea580c"/>
<circle cx="470.97" cy="121.61" r="3" fill="#ea580c"/>
<circle cx="487.97" cy="113.25" r="3" fill="#ea580c"/>
<circle cx="504.98" cy="115.68" r="3" fill="#ea580c"/>
<circle cx="521.98" cy="111.48" r="3" fill="#ea580c"/>
<circle cx="538.98" cy="116.07" r="3" fill="#ea580c"/>
<circle cx="555.98" cy="121.03" r="3" fill="#ea580c"/>
<circle cx="572.98" cy="120.64" r="3" fill="#ea580c"/>
<circle cx="589.98" cy="123.94" r="3" fill="#ea580c"/>
<circle cx="606.99" cy="110.78" r="3" fill="#ea580c"/>
<circle cx="623.99" cy="118.77" r="3" fill="#ea580c"/>
<circle cx="640.99" cy="118.52" r="3" fill="#ea580c"/>
<circle cx="657.99" cy="114.44" r="3" fill="#ea580c"/>
<circle cx="674.99" cy="121.62" r="3" fill="#ea580c"/>
<circle cx="691.99" cy="117.78" r="3" fill="#ea580c"/>
<circle cx="709.00" cy="111.27" r="3" fill="#ea580c"/>
<circle cx="726.00" cy="115.46" r="3" fill="#ea580c"/>
<circle cx="743.00" cy="116.34" r="3" fill="#ea580c"/>
<circle cx="760.00" cy="118.93" r="3" fill="#ea580c"/>
<circle cx="760.00" cy="117.63" r="3" fill="#ea580c"/>
<rect x="795" y="153" width="12" height="12" fill="#ea580c"/>
<text x="815" y="163" font-size="12" font-weight="400" text-anchor="start" fill="#111827">layer1-&gt;text</text>
<polyline points="80.00,380.65 80.27,381.54 80.60,379.63 81.59,376.47 83.25,369.91 86.57,377.83 96.54,439.52 96.94,443.91 113.14,453.30 113.94,453.68 130.94,460.26 146.35,465.53 147.94,460.50 164.94,463.14 181.94,464.97 198.95,472.47 215.95,463.08 232.95,468.85 249.95,467.47 266.95,456.45 283.95,457.74 300.96,462.12 317.96,440.00 334.96,451.66 351.96,441.03 368.96,448.03 385.96,445.57 402.97,448.62 419.97,440.28 436.97,440.51 453.97,441.26 470.97,437.86 487.97,442.55 504.98,441.44 521.98,443.87 538.98,441.51 555.98,438.00 572.98,437.94 589.98,437.22 606.99,441.96 623.99,439.68 640.99,439.92 657.99,442.07 674.99,436.99 691.99,440.45 709.00,445.26 726.00,442.34 743.00,440.66 760.00,440.45 760.00,439.26" fill="none" stroke="#0891b2" stroke-width="2.5"/>
<circle cx="80.00" cy="380.65" r="3" fill="#0891b2"/>
<circle cx="80.27" cy="381.54" r="3" fill="#0891b2"/>
<circle cx="80.60" cy="379.63" r="3" fill="#0891b2"/>
<circle cx="81.59" cy="376.47" r="3" fill="#0891b2"/>
<circle cx="83.25" cy="369.91" r="3" fill="#0891b2"/>
<circle cx="86.57" cy="377.83" r="3" fill="#0891b2"/>
<circle cx="96.54" cy="439.52" r="3" fill="#0891b2"/>
<circle cx="96.94" cy="443.91" r="3" fill="#0891b2"/>
<circle cx="113.14" cy="453.30" r="3" fill="#0891b2"/>
<circle cx="113.94" cy="453.68" r="3" fill="#0891b2"/>
<circle cx="130.94" cy="460.26" r="3" fill="#0891b2"/>
<circle cx="146.35" cy="465.53" r="3" fill="#0891b2"/>
<circle cx="147.94" cy="460.50" r="3" fill="#0891b2"/>
<circle cx="164.94" cy="463.14" r="3" fill="#0891b2"/>
<circle cx="181.94" cy="464.97" r="3" fill="#0891b2"/>
<circle cx="198.95" cy="472.47" r="3" fill="#0891b2"/>
<circle cx="215.95" cy="463.08" r="3" fill="#0891b2"/>
<circle cx="232.95" cy="468.85" r="3" fill="#0891b2"/>
<circle cx="249.95" cy="467.47" r="3" fill="#0891b2"/>
<circle cx="266.95" cy="456.45" r="3" fill="#0891b2"/>
<circle cx="283.95" cy="457.74" r="3" fill="#0891b2"/>
<circle cx="300.96" cy="462.12" r="3" fill="#0891b2"/>
<circle cx="317.96" cy="440.00" r="3" fill="#0891b2"/>
<circle cx="334.96" cy="451.66" r="3" fill="#0891b2"/>
<circle cx="351.96" cy="441.03" r="3" fill="#0891b2"/>
<circle cx="368.96" cy="448.03" r="3" fill="#0891b2"/>
<circle cx="385.96" cy="445.57" r="3" fill="#0891b2"/>
<circle cx="402.97" cy="448.62" r="3" fill="#0891b2"/>
<circle cx="419.97" cy="440.28" r="3" fill="#0891b2"/>
<circle cx="436.97" cy="440.51" r="3" fill="#0891b2"/>
<circle cx="453.97" cy="441.26" r="3" fill="#0891b2"/>
<circle cx="470.97" cy="437.86" r="3" fill="#0891b2"/>
<circle cx="487.97" cy="442.55" r="3" fill="#0891b2"/>
<circle cx="504.98" cy="441.44" r="3" fill="#0891b2"/>
<circle cx="521.98" cy="443.87" r="3" fill="#0891b2"/>
<circle cx="538.98" cy="441.51" r="3" fill="#0891b2"/>
<circle cx="555.98" cy="438.00" r="3" fill="#0891b2"/>
<circle cx="572.98" cy="437.94" r="3" fill="#0891b2"/>
<circle cx="589.98" cy="437.22" r="3" fill="#0891b2"/>
<circle cx="606.99" cy="441.96" r="3" fill="#0891b2"/>
<circle cx="623.99" cy="439.68" r="3" fill="#0891b2"/>
<circle cx="640.99" cy="439.92" r="3" fill="#0891b2"/>
<circle cx="657.99" cy="442.07" r="3" fill="#0891b2"/>
<circle cx="674.99" cy="436.99" r="3" fill="#0891b2"/>
<circle cx="691.99" cy="440.45" r="3" fill="#0891b2"/>
<circle cx="709.00" cy="445.26" r="3" fill="#0891b2"/>
<circle cx="726.00" cy="442.34" r="3" fill="#0891b2"/>
<circle cx="743.00" cy="440.66" r="3" fill="#0891b2"/>
<circle cx="760.00" cy="440.45" r="3" fill="#0891b2"/>
<circle cx="760.00" cy="439.26" r="3" fill="#0891b2"/>
<rect x="795" y="175" width="12" height="12" fill="#0891b2"/>
<text x="815" y="185" font-size="12" font-weight="400" text-anchor="start" fill="#111827">layer1-&gt;vision</text>
</svg>
