<svg xmlns="http://www.w3.org/2000/svg" width="980" height="560" viewBox="0 0 980 560" font-family="Arial, sans-serif">
<rect width="100%" height="100%" fill="#ffffff"/>
<text x="180" y="35" font-size="20" font-weight="700" text-anchor="start" fill="#111827">Cross-Modal Fusion Final Head-Wise Attention</text>
<text x="225.0" y="62" font-size="11" font-weight="400" text-anchor="middle" fill="#111827">audio</text>
<text x="315.0" y="62" font-size="11" font-weight="400" text-anchor="middle" fill="#111827">text</text>
<text x="405.0" y="62" font-size="11" font-weight="400" text-anchor="middle" fill="#111827">vision</text>
<text x="168" y="106.5" font-size="11" font-weight="400" text-anchor="end" fill="#111827">audio h0</text>
<rect x="180" y="80" width="90" height="45" fill="rgb(393,398,255)" stroke="#ffffff"/>
<text x="225.0" y="106.5" font-size="11" font-weight="400" text-anchor="middle" fill="#111827">0.000</text>
<rect x="270" y="80" width="90" height="45" fill="rgb(110,115,255)" stroke="#ffffff"/>
<text x="315.0" y="106.5" font-size="11" font-weight="400" text-anchor="middle" fill="#111827">0.641</text>
<rect x="360" y="80" width="90" height="45" fill="rgb(234,239,255)" stroke="#ffffff"/>
<text x="405.0" y="106.5" font-size="11" font-weight="400" text-anchor="middle" fill="#111827">0.359</text>
<text x="168" y="151.5" font-size="11" font-weight="400" text-anchor="end" fill="#111827">audio h1</text>
<rect x="180" y="125" width="90" height="45" fill="rgb(393,398,255)" stroke="#ffffff"/>
<text x="225.0" y="151.5" font-size="11" font-weight="400" text-anchor="middle" fill="#111827">0.000</text>
<rect x="270" y="125" width="90" height="45" fill="rgb(193,198,255)" stroke="#ffffff"/>
<text x="315.0" y="151.5" font-size="11" font-weight="400" text-anchor="middle" fill="#111827">0.452</text>
<rect x="360" y="125" width="90" height="45" fill="rgb(151,156,255)" stroke="#ffffff"/>
<text x="405.0" y="151.5" font-size="11" font-weight="400" text-anchor="middle" fill="#111827">0.548</text>
<text x="168" y="196.5" font-size="11" font-weight="400" text-anchor="end" fill="#111827">audio h2</text>
<rect x="180" y="170" width="90" height="45" fill="rgb(393,398,255)" stroke="#ffffff"/>
<text x="225.0" y="196.5" font-size="11" font-weight="400" text-anchor="middle" fill="#111827">0.000</text>
<rect x="270" y="170" width="90" height="45" fill="rgb(161,166,255)" stroke="#ffffff"/>
<text x="315.0" y="196.5" font-size="11" font-weight="400" text-anchor="middle" fill="#111827">0.525</text>
<rect x="360" y="170" width="90" height="45" fill="rgb(183,188,255)" stroke="#ffffff"/>
<text x="405.0" y="196.5" font-size="11" font-weight="400" text-anchor="middle" fill="#111827">0.475</text>
<text x="168" y="241.5" font-size="11" font-weight="400" text-anchor="end" fill="#111827">audio h3</text>
<rect x="180" y="215" width="90" height="45" fill="rgb(393,398,255)" stroke="#ffffff"/>
<text x="225.0" y="241.5" font-size="11" font-weight="400" text-anchor="middle" fill="#111827">0.000</text>
<rect x="270" y="215" width="90" height="45" fill="rgb(130,135,255)" stroke="#ffffff"/>
<text x="315.0" y="241.5" font-size="11" font-weight="400" text-anchor="middle" fill="#111827">0.595</text>
<rect x="360" y="215" width="90" height="45" fill="rgb(214,219,255)" stroke="#ffffff"/>
<text x="405.0" y="241.5" font-size="11" font-weight="400" text-anchor="middle" fill="#111827">0.405</text>
<text x="168" y="286.5" font-size="11" font-weight="400" text-anchor="end" fill="#111827">text h0</text>
<rect x="180" y="260" width="90" height="45" fill="rgb(171,176,255)" stroke="#ffffff"/>
<text x="225.0" y="286.5" font-size="11" font-weight="400" text-anchor="middle" fill="#111827">0.503</text>
<rect x="270" y="260" width="90" height="45" fill="rgb(393,398,255)" stroke="#ffffff"/>
<text x="315.0" y="286.5" font-size="11" font-weight="400" text-anchor="middle" fill="#111827">0.000</text>
<rect x="360" y="260" width="90" height="45" fill="rgb(173,178,255)" stroke="#ffffff"/>
<text x="405.0" y="286.5" font-size="11" font-weight="400" text-anchor="middle" fill="#111827">0.497</text>
<text x="168" y="331.5" font-size="11" font-weight="400" text-anchor="end" fill="#111827">text h1</text>
<rect x="180" y="305" width="90" height="45" fill="rgb(174,179,255)" stroke="#ffffff"/>
<text x="225.0" y="331.5" font-size="11" font-weight="400" text-anchor="middle" fill="#111827">0.497</text>
<rect x="270" y="305" width="90" height="45" fill="rgb(393,398,255)" stroke="#ffffff"/>
<text x="315.0" y="331.5" font-size="11" font-weight="400" text-anchor="middle" fill="#111827">0.000</text>
<rect x="360" y="305" width="90" height="45" fill="rgb(170,175,255)" stroke="#ffffff"/>
<text x="405.0" y="331.5" font-size="11" font-weight="400" text-anchor="middle" fill="#111827">0.503</text>
<text x="168" y="376.5" font-size="11" font-weight="400" text-anchor="end" fill="#111827">text h2</text>
<rect x="180" y="350" width="90" height="45" fill="rgb(155,160,255)" stroke="#ffffff"/>
<text x="225.0" y="376.5" font-size="11" font-weight="400" text-anchor="middle" fill="#111827">0.539</text>
<rect x="270" y="350" width="90" height="45" fill="rgb(393,398,255)" stroke="#ffffff"/>
<text x="315.0" y="376.5" font-size="11" font-weight="400" text-anchor="middle" fill="#111827">0.000</text>
<rect x="360" y="350" width="90" height="45" fill="rgb(189,194,255)" stroke="#ffffff"/>
<text x="405.0" y="376.5" font-size="11" font-weight="400" text-anchor="middle" fill="#111827">0.461</text>
<text x="168" y="421.5" font-size="11" font-weight="400" text-anchor="end" fill="#111827">text h3</text>
<rect x="180" y="395" width="90" height="45" fill="rgb(200,205,255)" stroke="#ffffff"/>
<text x="225.0" y="421.5" font-size="11" font-weight="400" text-anchor="middle" fill="#111827">0.437</text>
<rect x="270" y="395" width="90" height="45" fill="rgb(393,398,255)" stroke="#ffffff"/>
<text x="315.0" y="421.5" font-size="11" font-weight="400" text-anchor="middle" fill="#111827">0.000</text>
<rect x="360" y="395" width="90" height="45" fill="rgb(144,149,255)" stroke="#ffffff"/>
<text x="405.0" y="421.5" font-size="11" font-weight="400" text-anchor="middle" fill="#111827">0.563</text>
<text x="168" y="466.5" font-size="11" font-weight="400" text-anchor="end" fill="#111827">vision h0</text>
<rect x="180" y="440" width="90" height="45" fill="rgb(207,212,255)" stroke="#ffffff"/>
<text x="225.0" y="466.5" font-size="11" font-weight="400" text-anchor="middle" fill="#111827">0.420</text>
<rect x="270" y="440" width="90" height="45" fill="rgb(137,142,255)" stroke="#ffffff"/>
<text x="315.0" y="466.5" font-size="11" font-weight="400" text-anchor="middle" fill="#111827">0.580</text>
<rect x="360" y="440" width="90" height="45" fill="rgb(393,398,255)" stroke="#ffffff"/>
<text x="405.0" y="466.5" font-size="11" font-weight="400" text-anchor="middle" fill="#111827">0.000</text>
<text x="168" y="511.5" font-size="11" font-weight="400" text-anchor="end" fill="#111827">vision h1</text>
<rect x="180" y="485" width="90" height="45" fill="rgb(198,203,255)" stroke="#ffffff"/>
<text x="225.0" y="511.5" font-size="11" font-weight="400" text-anchor="middle" fill="#111827">0.442</text>
<rect x="270" y="485" width="90" height="45" fill="rgb(146,151,255)" stroke="#ffffff"/>
<text x="315.0" y="511.5" font-size="11" font-weight="400" text-anchor="middle" fill="#111827">0.558</text>
<rect x="360" y="485" width="90" height="45" fill="rgb(393,398,255)" stroke="#ffffff"/>
<text x="405.0" y="511.5" font-size="11" font-weight="400" text-anchor="middle" fill="#111827">0.000</text>
<text x="168" y="556.5" font-size="11" font-weight="400" text-anchor="end" fill="#111827">vision h2</text>
<rect x="180" y="530" width="90" height="45" fill="rgb(185,190,255)" stroke="#ffffff"/>
<text x="225.0" y="556.5" font-size="11" font-weight="400" text-anchor="middle" fill="#111827">0.471</text>
<rect x="270" y="530" width="90" height="45" fill="rgb(159,164,255)" stroke="#ffffff"/>
<text x="315.0" y="556.5" font-size="11" font-weight="400" text-anchor="middle" fill="#111827">0.529</text>
<rect x="360" y="530" width="90" height="45" fill="rgb(393,398,255)" stroke="#ffffff"/>
<text x="405.0" y="556.5" font-size="11" font-weight="400" text-anchor="middle" fill="#111827">0.000</text>
<text x="168" y="601.5" font-size="11" font-weight="400" text-anchor="end" fill="#111827">vision h3</text>
<rect x="180" y="575" width="90" height="45" fill="rgb(245,250,255)" stroke="#ffffff"/>
<text x="225.0" y="601.5" font-size="11" font-weight="400" text-anchor="middle" fill="#111827">0.336</text>
<rect x="270" y="575" width="90" height="45" fill="rgb(100,105,255)" stroke="#ffffff"/>
<text x="315.0" y="601.5" font-size="11" font-weight="400" text-anchor="middle" fill="#111827">0.664</text>
<rect x="360" y="575" width="90" height="45" fill="rgb(393,398,255)" stroke="#ffffff"/>
<text x="405.0" y="601.5" font-size="11" font-weight="400" text-anchor="middle" fill="#111827">0.000</text>
</svg>
