<svg xmlns="http://www.w3.org/2000/svg" width="980" height="560" viewBox="0 0 980 560" font-family="Arial, sans-serif">
<rect width="100%" height="100%" fill="#ffffff"/>
<text x="80" y="35" font-size="20" font-weight="700" text-anchor="start" fill="#111827">Late Fusion Orthogonality Over Training</text>
<text x="20" y="275.0" font-size="13" font-weight="400" text-anchor="middle" fill="#111827">similarity</text>
<line x1="80" y1="70" x2="80" y2="480" stroke="#9ca3af"/>
<line x1="80" y1="480" x2="760" y2="480" stroke="#9ca3af"/>
<line x1="80" y1="480.0" x2="760" y2="480.0" stroke="#e5e7eb"/>
<text x="72" y="484.0" font-size="11" font-weight="400" text-anchor="end" fill="#4b5563">0.077</text>
<line x1="80" y1="377.5" x2="760" y2="377.5" stroke="#e5e7eb"/>
<text x="72" y="381.5" font-size="11" font-weight="400" text-anchor="end" fill="#4b5563">0.172</text>
<line x1="80" y1="275.0" x2="760" y2="275.0" stroke="#e5e7eb"/>
<text x="72" y="279.0" font-size="11" font-weight="400" text-anchor="end" fill="#4b5563">0.268</text>
<line x1="80" y1="172.5" x2="760" y2="172.5" stroke="#e5e7eb"/>
<text x="72" y="176.5" font-size="11" font-weight="400" text-anchor="end" fill="#4b5563">0.363</text>
<line x1="80" y1="69.99999999999994" x2="760" y2="69.99999999999994" stroke="#e5e7eb"/>
<text x="72" y="73.99999999999994" font-size="11" font-weight="400" text-anchor="end" fill="#4b5563">0.459</text>
<text x="80.0" y="504" font-size="11" font-weight="400" text-anchor="middle" fill="#4b5563">1</text>
<text x="250.0" y="504" font-size="11" font-weight="400" text-anchor="middle" fill="#4b5563">2561</text>
<text x="420.0" y="504" font-size="11" font-weight="400" text-anchor="middle" fill="#4b5563">5120</text>
<text x="590.0" y="504" font-size="11" font-weight="400" text-anchor="middle" fill="#4b5563">7680</text>
<text x="760.0" y="504" font-size="11" font-weight="400" text-anchor="middle" fill="#4b5563">10240</text>
<polyline points="80.00,200.02 80.27,203.78 80.60,190.33 81.59,191.99 83.25,186.90 86.57,174.96 96.54,99.27 96.94,99.55 113.14,72.77 113.94,70.00 130.94,83.46 146.35,80.79 147.94,85.43 164.94,88.38 181.94,95.17 198.95,106.56 215.95,90.54 232.95,117.51 249.95,139.44 266.95,131.22 283.95,139.27 300.96,150.03 317.96,146.63 334.96,147.41 351.96,150.05 368.96,160.12 385.96,149.82 402.97,145.34 419.97,154.74 436.97,158.71 453.97,148.65 470.97,157.87 487.97,152.76 504.98,159.01 521.98,153.79 538.98,156.66 555.98,158.03 572.98,155.82 589.98,159.43 606.99,161.65 623.99,161.36 640.99,154.06 657.99,155.66 674.99,162.69 691.99,148.15 709.00,153.14 726.00,154.51 743.00,161.54 760.00,164.31 760.00,157.34" fill="none" stroke="#2563eb" stroke-width="2.5"/>
<circle cx="80.00" cy="200.02" r="3" fill="#2563eb"/>
<circle cx="80.27" cy="203.78" r="3" fill="#2563eb"/>
<circle cx="80.60" cy="190.33" r="3" fill="#2563eb"/>
<circle cx="81.59" cy="191.99" r="3" fill="#2563eb"/>
<circle cx="83.25" cy="186.90" r="3" fill="#2563eb"/>
<circle cx="86.57" cy="174.96" r="3" fill="#2563eb"/>
<circle cx="96.54" cy="99.27" r="3" fill="#2563eb"/>
<circle cx="96.94" cy="99.55" r="3" fill="#2563eb"/>
<circle cx="113.14" cy="72.77" r="3" fill="#2563eb"/>
<circle cx="113.94" cy="70.00" r="3" fill="#2563eb"/>
<circle cx="130.94" cy="83.46" r="3" fill="#2563eb"/>
<circle cx="146.35" cy="80.79" r="3" fill="#2563eb"/>
<circle cx="147.94" cy="85.43" r="3" fill="#2563eb"/>
<circle cx="164.94" cy="88.38" r="3" fill="#2563eb"/>
<circle cx="181.94" cy="95.17" r="3" fill="#2563eb"/>
<circle cx="198.95" cy="106.56" r="3" fill="#2563eb"/>
<circle cx="215.95" cy="90.54" r="3" fill="#2563eb"/>
<circle cx="232.95" cy="117.51" r="3" fill="#2563eb"/>
<circle cx="249.95" cy="139.44" r="3" fill="#2563eb"/>
<circle cx="266.95" cy="131.22" r="3" fill="#2563eb"/>
<circle cx="283.95" cy="139.27" r="3" fill="#2563eb"/>
<circle cx="300.96" cy="150.03" r="3" fill="#2563eb"/>
<circle cx="317.96" cy="146.63" r="3" fill="#2563eb"/>
<circle cx="334.96" cy="147.41" r="3" fill="#2563eb"/>
<circle cx="351.96" cy="150.05" r="3" fill="#2563eb"/>
<circle cx="368.96" cy="160.12" r="3" fill="#2563eb"/>
<circle cx="385.96" cy="149.82" r="3" fill="#2563eb"/>
<circle cx="402.97" cy="145.34" r="3" fill="#2563eb"/>
<circle cx="419.97" cy="154.74" r="3" fill="#2563eb"/>
<circle cx="436.97" cy="158.71" r="3" fill="#2563eb"/>
<circle cx="453.97" cy="148.65" r="3" fill="#2563eb"/>
<circle cx="470.97" cy="157.87" r="3" fill="#2563eb"/>
<circle cx="487.97" cy="152.76" r="3" fill="#2563eb"/>
<circle cx="504.98" cy="159.01" r="3" fill="#2563eb"/>
<circle cx="521.98" cy="153.79" r="3" fill="#2563eb"/>
<circle cx="538.98" cy="156.66" r="3" fill="#2563eb"/>
<circle cx="555.98" cy="158.03" r="3" fill="#2563eb"/>
<circle cx="572.98" cy="155.82" r="3" fill="#2563eb"/>
<circle cx="589.98" cy="159.43" r="3" fill="#2563eb"/>
<circle cx="606.99" cy="161.65" r="3" fill="#2563eb"/>
<circle cx="623.99" cy="161.36" r="3" fill="#2563eb"/>
<circle cx="640.99" cy="154.06" r="3" fill="#2563eb"/>
<circle cx="657.99" cy="155.66" r="3" fill="#2563eb"/>
<circle cx="674.99" cy="162.69" r="3" fill="#2563eb"/>
<circle cx="691.99" cy="148.15" r="3" fill="#2563eb"/>
<circle cx="709.00" cy="153.14" r="3" fill="#2563eb"/>
<circle cx="726.00" cy="154.51" r="3" fill="#2563eb"/>
<circle cx="743.00" cy="161.54" r="3" fill="#2563eb"/>
<circle cx="760.00" cy="164.31" r="3" fill="#2563eb"/>
<circle cx="760.00" cy="157.34" r="3" fill="#2563eb"/>
<rect x="795" y="65" width="12" height="12" fill="#2563eb"/>
<text x="815" y="75" font-size="12" font-weight="400" text-anchor="start" fill="#111827">audio_vision_cosine_abs_mean</text>
<polyline points="80.00,208.55 80.27,210.45 80.60,202.62 81.59,206.63 83.25,204.94 86.57,205.44 96.54,197.69 96.94,203.81 113.14,194.74 113.94,194.27 130.94,211.83 146.35,211.96 147.94,220.10 164.94,229.14 181.94,232.98 198.95,243.03 215.95,246.47 232.95,255.47 249.95,273.07 266.95,266.65 283.95,277.82 300.96,285.71 317.96,281.17 334.96,282.94 351.96,289.80 368.96,292.73 385.96,288.06 402.97,287.84 419.97,288.49 436.97,287.58 453.97,289.10 470.97,289.04 487.97,290.16 504.98,292.60 521.98,287.43 538.98,289.30 555.98,294.53 572.98,292.11 589.98,291.08 606.99,292.18 623.99,290.44 640.99,291.45 657.99,290.20 674.99,292.59 691.99,288.80 709.00,293.71 726.00,290.46 743.00,297.06 760.00,290.94 760.00,290.07" fill="none" stroke="#dc2626" stroke-width="2.5"/>
<circle cx="80.00" cy="208.55" r="3" fill="#dc2626"/>
<circle cx="80.27" cy="210.45" r="3" fill="#dc2626"/>
<circle cx="80.60" cy="202.62" r="3" fill="#dc2626"/>
<circle cx="81.59" cy="206.63" r="3" fill="#dc2626"/>
<circle cx="83.25" cy="204.94" r="3" fill="#dc2626"/>
<circle cx="86.57" cy="205.44" r="3" fill="#dc2626"/>
<circle cx="96.54" cy="197.69" r="3" fill="#dc2626"/>
<circle cx="96.94" cy="203.81" r="3" fill="#dc2626"/>
<circle cx="113.14" cy="194.74" r="3" fill="#dc2626"/>
<circle cx="113.94" cy="194.27" r="3" fill="#dc2626"/>
<circle cx="130.94" cy="211.83" r="3" fill="#dc2626"/>
<circle cx="146.35" cy="211.96" r="3" fill="#dc2626"/>
<circle cx="147.94" cy="220.10" r="3" fill="#dc2626"/>
<circle cx="164.94" cy="229.14" r="3" fill="#dc2626"/>
<circle cx="181.94" cy="232.98" r="3" fill="#dc2626"/>
<circle cx="198.95" cy="243.03" r="3" fill="#dc2626"/>
<circle cx="215.95" cy="246.47" r="3" fill="#dc2626"/>
<circle cx="232.95" cy="255.47" r="3" fill="#dc2626"/>
<circle cx="249.95" cy="273.07" r="3" fill="#dc2626"/>
<circle cx="266.95" cy="266.65" r="3" fill="#dc2626"/>
<circle cx="283.95" cy="277.82" r="3" fill="#dc2626"/>
<circle cx="300.96" cy="285.71" r="3" fill="#dc2626"/>
<circle cx="317.96" cy="281.17" r="3" fill="#dc2626"/>
<circle cx="334.96" cy="282.94" r="3" fill="#dc2626"/>
<circle cx="351.96" cy="289.80" r="3" fill="#dc2626"/>
<circle cx="368.96" cy="292.73" r="3" fill="#dc2626"/>
<circle cx="385.96" cy="288.06" r="3" fill="#dc2626"/>
<circle cx="402.97" cy="287.84" r="3" fill="#dc2626"/>
<circle cx="419.97" cy="288.49" r="3" fill="#dc2626"/>
<circle cx="436.97" cy="287.58" r="3" fill="#dc2626"/>
<circle cx="453.97" cy="289.10" r="3" fill="#dc2626"/>
<circle cx="470.97" cy="289.04" r="3" fill="#dc2626"/>
<circle cx="487.97" cy="290.16" r="3" fill="#dc2626"/>
<circle cx="504.98" cy="292.60" r="3" fill="#dc2626"/>
<circle cx="521.98" cy="287.43" r="3" fill="#dc2626"/>
<circle cx="538.98" cy="289.30" r="3" fill="#dc2626"/>
<circle cx="555.98" cy="294.53" r="3" fill="#dc2626"/>
<circle cx="572.98" cy="292.11" r="3" fill="#dc2626"/>
<circle cx="589.98" cy="291.08" r="3" fill="#dc2626"/>
<circle cx="606.99" cy="292.18" r="3" fill="#dc2626"/>
<circle cx="623.99" cy="290.44" r="3" fill="#dc2626"/>
<circle cx="640.99" cy="291.45" r="3" fill="#dc2626"/>
<circle cx="657.99" cy="290.20" r="3" fill="#dc2626"/>
<circle cx="674.99" cy="292.59" r="3" fill="#dc2626"/>
<circle cx="691.99" cy="288.80" r="3" fill="#dc2626"/>
<circle cx="709.00" cy="293.71" r="3" fill="#dc2626"/>
<circle cx="726.00" cy="290.46" r="3" fill="#dc2626"/>
<circle cx="743.00" cy="297.06" r="3" fill="#dc2626"/>
<circle cx="760.00" cy="290.94" r="3" fill="#dc2626"/>
<circle cx="760.00" cy="290.07" r="3" fill="#dc2626"/>
<rect x="795" y="87" width="12" height="12" fill="#dc2626"/>
<text x="815" y="97" font-size="12" font-weight="400" text-anchor="start" fill="#111827">overall_cosine_abs_mean</text>
<polyline points="80.00,438.60 80.27,439.48 80.60,434.84 81.59,436.59 83.25,436.55 86.57,435.87 96.54,426.03 96.94,429.25 113.14,422.08 113.94,421.34 130.94,432.11 146.35,433.06 147.94,437.43 164.94,442.06 181.94,445.32 198.95,450.57 215.95,451.58 232.95,458.27 249.95,467.34 266.95,465.30 283.95,470.28 300.96,474.58 317.96,472.77 334.96,473.70 351.96,476.71 368.96,478.40 385.96,475.83 402.97,475.73 419.97,476.90 436.97,476.83 453.97,476.54 470.97,476.83 487.97,476.99 504.98,479.02 521.98,476.67 538.98,477.25 555.98,479.22 572.98,478.21 589.98,478.08 606.99,478.83 623.99,478.75 640.99,478.87 657.99,477.45 674.99,479.34 691.99,475.98 709.00,478.54 726.00,477.61 743.00,480.00 760.00,478.64 760.00,478.00" fill="none" stroke="#16a34a" stroke-width="2.5"/>
<circle cx="80.00" cy="438.60" r="3" fill="#16a34a"/>
<circle cx="80.27" cy="439.48" r="3" fill="#16a34a"/>
<circle cx="80.60" cy="434.84" r="3" fill="#16a34a"/>
<circle cx="81.59" cy="436.59" r="3" fill="#16a34a"/>
<circle cx="83.25" cy="436.55" r="3" fill="#16a34a"/>
<circle cx="86.57" cy="435.87" r="3" fill="#16a34a"/>
<circle cx="96.54" cy="426.03" r="3" fill="#16a34a"/>
<circle cx="96.94" cy="429.25" r="3" fill="#16a34a"/>
<circle cx="113.14" cy="422.08" r="3" fill="#16a34a"/>
<circle cx="113.94" cy="421.34" r="3" fill="#16a34a"/>
<circle cx="130.94" cy="432.11" r="3" fill="#16a34a"/>
<circle cx="146.35" cy="433.06" r="3" fill="#16a34a"/>
<circle cx="147.94" cy="437.43" r="3" fill="#16a34a"/>
<circle cx="164.94" cy="442.06" r="3" fill="#16a34a"/>
<circle cx="181.94" cy="445.32" r="3" fill="#16a34a"/>
<circle cx="198.95" cy="450.57" r="3" fill="#16a34a"/>
<circle cx="215.95" cy="451.58" r="3" fill="#16a34a"/>
<circle cx="232.95" cy="458.27" r="3" fill="#16a34a"/>
<circle cx="249.95" cy="467.34" r="3" fill="#16a34a"/>
<circle cx="266.95" cy="465.30" r="3" fill="#16a34a"/>
<circle cx="283.95" cy="470.28" r="3" fill="#16a34a"/>
<circle cx="300.96" cy="474.58" r="3" fill="#16a34a"/>
<circle cx="317.96" cy="472.77" r="3" fill="#16a34a"/>
<circle cx="334.96" cy="473.70" r="3" fill="#16a34a"/>
<circle cx="351.96" cy="476.71" r="3" fill="#16a34a"/>
<circle cx="368.96" cy="478.40" r="3" fill="#16a34a"/>
<circle cx="385.96" cy="475.83" r="3" fill="#16a34a"/>
<circle cx="402.97" cy="475.73" r="3" fill="#16a34a"/>
<circle cx="419.97" cy="476.90" r="3" fill="#16a34a"/>
<circle cx="436.97" cy="476.83" r="3" fill="#16a34a"/>
<circle cx="453.97" cy="476.54" r="3" fill="#16a34a"/>
<circle cx="470.97" cy="476.83" r="3" fill="#16a34a"/>
<circle cx="487.97" cy="476.99" r="3" fill="#16a34a"/>
<circle cx="504.98" cy="479.02" r="3" fill="#16a34a"/>
<circle cx="521.98" cy="476.67" r="3" fill="#16a34a"/>
<circle cx="538.98" cy="477.25" r="3" fill="#16a34a"/>
<circle cx="555.98" cy="479.22" r="3" fill="#16a34a"/>
<circle cx="572.98" cy="478.21" r="3" fill="#16a34a"/>
<circle cx="589.98" cy="478.08" r="3" fill="#16a34a"/>
<circle cx="606.99" cy="478.83" r="3" fill="#16a34a"/>
<circle cx="623.99" cy="478.75" r="3" fill="#16a34a"/>
<circle cx="640.99" cy="478.87" r="3" fill="#16a34a"/>
<circle cx="657.99" cy="477.45" r="3" fill="#16a34a"/>
<circle cx="674.99" cy="479.34" r="3" fill="#16a34a"/>
<circle cx="691.99" cy="475.98" r="3" fill="#16a34a"/>
<circle cx="709.00" cy="478.54" r="3" fill="#16a34a"/>
<circle cx="726.00" cy="477.61" r="3" fill="#16a34a"/>
<circle cx="743.00" cy="480.00" r="3" fill="#16a34a"/>
<circle cx="760.00" cy="478.64" r="3" fill="#16a34a"/>
<circle cx="760.00" cy="478.00" r="3" fill="#16a34a"/>
<rect x="795" y="109" width="12" height="12" fill="#16a34a"/>
<text x="815" y="119" font-size="12" font-weight="400" text-anchor="start" fill="#111827">overall_cosine_squared_mean</text>
<polyline points="80.00,234.23 80.27,231.93 80.60,227.91 81.59,238.72 83.25,234.46 86.57,246.71 96.54,261.80 96.94,277.24 113.14,259.85 113.94,257.93 130.94,274.37 146.35,273.91 147.94,283.52 164.94,295.43 181.94,298.59 198.95,302.05 215.95,315.74 232.95,319.38 249.95,337.31 266.95,329.37 283.95,343.12 300.96,348.31 317.96,345.29 334.96,347.02 351.96,350.83 368.96,355.76 385.96,349.44 402.97,349.16 419.97,347.94 436.97,345.45 453.97,351.43 470.97,349.56 487.97,354.62 504.98,357.83 521.98,347.53 538.98,349.07 555.98,358.46 572.98,355.23 589.98,349.80 606.99,348.80 623.99,347.91 640.99,356.34 657.99,351.14 674.99,353.23 691.99,351.46 709.00,357.67 726.00,352.82 743.00,362.77 760.00,351.93 760.00,347.59" fill="none" stroke="#9333ea" stroke-width="2.5"/>
<circle cx="80.00" cy="234.23" r="3" fill="#9333ea"/>
<circle cx="80.27" cy="231.93" r="3" fill="#9333ea"/>
<circle cx="80.60" cy="227.91" r="3" fill="#9333ea"/>
<circle cx="81.59" cy="238.72" r="3" fill="#9333ea"/>
<circle cx="83.25" cy="234.46" r="3" fill="#9333ea"/>
<circle cx="86.57" cy="246.71" r="3" fill="#9333ea"/>
<circle cx="96.54" cy="261.80" r="3" fill="#9333ea"/>
<circle cx="96.94" cy="277.24" r="3" fill="#9333ea"/>
<circle cx="113.14" cy="259.85" r="3" fill="#9333ea"/>
<circle cx="113.94" cy="257.93" r="3" fill="#9333ea"/>
<circle cx="130.94" cy="274.37" r="3" fill="#9333ea"/>
<circle cx="146.35" cy="273.91" r="3" fill="#9333ea"/>
<circle cx="147.94" cy="283.52" r="3" fill="#9333ea"/>
<circle cx="164.94" cy="295.43" r="3" fill="#9333ea"/>
<circle cx="181.94" cy="298.59" r="3" fill="#9333ea"/>
<circle cx="198.95" cy="302.05" r="3" fill="#9333ea"/>
<circle cx="215.95" cy="315.74" r="3" fill="#9333ea"/>
<circle cx="232.95" cy="319.38" r="3" fill="#9333ea"/>
<circle cx="249.95" cy="337.31" r="3" fill="#9333ea"/>
<circle cx="266.95" cy="329.37" r="3" fill="#9333ea"/>
<circle cx="283.95" cy="343.12" r="3" fill="#9333ea"/>
<circle cx="300.96" cy="348.31" r="3" fill="#9333ea"/>
<circle cx="317.96" cy="345.29" r="3" fill="#9333ea"/>
<circle cx="334.96" cy="347.02" r="3" fill="#9333ea"/>
<circle cx="351.96" cy="350.83" r="3" fill="#9333ea"/>
<circle cx="368.96" cy="355.76" r="3" fill="#9333ea"/>
<circle cx="385.96" cy="349.44" r="3" fill="#9333ea"/>
<circle cx="402.97" cy="349.16" r="3" fill="#9333ea"/>
<circle cx="419.97" cy="347.94" r="3" fill="#9333ea"/>
<circle cx="436.97" cy="345.45" r="3" fill="#9333ea"/>
<circle cx="453.97" cy="351.43" r="3" fill="#9333ea"/>
<circle cx="470.97" cy="349.56" r="3" fill="#9333ea"/>
<circle cx="487.97" cy="354.62" r="3" fill="#9333ea"/>
<circle cx="504.98" cy="357.83" r="3" fill="#9333ea"/>
<circle cx="521.98" cy="347.53" r="3" fill="#9333ea"/>
<circle cx="538.98" cy="349.07" r="3" fill="#9333ea"/>
<circle cx="555.98" cy="358.46" r="3" fill="#9333ea"/>
<circle cx="572.98" cy="355.23" r="3" fill="#9333ea"/>
<circle cx="589.98" cy="349.80" r="3" fill="#9333ea"/>
<circle cx="606.99" cy="348.80" r="3" fill="#9333ea"/>
<circle cx="623.99" cy="347.91" r="3" fill="#9333ea"/>
<circle cx="640.99" cy="356.34" r="3" fill="#9333ea"/>
<circle cx="657.99" cy="351.14" r="3" fill="#9333ea"/>
<circle cx="674.99" cy="353.23" r="3" fill="#9333ea"/>
<circle cx="691.99" cy="351.46" r="3" fill="#9333ea"/>
<circle cx="709.00" cy="357.67" r="3" fill="#9333ea"/>
<circle cx="726.00" cy="352.82" r="3" fill="#9333ea"/>
<circle cx="743.00" cy="362.77" r="3" fill="#9333ea"/>
<circle cx="760.00" cy="351.93" r="3" fill="#9333ea"/>
<circle cx="760.00" cy="347.59" r="3" fill="#9333ea"/>
<rect x="795" y="131" width="12" height="12" fill="#9333ea"/>
<text x="815" y="141" font-size="12" font-weight="400" text-anchor="start" fill="#111827">text_audio_cosine_abs_mean</text>
<polyline points="80.00,191.39 80.27,195.63 80.60,189.61 81.59,189.19 83.25,193.45 86.57,194.66 96.54,231.99 96.94,234.64 113.14,251.60 113.94,254.88 130.94,277.65 146.35,281.17 147.94,291.34 164.94,303.61 181.94,305.18 198.95,320.48 215.95,333.14 232.95,329.52 249.95,342.47 266.95,339.36 283.95,351.07 300.96,358.79 317.96,351.59 334.96,354.40 351.96,368.52 368.96,362.31 385.96,364.92 402.97,369.03 419.97,362.80 436.97,358.59 453.97,367.22 470.97,359.70 487.97,363.09 504.98,360.95 521.98,360.96 538.98,362.16 555.98,367.10 572.98,365.30 589.98,364.00 606.99,366.09 623.99,362.06 640.99,363.96 657.99,363.80 674.99,361.83 691.99,366.80 709.00,370.31 726.00,364.05 743.00,366.88 760.00,363.55 760.00,358.30" fill="none" stroke="#ea580c" stroke-width="2.5"/>
<circle cx="80.00" cy="191.39" r="3" fill="#ea580c"/>
<circle cx="80.27" cy="195.63" r="3" fill="#ea580c"/>
<circle cx="80.60" cy="189.61" r="3" fill="#ea580c"/>
<circle cx="81.59" cy="189.19" r="3" fill="#ea580c"/>
<circle cx="83.25" cy="193.45" r="3" fill="#ea580c"/>
<circle cx="86.57" cy="194.66" r="3" fill="#ea580c"/>
<circle cx="96.54" cy="231.99" r="3" fill="#ea580c"/>
<circle cx="96.94" cy="234.64" r="3" fill="#ea580c"/>
<circle cx="113.14" cy="251.60" r="3" fill="#ea580c"/>
<circle cx="113.94" cy="254.88" r="3" fill="#ea580c"/>
<circle cx="130.94" cy="277.65" r="3" fill="#ea580c"/>
<circle cx="146.35" cy="281.17" r="3" fill="#ea580c"/>
<circle cx="147.94" cy="291.34" r="3" fill="#ea580c"/>
<circle cx="164.94" cy="303.61" r="3" fill="#ea580c"/>
<circle cx="181.94" cy="305.18" r="3" fill="#ea580c"/>
<circle cx="198.95" cy="320.48" r="3" fill="#ea580c"/>
<circle cx="215.95" cy="333.14" r="3" fill="#ea580c"/>
<circle cx="232.95" cy="329.52" r="3" fill="#ea580c"/>
<circle cx="249.95" cy="342.47" r="3" fill="#ea580c"/>
<circle cx="266.95" cy="339.36" r="3" fill="#ea580c"/>
<circle cx="283.95" cy="351.07" r="3" fill="#ea580c"/>
<circle cx="300.96" cy="358.79" r="3" fill="#ea580c"/>
<circle cx="317.96" cy="351.59" r="3" fill="#ea580c"/>
<circle cx="334.96" cy="354.40" r="3" fill="#ea580c"/>
<circle cx="351.96" cy="368.52" r="3" fill="#ea580c"/>
<circle cx="368.96" cy="362.31" r="3" fill="#ea580c"/>
<circle cx="385.96" cy="364.92" r="3" fill="#ea580c"/>
<circle cx="402.97" cy="369.03" r="3" fill="#ea580c"/>
<circle cx="419.97" cy="362.80" r="3" fill="#ea580c"/>
<circle cx="436.97" cy="358.59" r="3" fill="#ea580c"/>
<circle cx="453.97" cy="367.22" r="3" fill="#ea580c"/>
<circle cx="470.97" cy="359.70" r="3" fill="#ea580c"/>
<circle cx="487.97" cy="363.09" r="3" fill="#ea580c"/>
<circle cx="504.98" cy="360.95" r="3" fill="#ea580c"/>
<circle cx="521.98" cy="360.96" r="3" fill="#ea580c"/>
<circle cx="538.98" cy="362.16" r="3" fill="#ea580c"/>
<circle cx="555.98" cy="367.10" r="3" fill="#ea580c"/>
<circle cx="572.98" cy="365.30" r="3" fill="#ea580c"/>
<circle cx="589.98" cy="364.00" r="3" fill="#ea580c"/>
<circle cx="606.99" cy="366.09" r="3" fill="#ea580c"/>
<circle cx="623.99" cy="362.06" r="3" fill="#ea580c"/>
<circle cx="640.99" cy="363.96" r="3" fill="#ea580c"/>
<circle cx="657.99" cy="363.80" r="3" fill="#ea580c"/>
<circle cx="674.99" cy="361.83" r="3" fill="#ea580c"/>
<circle cx="691.99" cy="366.80" r="3" fill="#ea580c"/>
<circle cx="709.00" cy="370.31" r="3" fill="#ea580c"/>
<circle cx="726.00" cy="364.05" r="3" fill="#ea580c"/>
<circle cx="743.00" cy="366.88" r="3" fill="#ea580c"/>
<circle cx="760.00" cy="363.55" r="3" fill="#ea580c"/>
<circle cx="760.00" cy="358.30" r="3" fill="#ea580c"/>
<rect x="795" y="153" width="12" height="12" fill="#ea580c"/>
<text x="815" y="163" font-size="12" font-weight="400" text-anchor="start" fill="#111827">text_vision_cosine_abs_mean</text>
</svg>
