<svg xmlns="http://www.w3.org/2000/svg" width="980" height="560" viewBox="0 0 980 560" font-family="Arial, sans-serif">
<rect width="100%" height="100%" fill="#ffffff"/>
<text x="80" y="35" font-size="20" font-weight="700" text-anchor="start" fill="#111827">late_fusion Self-Attention Entropy Over Training</text>
<text x="20" y="275.0" font-size="13" font-weight="400" text-anchor="middle" fill="#111827">attention entropy</text>
<line x1="80" y1="70" x2="80" y2="480" stroke="#9ca3af"/>
<line x1="80" y1="480" x2="760" y2="480" stroke="#9ca3af"/>
<line x1="80" y1="480.0" x2="760" y2="480.0" stroke="#e5e7eb"/>
<text x="72" y="484.0" font-size="11" font-weight="400" text-anchor="end" fill="#4b5563">3.439</text>
<line x1="80" y1="377.5000000000001" x2="760" y2="377.5000000000001" stroke="#e5e7eb"/>
<text x="72" y="381.5000000000001" font-size="11" font-weight="400" text-anchor="end" fill="#4b5563">3.548</text>
<line x1="80" y1="275.0000000000002" x2="760" y2="275.0000000000002" stroke="#e5e7eb"/>
<text x="72" y="279.0000000000002" font-size="11" font-weight="400" text-anchor="end" fill="#4b5563">3.657</text>
<line x1="80" y1="172.4999999999999" x2="760" y2="172.4999999999999" stroke="#e5e7eb"/>
<text x="72" y="176.4999999999999" font-size="11" font-weight="400" text-anchor="end" fill="#4b5563">3.767</text>
<line x1="80" y1="70.0" x2="760" y2="70.0" stroke="#e5e7eb"/>
<text x="72" y="74.0" font-size="11" font-weight="400" text-anchor="end" fill="#4b5563">3.876</text>
<text x="80.0" y="504" font-size="11" font-weight="400" text-anchor="middle" fill="#4b5563">1</text>
<text x="250.0" y="504" font-size="11" font-weight="400" text-anchor="middle" fill="#4b5563">2561</text>
<text x="420.0" y="504" font-size="11" font-weight="400" text-anchor="middle" fill="#4b5563">5120</text>
<text x="590.0" y="504" font-size="11" font-weight="400" text-anchor="middle" fill="#4b5563">7680</text>
<text x="760.0" y="504" font-size="11" font-weight="400" text-anchor="middle" fill="#4b5563">10240</text>
<polyline points="80.00,70.24 80.27,71.56 80.60,70.00 81.59,77.98 83.25,80.28 86.57,71.88 96.54,77.97 96.94,81.21 113.14,72.01 113.94,71.24 130.94,75.67 146.35,84.62 147.94,75.87 164.94,92.30 181.94,93.33 198.95,85.22 215.95,93.86 232.95,92.36 249.95,94.35 266.95,93.59 283.95,97.51 300.96,95.09 317.96,111.68 334.96,109.99 351.96,109.41 368.96,113.37 385.96,119.08 402.97,119.62 419.97,109.46 436.97,114.33 453.97,116.67 470.97,112.70 487.97,120.21 504.98,110.48 521.98,119.29 538.98,109.09 555.98,110.78 572.98,111.15 589.98,122.12 606.99,112.28 623.99,120.73 640.99,119.09 657.99,109.09 674.99,123.00 691.99,115.87 709.00,113.04 726.00,113.05 743.00,113.52 760.00,115.73 760.00,113.60" fill="none" stroke="#2563eb" stroke-width="2.5"/>
<circle cx="80.00" cy="70.24" r="3" fill="#2563eb"/>
<circle cx="80.27" cy="71.56" r="3" fill="#2563eb"/>
<circle cx="80.60" cy="70.00" r="3" fill="#2563eb"/>
<circle cx="81.59" cy="77.98" r="3" fill="#2563eb"/>
<circle cx="83.25" cy="80.28" r="3" fill="#2563eb"/>
<circle cx="86.57" cy="71.88" r="3" fill="#2563eb"/>
<circle cx="96.54" cy="77.97" r="3" fill="#2563eb"/>
<circle cx="96.94" cy="81.21" r="3" fill="#2563eb"/>
<circle cx="113.14" cy="72.01" r="3" fill="#2563eb"/>
<circle cx="113.94" cy="71.24" r="3" fill="#2563eb"/>
<circle cx="130.94" cy="75.67" r="3" fill="#2563eb"/>
<circle cx="146.35" cy="84.62" r="3" fill="#2563eb"/>
<circle cx="147.94" cy="75.87" r="3" fill="#2563eb"/>
<circle cx="164.94" cy="92.30" r="3" fill="#2563eb"/>
<circle cx="181.94" cy="93.33" r="3" fill="#2563eb"/>
<circle cx="198.95" cy="85.22" r="3" fill="#2563eb"/>
<circle cx="215.95" cy="93.86" r="3" fill="#2563eb"/>
<circle cx="232.95" cy="92.36" r="3" fill="#2563eb"/>
<circle cx="249.95" cy="94.35" r="3" fill="#2563eb"/>
<circle cx="266.95" cy="93.59" r="3" fill="#2563eb"/>
<circle cx="283.95" cy="97.51" r="3" fill="#2563eb"/>
<circle cx="300.96" cy="95.09" r="3" fill="#2563eb"/>
<circle cx="317.96" cy="111.68" r="3" fill="#2563eb"/>
<circle cx="334.96" cy="109.99" r="3" fill="#2563eb"/>
<circle cx="351.96" cy="109.41" r="3" fill="#2563eb"/>
<circle cx="368.96" cy="113.37" r="3" fill="#2563eb"/>
<circle cx="385.96" cy="119.08" r="3" fill="#2563eb"/>
<circle cx="402.97" cy="119.62" r="3" fill="#2563eb"/>
<circle cx="419.97" cy="109.46" r="3" fill="#2563eb"/>
<circle cx="436.97" cy="114.33" r="3" fill="#2563eb"/>
<circle cx="453.97" cy="116.67" r="3" fill="#2563eb"/>
<circle cx="470.97" cy="112.70" r="3" fill="#2563eb"/>
<circle cx="487.97" cy="120.21" r="3" fill="#2563eb"/>
<circle cx="504.98" cy="110.48" r="3" fill="#2563eb"/>
<circle cx="521.98" cy="119.29" r="3" fill="#2563eb"/>
<circle cx="538.98" cy="109.09" r="3" fill="#2563eb"/>
<circle cx="555.98" cy="110.78" r="3" fill="#2563eb"/>
<circle cx="572.98" cy="111.15" r="3" fill="#2563eb"/>
<circle cx="589.98" cy="122.12" r="3" fill="#2563eb"/>
<circle cx="606.99" cy="112.28" r="3" fill="#2563eb"/>
<circle cx="623.99" cy="120.73" r="3" fill="#2563eb"/>
<circle cx="640.99" cy="119.09" r="3" fill="#2563eb"/>
<circle cx="657.99" cy="109.09" r="3" fill="#2563eb"/>
<circle cx="674.99" cy="123.00" r="3" fill="#2563eb"/>
<circle cx="691.99" cy="115.87" r="3" fill="#2563eb"/>
<circle cx="709.00" cy="113.04" r="3" fill="#2563eb"/>
<circle cx="726.00" cy="113.05" r="3" fill="#2563eb"/>
<circle cx="743.00" cy="113.52" r="3" fill="#2563eb"/>
<circle cx="760.00" cy="115.73" r="3" fill="#2563eb"/>
<circle cx="760.00" cy="113.60" r="3" fill="#2563eb"/>
<rect x="795" y="65" width="12" height="12" fill="#2563eb"/>
<text x="815" y="75" font-size="12" font-weight="400" text-anchor="start" fill="#111827">audio layer0</text>
<polyline points="80.00,96.88 80.27,97.29 80.60,96.83 81.59,96.04 83.25,96.57 86.57,96.27 96.54,97.31 96.94,97.80 113.14,100.25 113.94,100.46 130.94,105.57 146.35,115.30 147.94,117.42 164.94,137.30 181.94,161.81 198.95,181.61 215.95,212.98 232.95,231.57 249.95,256.98 266.95,281.71 283.95,310.44 300.96,343.29 317.96,346.91 334.96,383.05 351.96,416.49 368.96,408.17 385.96,435.41 402.97,440.09 419.97,452.34 436.97,451.59 453.97,452.99 470.97,461.61 487.97,456.99 504.98,465.00 521.98,462.88 538.98,468.80 555.98,471.92 572.98,476.90 589.98,443.80 606.99,476.61 623.99,457.16 640.99,458.22 657.99,473.00 674.99,463.77 691.99,477.41 709.00,444.02 726.00,467.34 743.00,465.05 760.00,480.00 760.00,466.92" fill="none" stroke="#dc2626" stroke-width="2.5"/>
<circle cx="80.00" cy="96.88" r="3" fill="#dc2626"/>
<circle cx="80.27" cy="97.29" r="3" fill="#dc2626"/>
<circle cx="80.60" cy="96.83" r="3" fill="#dc2626"/>
<circle cx="81.59" cy="96.04" r="3" fill="#dc2626"/>
<circle cx="83.25" cy="96.57" r="3" fill="#dc2626"/>
<circle cx="86.57" cy="96.27" r="3" fill="#dc2626"/>
<circle cx="96.54" cy="97.31" r="3" fill="#dc2626"/>
<circle cx="96.94" cy="97.80" r="3" fill="#dc2626"/>
<circle cx="113.14" cy="100.25" r="3" fill="#dc2626"/>
<circle cx="113.94" cy="100.46" r="3" fill="#dc2626"/>
<circle cx="130.94" cy="105.57" r="3" fill="#dc2626"/>
<circle cx="146.35" cy="115.30" r="3" fill="#dc2626"/>
<circle cx="147.94" cy="117.42" r="3" fill="#dc2626"/>
<circle cx="164.94" cy="137.30" r="3" fill="#dc2626"/>
<circle cx="181.94" cy="161.81" r="3" fill="#dc2626"/>
<circle cx="198.95" cy="181.61" r="3" fill="#dc2626"/>
<circle cx="215.95" cy="212.98" r="3" fill="#dc2626"/>
<circle cx="232.95" cy="231.57" r="3" fill="#dc2626"/>
<circle cx="249.95" cy="256.98" r="3" fill="#dc2626"/>
<circle cx="266.95" cy="281.71" r="3" fill="#dc2626"/>
<circle cx="283.95" cy="310.44" r="3" fill="#dc2626"/>
<circle cx="300.96" cy="343.29" r="3" fill="#dc2626"/>
<circle cx="317.96" cy="346.91" r="3" fill="#dc2626"/>
<circle cx="334.96" cy="383.05" r="3" fill="#dc2626"/>
<circle cx="351.96" cy="416.49" r="3" fill="#dc2626"/>
<circle cx="368.96" cy="408.17" r="3" fill="#dc2626"/>
<circle cx="385.96" cy="435.41" r="3" fill="#dc2626"/>
<circle cx="402.97" cy="440.09" r="3" fill="#dc2626"/>
<circle cx="419.97" cy="452.34" r="3" fill="#dc2626"/>
<circle cx="436.97" cy="451.59" r="3" fill="#dc2626"/>
<circle cx="453.97" cy="452.99" r="3" fill="#dc2626"/>
<circle cx="470.97" cy="461.61" r="3" fill="#dc2626"/>
<circle cx="487.97" cy="456.99" r="3" fill="#dc2626"/>
<circle cx="504.98" cy="465.00" r="3" fill="#dc2626"/>
<circle cx="521.98" cy="462.88" r="3" fill="#dc2626"/>
<circle cx="538.98" cy="468.80" r="3" fill="#dc2626"/>
<circle cx="555.98" cy="471.92" r="3" fill="#dc2626"/>
<circle cx="572.98" cy="476.90" r="3" fill="#dc2626"/>
<circle cx="589.98" cy="443.80" r="3" fill="#dc2626"/>
<circle cx="606.99" cy="476.61" r="3" fill="#dc2626"/>
<circle cx="623.99" cy="457.16" r="3" fill="#dc2626"/>
<circle cx="640.99" cy="458.22" r="3" fill="#dc2626"/>
<circle cx="657.99" cy="473.00" r="3" fill="#dc2626"/>
<circle cx="674.99" cy="463.77" r="3" fill="#dc2626"/>
<circle cx="691.99" cy="477.41" r="3" fill="#dc2626"/>
<circle cx="709.00" cy="444.02" r="3" fill="#dc2626"/>
<circle cx="726.00" cy="467.34" r="3" fill="#dc2626"/>
<circle cx="743.00" cy="465.05" r="3" fill="#dc2626"/>
<circle cx="760.00" cy="480.00" r="3" fill="#dc2626"/>
<circle cx="760.00" cy="466.92" r="3" fill="#dc2626"/>
<rect x="795" y="87" width="12" height="12" fill="#dc2626"/>
<text x="815" y="97" font-size="12" font-weight="400" text-anchor="start" fill="#111827">audio layer1</text>
<polyline points="80.00,79.42 80.27,80.28 80.60,79.46 81.59,79.56 83.25,80.13 86.57,83.27 96.54,89.81 96.94,91.07 113.14,92.26 113.94,93.14 130.94,95.06 146.35,100.30 147.94,97.90 164.94,104.92 181.94,114.01 198.95,122.74 215.95,132.41 232.95,149.74 249.95,161.39 266.95,172.35 283.95,185.53 300.96,203.67 317.96,221.49 334.96,237.75 351.96,251.73 368.96,274.11 385.96,281.84 402.97,282.43 419.97,295.06 436.97,302.11 453.97,304.10 470.97,303.12 487.97,309.77 504.98,303.26 521.98,313.68 538.98,305.05 555.98,312.70 572.98,314.48 589.98,320.08 606.99,320.41 623.99,316.89 640.99,314.31 657.99,302.00 674.99,317.28 691.99,312.31 709.00,321.32 726.00,308.52 743.00,322.41 760.00,317.17 760.00,308.53" fill="none" stroke="#16a34a" stroke-width="2.5"/>
<circle cx="80.00" cy="79.42" r="3" fill="#16a34a"/>
<circle cx="80.27" cy="80.28" r="3" fill="#16a34a"/>
<circle cx="80.60" cy="79.46" r="3" fill="#16a34a"/>
<circle cx="81.59" cy="79.56" r="3" fill="#16a34a"/>
<circle cx="83.25" cy="80.13" r="3" fill="#16a34a"/>
<circle cx="86.57" cy="83.27" r="3" fill="#16a34a"/>
<circle cx="96.54" cy="89.81" r="3" fill="#16a34a"/>
<circle cx="96.94" cy="91.07" r="3" fill="#16a34a"/>
<circle cx="113.14" cy="92.26" r="3" fill="#16a34a"/>
<circle cx="113.94" cy="93.14" r="3" fill="#16a34a"/>
<circle cx="130.94" cy="95.06" r="3" fill="#16a34a"/>
<circle cx="146.35" cy="100.30" r="3" fill="#16a34a"/>
<circle cx="147.94" cy="97.90" r="3" fill="#16a34a"/>
<circle cx="164.94" cy="104.92" r="3" fill="#16a34a"/>
<circle cx="181.94" cy="114.01" r="3" fill="#16a34a"/>
<circle cx="198.95" cy="122.74" r="3" fill="#16a34a"/>
<circle cx="215.95" cy="132.41" r="3" fill="#16a34a"/>
<circle cx="232.95" cy="149.74" r="3" fill="#16a34a"/>
<circle cx="249.95" cy="161.39" r="3" fill="#16a34a"/>
<circle cx="266.95" cy="172.35" r="3" fill="#16a34a"/>
<circle cx="283.95" cy="185.53" r="3" fill="#16a34a"/>
<circle cx="300.96" cy="203.67" r="3" fill="#16a34a"/>
<circle cx="317.96" cy="221.49" r="3" fill="#16a34a"/>
<circle cx="334.96" cy="237.75" r="3" fill="#16a34a"/>
<circle cx="351.96" cy="251.73" r="3" fill="#16a34a"/>
<circle cx="368.96" cy="274.11" r="3" fill="#16a34a"/>
<circle cx="385.96" cy="281.84" r="3" fill="#16a34a"/>
<circle cx="402.97" cy="282.43" r="3" fill="#16a34a"/>
<circle cx="419.97" cy="295.06" r="3" fill="#16a34a"/>
<circle cx="436.97" cy="302.11" r="3" fill="#16a34a"/>
<circle cx="453.97" cy="304.10" r="3" fill="#16a34a"/>
<circle cx="470.97" cy="303.12" r="3" fill="#16a34a"/>
<circle cx="487.97" cy="309.77" r="3" fill="#16a34a"/>
<circle cx="504.98" cy="303.26" r="3" fill="#16a34a"/>
<circle cx="521.98" cy="313.68" r="3" fill="#16a34a"/>
<circle cx="538.98" cy="305.05" r="3" fill="#16a34a"/>
<circle cx="555.98" cy="312.70" r="3" fill="#16a34a"/>
<circle cx="572.98" cy="314.48" r="3" fill="#16a34a"/>
<circle cx="589.98" cy="320.08" r="3" fill="#16a34a"/>
<circle cx="606.99" cy="320.41" r="3" fill="#16a34a"/>
<circle cx="623.99" cy="316.89" r="3" fill="#16a34a"/>
<circle cx="640.99" cy="314.31" r="3" fill="#16a34a"/>
<circle cx="657.99" cy="302.00" r="3" fill="#16a34a"/>
<circle cx="674.99" cy="317.28" r="3" fill="#16a34a"/>
<circle cx="691.99" cy="312.31" r="3" fill="#16a34a"/>
<circle cx="709.00" cy="321.32" r="3" fill="#16a34a"/>
<circle cx="726.00" cy="308.52" r="3" fill="#16a34a"/>
<circle cx="743.00" cy="322.41" r="3" fill="#16a34a"/>
<circle cx="760.00" cy="317.17" r="3" fill="#16a34a"/>
<circle cx="760.00" cy="308.53" r="3" fill="#16a34a"/>
<rect x="795" y="109" width="12" height="12" fill="#16a34a"/>
<text x="815" y="119" font-size="12" font-weight="400" text-anchor="start" fill="#111827">text layer0</text>
<polyline points="80.00,101.01 80.27,102.35 80.60,100.84 81.59,100.79 83.25,102.30 86.57,106.48 96.54,114.09 96.94,113.85 113.14,115.67 113.94,116.43 130.94,117.59 146.35,122.15 147.94,121.01 164.94,125.13 181.94,132.99 198.95,138.51 215.95,148.96 232.95,156.91 249.95,166.02 266.95,179.43 283.95,189.01 300.96,199.70 317.96,213.97 334.96,223.89 351.96,234.52 368.96,243.19 385.96,251.32 402.97,259.37 419.97,269.53 436.97,268.67 453.97,268.63 470.97,276.04 487.97,273.38 504.98,273.57 521.98,282.16 538.98,279.68 555.98,282.45 572.98,283.18 589.98,283.67 606.99,277.49 623.99,285.14 640.99,286.58 657.99,278.00 674.99,288.50 691.99,281.70 709.00,280.09 726.00,276.70 743.00,291.42 760.00,283.58 760.00,282.38" fill="none" stroke="#9333ea" stroke-width="2.5"/>
<circle cx="80.00" cy="101.01" r="3" fill="#9333ea"/>
<circle cx="80.27" cy="102.35" r="3" fill="#9333ea"/>
<circle cx="80.60" cy="100.84" r="3" fill="#9333ea"/>
<circle cx="81.59" cy="100.79" r="3" fill="#9333ea"/>
<circle cx="83.25" cy="102.30" r="3" fill="#9333ea"/>
<circle cx="86.57" cy="106.48" r="3" fill="#9333ea"/>
<circle cx="96.54" cy="114.09" r="3" fill="#9333ea"/>
<circle cx="96.94" cy="113.85" r="3" fill="#9333ea"/>
<circle cx="113.14" cy="115.67" r="3" fill="#9333ea"/>
<circle cx="113.94" cy="116.43" r="3" fill="#9333ea"/>
<circle cx="130.94" cy="117.59" r="3" fill="#9333ea"/>
<circle cx="146.35" cy="122.15" r="3" fill="#9333ea"/>
<circle cx="147.94" cy="121.01" r="3" fill="#9333ea"/>
<circle cx="164.94" cy="125.13" r="3" fill="#9333ea"/>
<circle cx="181.94" cy="132.99" r="3" fill="#9333ea"/>
<circle cx="198.95" cy="138.51" r="3" fill="#9333ea"/>
<circle cx="215.95" cy="148.96" r="3" fill="#9333ea"/>
<circle cx="232.95" cy="156.91" r="3" fill="#9333ea"/>
<circle cx="249.95" cy="166.02" r="3" fill="#9333ea"/>
<circle cx="266.95" cy="179.43" r="3" fill="#9333ea"/>
<circle cx="283.95" cy="189.01" r="3" fill="#9333ea"/>
<circle cx="300.96" cy="199.70" r="3" fill="#9333ea"/>
<circle cx="317.96" cy="213.97" r="3" fill="#9333ea"/>
<circle cx="334.96" cy="223.89" r="3" fill="#9333ea"/>
<circle cx="351.96" cy="234.52" r="3" fill="#9333ea"/>
<circle cx="368.96" cy="243.19" r="3" fill="#9333ea"/>
<circle cx="385.96" cy="251.32" r="3" fill="#9333ea"/>
<circle cx="402.97" cy="259.37" r="3" fill="#9333ea"/>
<circle cx="419.97" cy="269.53" r="3" fill="#9333ea"/>
<circle cx="436.97" cy="268.67" r="3" fill="#9333ea"/>
<circle cx="453.97" cy="268.63" r="3" fill="#9333ea"/>
<circle cx="470.97" cy="276.04" r="3" fill="#9333ea"/>
<circle cx="487.97" cy="273.38" r="3" fill="#9333ea"/>
<circle cx="504.98" cy="273.57" r="3" fill="#9333ea"/>
<circle cx="521.98" cy="282.16" r="3" fill="#9333ea"/>
<circle cx="538.98" cy="279.68" r="3" fill="#9333ea"/>
<circle cx="555.98" cy="282.45" r="3" fill="#9333ea"/>
<circle cx="572.98" cy="283.18" r="3" fill="#9333ea"/>
<circle cx="589.98" cy="283.67" r="3" fill="#9333ea"/>
<circle cx="606.99" cy="277.49" r="3" fill="#9333ea"/>
<circle cx="623.99" cy="285.14" r="3" fill="#9333ea"/>
<circle cx="640.99" cy="286.58" r="3" fill="#9333ea"/>
<circle cx="657.99" cy="278.00" r="3" fill="#9333ea"/>
<circle cx="674.99" cy="288.50" r="3" fill="#9333ea"/>
<circle cx="691.99" cy="281.70" r="3" fill="#9333ea"/>
<circle cx="709.00" cy="280.09" r="3" fill="#9333ea"/>
<circle cx="726.00" cy="276.70" r="3" fill="#9333ea"/>
<circle cx="743.00" cy="291.42" r="3" fill="#9333ea"/>
<circle cx="760.00" cy="283.58" r="3" fill="#9333ea"/>
<circle cx="760.00" cy="282.38" r="3" fill="#9333ea"/>
<rect x="795" y="131" width="12" height="12" fill="#9333ea"/>
<text x="815" y="141" font-size="12" font-weight="400" text-anchor="start" fill="#111827">text layer1</text>
<polyline points="80.00,72.72 80.27,73.81 80.60,73.63 81.59,74.55 83.25,76.75 86.57,80.19 96.54,103.52 96.94,109.16 113.14,153.76 113.94,148.55 130.94,163.06 146.35,173.95 147.94,188.90 164.94,194.99 181.94,234.14 198.95,229.47 215.95,266.89 232.95,265.73 249.95,310.95 266.95,314.37 283.95,330.50 300.96,333.67 317.96,359.28 334.96,387.03 351.96,374.82 368.96,355.78 385.96,384.09 402.97,403.66 419.97,396.46 436.97,432.20 453.97,406.27 470.97,429.41 487.97,411.85 504.98,414.20 521.98,435.54 538.98,431.47 555.98,433.98 572.98,414.60 589.98,391.02 606.99,426.02 623.99,394.54 640.99,421.41 657.99,406.80 674.99,417.50 691.99,408.17 709.00,385.76 726.00,407.50 743.00,402.17 760.00,419.87 760.00,416.42" fill="none" stroke="#ea580c" stroke-width="2.5"/>
<circle cx="80.00" cy="72.72" r="3" fill="#ea580c"/>
<circle cx="80.27" cy="73.81" r="3" fill="#ea580c"/>
<circle cx="80.60" cy="73.63" r="3" fill="#ea580c"/>
<circle cx="81.59" cy="74.55" r="3" fill="#ea580c"/>
<circle cx="83.25" cy="76.75" r="3" fill="#ea580c"/>
<circle cx="86.57" cy="80.19" r="3" fill="#ea580c"/>
<circle cx="96.54" cy="103.52" r="3" fill="#ea580c"/>
<circle cx="96.94" cy="109.16" r="3" fill="#ea580c"/>
<circle cx="113.14" cy="153.76" r="3" fill="#ea580c"/>
<circle cx="113.94" cy="148.55" r="3" fill="#ea580c"/>
<circle cx="130.94" cy="163.06" r="3" fill="#ea580c"/>
<circle cx="146.35" cy="173.95" r="3" fill="#ea580c"/>
<circle cx="147.94" cy="188.90" r="3" fill="#ea580c"/>
<circle cx="164.94" cy="194.99" r="3" fill="#ea580c"/>
<circle cx="181.94" cy="234.14" r="3" fill="#ea580c"/>
<circle cx="198.95" cy="229.47" r="3" fill="#ea580c"/>
<circle cx="215.95" cy="266.89" r="3" fill="#ea580c"/>
<circle cx="232.95" cy="265.73" r="3" fill="#ea580c"/>
<circle cx="249.95" cy="310.95" r="3" fill="#ea580c"/>
<circle cx="266.95" cy="314.37" r="3" fill="#ea580c"/>
<circle cx="283.95" cy="330.50" r="3" fill="#ea580c"/>
<circle cx="300.96" cy="333.67" r="3" fill="#ea580c"/>
<circle cx="317.96" cy="359.28" r="3" fill="#ea580c"/>
<circle cx="334.96" cy="387.03" r="3" fill="#ea580c"/>
<circle cx="351.96" cy="374.82" r="3" fill="#ea580c"/>
<circle cx="368.96" cy="355.78" r="3" fill="#ea580c"/>
<circle cx="385.96" cy="384.09" r="3" fill="#ea580c"/>
<circle cx="402.97" cy="403.66" r="3" fill="#ea580c"/>
<circle cx="419.97" cy="396.46" r="3" fill="#ea580c"/>
<circle cx="436.97" cy="432.20" r="3" fill="#ea580c"/>
<circle cx="453.97" cy="406.27" r="3" fill="#ea580c"/>
<circle cx="470.97" cy="429.41" r="3" fill="#ea580c"/>
<circle cx="487.97" cy="411.85" r="3" fill="#ea580c"/>
<circle cx="504.98" cy="414.20" r="3" fill="#ea580c"/>
<circle cx="521.98" cy="435.54" r="3" fill="#ea580c"/>
<circle cx="538.98" cy="431.47" r="3" fill="#ea580c"/>
<circle cx="555.98" cy="433.98" r="3" fill="#ea580c"/>
<circle cx="572.98" cy="414.60" r="3" fill="#ea580c"/>
<circle cx="589.98" cy="391.02" r="3" fill="#ea580c"/>
<circle cx="606.99" cy="426.02" r="3" fill="#ea580c"/>
<circle cx="623.99" cy="394.54" r="3" fill="#ea580c"/>
<circle cx="640.99" cy="421.41" r="3" fill="#ea580c"/>
<circle cx="657.99" cy="406.80" r="3" fill="#ea580c"/>
<circle cx="674.99" cy="417.50" r="3" fill="#ea580c"/>
<circle cx="691.99" cy="408.17" r="3" fill="#ea580c"/>
<circle cx="709.00" cy="385.76" r="3" fill="#ea580c"/>
<circle cx="726.00" cy="407.50" r="3" fill="#ea580c"/>
<circle cx="743.00" cy="402.17" r="3" fill="#ea580c"/>
<circle cx="760.00" cy="419.87" r="3" fill="#ea580c"/>
<circle cx="760.00" cy="416.42" r="3" fill="#ea580c"/>
<rect x="795" y="153" width="12" height="12" fill="#ea580c"/>
<text x="815" y="163" font-size="12" font-weight="400" text-anchor="start" fill="#111827">vision layer0</text>
<polyline points="80.00,84.96 80.27,86.10 80.60,86.49 81.59,87.17 83.25,89.87 86.57,94.15 96.54,106.47 96.94,107.06 113.14,128.84 113.94,133.42 130.94,149.36 146.35,169.82 147.94,172.07 164.94,193.48 181.94,216.54 198.95,226.22 215.95,237.09 232.95,236.85 249.95,247.14 266.95,269.36 283.95,274.96 300.96,287.54 317.96,278.67 334.96,296.45 351.96,294.23 368.96,280.60 385.96,297.84 402.97,290.74 419.97,316.35 436.97,294.17 453.97,299.49 470.97,300.58 487.97,294.59 504.98,298.93 521.98,295.54 538.98,311.25 555.98,302.59 572.98,291.99 589.98,293.26 606.99,296.00 623.99,297.40 640.99,305.14 657.99,297.95 674.99,292.61 691.99,315.20 709.00,291.14 726.00,296.07 743.00,279.83 760.00,310.83 760.00,297.44" fill="none" stroke="#0891b2" stroke-width="2.5"/>
<circle cx="80.00" cy="84.96" r="3" fill="#0891b2"/>
<circle cx="80.27" cy="86.10" r="3" fill="#0891b2"/>
<circle cx="80.60" cy="86.49" r="3" fill="#0891b2"/>
<circle cx="81.59" cy="87.17" r="3" fill="#0891b2"/>
<circle cx="83.25" cy="89.87" r="3" fill="#0891b2"/>
<circle cx="86.57" cy="94.15" r="3" fill="#0891b2"/>
<circle cx="96.54" cy="106.47" r="3" fill="#0891b2"/>
<circle cx="96.94" cy="107.06" r="3" fill="#0891b2"/>
<circle cx="113.14" cy="128.84" r="3" fill="#0891b2"/>
<circle cx="113.94" cy="133.42" r="3" fill="#0891b2"/>
<circle cx="130.94" cy="149.36" r="3" fill="#0891b2"/>
<circle cx="146.35" cy="169.82" r="3" fill="#0891b2"/>
<circle cx="147.94" cy="172.07" r="3" fill="#0891b2"/>
<circle cx="164.94" cy="193.48" r="3" fill="#0891b2"/>
<circle cx="181.94" cy="216.54" r="3" fill="#0891b2"/>
<circle cx="198.95" cy="226.22" r="3" fill="#0891b2"/>
<circle cx="215.95" cy="237.09" r="3" fill="#0891b2"/>
<circle cx="232.95" cy="236.85" r="3" fill="#0891b2"/>
<circle cx="249.95" cy="247.14" r="3" fill="#0891b2"/>
<circle cx="266.95" cy="269.36" r="3" fill="#0891b2"/>
<circle cx="283.95" cy="274.96" r="3" fill="#0891b2"/>
<circle cx="300.96" cy="287.54" r="3" fill="#0891b2"/>
<circle cx="317.96" cy="278.67" r="3" fill="#0891b2"/>
<circle cx="334.96" cy="296.45" r="3" fill="#0891b2"/>
<circle cx="351.96" cy="294.23" r="3" fill="#0891b2"/>
<circle cx="368.96" cy="280.60" r="3" fill="#0891b2"/>
<circle cx="385.96" cy="297.84" r="3" fill="#0891b2"/>
<circle cx="402.97" cy="290.74" r="3" fill="#0891b2"/>
<circle cx="419.97" cy="316.35" r="3" fill="#0891b2"/>
<circle cx="436.97" cy="294.17" r="3" fill="#0891b2"/>
<circle cx="453.97" cy="299.49" r="3" fill="#0891b2"/>
<circle cx="470.97" cy="300.58" r="3" fill="#0891b2"/>
<circle cx="487.97" cy="294.59" r="3" fill="#0891b2"/>
<circle cx="504.98" cy="298.93" r="3" fill="#0891b2"/>
<circle cx="521.98" cy="295.54" r="3" fill="#0891b2"/>
<circle cx="538.98" cy="311.25" r="3" fill="#0891b2"/>
<circle cx="555.98" cy="302.59" r="3" fill="#0891b2"/>
<circle cx="572.98" cy="291.99" r="3" fill="#0891b2"/>
<circle cx="589.98" cy="293.26" r="3" fill="#0891b2"/>
<circle cx="606.99" cy="296.00" r="3" fill="#0891b2"/>
<circle cx="623.99" cy="297.40" r="3" fill="#0891b2"/>
<circle cx="640.99" cy="305.14" r="3" fill="#0891b2"/>
<circle cx="657.99" cy="297.95" r="3" fill="#0891b2"/>
<circle cx="674.99" cy="292.61" r="3" fill="#0891b2"/>
<circle cx="691.99" cy="315.20" r="3" fill="#0891b2"/>
<circle cx="709.00" cy="291.14" r="3" fill="#0891b2"/>
<circle cx="726.00" cy="296.07" r="3" fill="#0891b2"/>
<circle cx="743.00" cy="279.83" r="3" fill="#0891b2"/>
<circle cx="760.00" cy="310.83" r="3" fill="#0891b2"/>
<circle cx="760.00" cy="297.44" r="3" fill="#0891b2"/>
<rect x="795" y="175" width="12" height="12" fill="#0891b2"/>
<text x="815" y="185" font-size="12" font-weight="400" text-anchor="start" fill="#111827">vision layer1</text>
</svg>
