<svg xmlns="http://www.w3.org/2000/svg" width="980" height="560" viewBox="0 0 980 560" font-family="Arial, sans-serif">
<rect width="100%" height="100%" fill="#ffffff"/>
<text x="80" y="35" font-size="20" font-weight="700" text-anchor="start" fill="#111827">ortho_fusion Self-Attention Self Position Attention Over Training</text>
<text x="20" y="275.0" font-size="13" font-weight="400" text-anchor="middle" fill="#111827">attention weight</text>
<line x1="80" y1="70" x2="80" y2="480" stroke="#9ca3af"/>
<line x1="80" y1="480" x2="760" y2="480" stroke="#9ca3af"/>
<line x1="80" y1="480.0" x2="760" y2="480.0" stroke="#e5e7eb"/>
<text x="72" y="484.0" font-size="11" font-weight="400" text-anchor="end" fill="#4b5563">0.018</text>
<line x1="80" y1="377.4999999999998" x2="760" y2="377.4999999999998" stroke="#e5e7eb"/>
<text x="72" y="381.4999999999998" font-size="11" font-weight="400" text-anchor="end" fill="#4b5563">0.018</text>
<line x1="80" y1="275.0" x2="760" y2="275.0" stroke="#e5e7eb"/>
<text x="72" y="279.0" font-size="11" font-weight="400" text-anchor="end" fill="#4b5563">0.019</text>
<line x1="80" y1="172.50000000000023" x2="760" y2="172.50000000000023" stroke="#e5e7eb"/>
<text x="72" y="176.50000000000023" font-size="11" font-weight="400" text-anchor="end" fill="#4b5563">0.020</text>
<line x1="80" y1="70.00000000000006" x2="760" y2="70.00000000000006" stroke="#e5e7eb"/>
<text x="72" y="74.00000000000006" font-size="11" font-weight="400" text-anchor="end" fill="#4b5563">0.020</text>
<text x="80.0" y="504" font-size="11" font-weight="400" text-anchor="middle" fill="#4b5563">1</text>
<text x="250.0" y="504" font-size="11" font-weight="400" text-anchor="middle" fill="#4b5563">2561</text>
<text x="420.0" y="504" font-size="11" font-weight="400" text-anchor="middle" fill="#4b5563">5120</text>
<text x="590.0" y="504" font-size="11" font-weight="400" text-anchor="middle" fill="#4b5563">7680</text>
<text x="760.0" y="504" font-size="11" font-weight="400" text-anchor="middle" fill="#4b5563">10240</text>
<polyline points="80.00,278.57 80.27,279.76 80.60,290.25 81.59,282.93 83.25,279.92 86.57,257.54 96.54,262.29 96.94,267.84 113.14,251.07 113.94,269.23 130.94,266.46 146.35,272.32 147.94,269.91 164.94,273.55 181.94,278.25 198.95,281.25 215.95,287.37 232.95,299.18 249.95,287.11 266.95,307.14 283.95,303.96 300.96,318.82 317.96,319.15 334.96,314.95 351.96,322.75 368.96,317.65 385.96,312.79 402.97,320.85 419.97,330.34 436.97,325.54 453.97,314.96 470.97,331.53 487.97,325.57 504.98,315.30 521.98,325.47 538.98,316.51 555.98,325.50 572.98,321.65 589.98,311.33 606.99,328.05 623.99,335.05 640.99,329.09 657.99,324.97 674.99,319.29 691.99,321.24 709.00,322.93 726.00,319.60 743.00,317.80 760.00,324.53 760.00,323.74" fill="none" stroke="#2563eb" stroke-width="2.5"/>
<circle cx="80.00" cy="278.57" r="3" fill="#2563eb"/>
<circle cx="80.27" cy="279.76" r="3" fill="#2563eb"/>
<circle cx="80.60" cy="290.25" r="3" fill="#2563eb"/>
<circle cx="81.59" cy="282.93" r="3" fill="#2563eb"/>
<circle cx="83.25" cy="279.92" r="3" fill="#2563eb"/>
<circle cx="86.57" cy="257.54" r="3" fill="#2563eb"/>
<circle cx="96.54" cy="262.29" r="3" fill="#2563eb"/>
<circle cx="96.94" cy="267.84" r="3" fill="#2563eb"/>
<circle cx="113.14" cy="251.07" r="3" fill="#2563eb"/>
<circle cx="113.94" cy="269.23" r="3" fill="#2563eb"/>
<circle cx="130.94" cy="266.46" r="3" fill="#2563eb"/>
<circle cx="146.35" cy="272.32" r="3" fill="#2563eb"/>
<circle cx="147.94" cy="269.91" r="3" fill="#2563eb"/>
<circle cx="164.94" cy="273.55" r="3" fill="#2563eb"/>
<circle cx="181.94" cy="278.25" r="3" fill="#2563eb"/>
<circle cx="198.95" cy="281.25" r="3" fill="#2563eb"/>
<circle cx="215.95" cy="287.37" r="3" fill="#2563eb"/>
<circle cx="232.95" cy="299.18" r="3" fill="#2563eb"/>
<circle cx="249.95" cy="287.11" r="3" fill="#2563eb"/>
<circle cx="266.95" cy="307.14" r="3" fill="#2563eb"/>
<circle cx="283.95" cy="303.96" r="3" fill="#2563eb"/>
<circle cx="300.96" cy="318.82" r="3" fill="#2563eb"/>
<circle cx="317.96" cy="319.15" r="3" fill="#2563eb"/>
<circle cx="334.96" cy="314.95" r="3" fill="#2563eb"/>
<circle cx="351.96" cy="322.75" r="3" fill="#2563eb"/>
<circle cx="368.96" cy="317.65" r="3" fill="#2563eb"/>
<circle cx="385.96" cy="312.79" r="3" fill="#2563eb"/>
<circle cx="402.97" cy="320.85" r="3" fill="#2563eb"/>
<circle cx="419.97" cy="330.34" r="3" fill="#2563eb"/>
<circle cx="436.97" cy="325.54" r="3" fill="#2563eb"/>
<circle cx="453.97" cy="314.96" r="3" fill="#2563eb"/>
<circle cx="470.97" cy="331.53" r="3" fill="#2563eb"/>
<circle cx="487.97" cy="325.57" r="3" fill="#2563eb"/>
<circle cx="504.98" cy="315.30" r="3" fill="#2563eb"/>
<circle cx="521.98" cy="325.47" r="3" fill="#2563eb"/>
<circle cx="538.98" cy="316.51" r="3" fill="#2563eb"/>
<circle cx="555.98" cy="325.50" r="3" fill="#2563eb"/>
<circle cx="572.98" cy="321.65" r="3" fill="#2563eb"/>
<circle cx="589.98" cy="311.33" r="3" fill="#2563eb"/>
<circle cx="606.99" cy="328.05" r="3" fill="#2563eb"/>
<circle cx="623.99" cy="335.05" r="3" fill="#2563eb"/>
<circle cx="640.99" cy="329.09" r="3" fill="#2563eb"/>
<circle cx="657.99" cy="324.97" r="3" fill="#2563eb"/>
<circle cx="674.99" cy="319.29" r="3" fill="#2563eb"/>
<circle cx="691.99" cy="321.24" r="3" fill="#2563eb"/>
<circle cx="709.00" cy="322.93" r="3" fill="#2563eb"/>
<circle cx="726.00" cy="319.60" r="3" fill="#2563eb"/>
<circle cx="743.00" cy="317.80" r="3" fill="#2563eb"/>
<circle cx="760.00" cy="324.53" r="3" fill="#2563eb"/>
<circle cx="760.00" cy="323.74" r="3" fill="#2563eb"/>
<rect x="795" y="65" width="12" height="12" fill="#2563eb"/>
<text x="815" y="75" font-size="12" font-weight="400" text-anchor="start" fill="#111827">audio layer0</text>
<polyline points="80.00,329.72 80.27,332.55 80.60,339.31 81.59,333.52 83.25,341.50 86.57,309.73 96.54,269.23 96.94,271.55 113.14,256.04 113.94,258.41 130.94,260.53 146.35,262.95 147.94,260.57 164.94,265.05 181.94,268.75 198.95,272.72 215.95,274.67 232.95,279.26 249.95,275.91 266.95,287.58 283.95,288.25 300.96,303.05 317.96,299.78 334.96,308.37 351.96,307.04 368.96,308.97 385.96,300.41 402.97,312.95 419.97,319.46 436.97,318.07 453.97,304.92 470.97,317.09 487.97,313.15 504.98,309.86 521.98,315.57 538.98,316.34 555.98,312.47 572.98,308.30 589.98,307.95 606.99,312.50 623.99,317.45 640.99,320.66 657.99,316.65 674.99,312.34 691.99,312.77 709.00,312.83 726.00,306.15 743.00,309.09 760.00,313.35 760.00,307.06" fill="none" stroke="#dc2626" stroke-width="2.5"/>
<circle cx="80.00" cy="329.72" r="3" fill="#dc2626"/>
<circle cx="80.27" cy="332.55" r="3" fill="#dc2626"/>
<circle cx="80.60" cy="339.31" r="3" fill="#dc2626"/>
<circle cx="81.59" cy="333.52" r="3" fill="#dc2626"/>
<circle cx="83.25" cy="341.50" r="3" fill="#dc2626"/>
<circle cx="86.57" cy="309.73" r="3" fill="#dc2626"/>
<circle cx="96.54" cy="269.23" r="3" fill="#dc2626"/>
<circle cx="96.94" cy="271.55" r="3" fill="#dc2626"/>
<circle cx="113.14" cy="256.04" r="3" fill="#dc2626"/>
<circle cx="113.94" cy="258.41" r="3" fill="#dc2626"/>
<circle cx="130.94" cy="260.53" r="3" fill="#dc2626"/>
<circle cx="146.35" cy="262.95" r="3" fill="#dc2626"/>
<circle cx="147.94" cy="260.57" r="3" fill="#dc2626"/>
<circle cx="164.94" cy="265.05" r="3" fill="#dc2626"/>
<circle cx="181.94" cy="268.75" r="3" fill="#dc2626"/>
<circle cx="198.95" cy="272.72" r="3" fill="#dc2626"/>
<circle cx="215.95" cy="274.67" r="3" fill="#dc2626"/>
<circle cx="232.95" cy="279.26" r="3" fill="#dc2626"/>
<circle cx="249.95" cy="275.91" r="3" fill="#dc2626"/>
<circle cx="266.95" cy="287.58" r="3" fill="#dc2626"/>
<circle cx="283.95" cy="288.25" r="3" fill="#dc2626"/>
<circle cx="300.96" cy="303.05" r="3" fill="#dc2626"/>
<circle cx="317.96" cy="299.78" r="3" fill="#dc2626"/>
<circle cx="334.96" cy="308.37" r="3" fill="#dc2626"/>
<circle cx="351.96" cy="307.04" r="3" fill="#dc2626"/>
<circle cx="368.96" cy="308.97" r="3" fill="#dc2626"/>
<circle cx="385.96" cy="300.41" r="3" fill="#dc2626"/>
<circle cx="402.97" cy="312.95" r="3" fill="#dc2626"/>
<circle cx="419.97" cy="319.46" r="3" fill="#dc2626"/>
<circle cx="436.97" cy="318.07" r="3" fill="#dc2626"/>
<circle cx="453.97" cy="304.92" r="3" fill="#dc2626"/>
<circle cx="470.97" cy="317.09" r="3" fill="#dc2626"/>
<circle cx="487.97" cy="313.15" r="3" fill="#dc2626"/>
<circle cx="504.98" cy="309.86" r="3" fill="#dc2626"/>
<circle cx="521.98" cy="315.57" r="3" fill="#dc2626"/>
<circle cx="538.98" cy="316.34" r="3" fill="#dc2626"/>
<circle cx="555.98" cy="312.47" r="3" fill="#dc2626"/>
<circle cx="572.98" cy="308.30" r="3" fill="#dc2626"/>
<circle cx="589.98" cy="307.95" r="3" fill="#dc2626"/>
<circle cx="606.99" cy="312.50" r="3" fill="#dc2626"/>
<circle cx="623.99" cy="317.45" r="3" fill="#dc2626"/>
<circle cx="640.99" cy="320.66" r="3" fill="#dc2626"/>
<circle cx="657.99" cy="316.65" r="3" fill="#dc2626"/>
<circle cx="674.99" cy="312.34" r="3" fill="#dc2626"/>
<circle cx="691.99" cy="312.77" r="3" fill="#dc2626"/>
<circle cx="709.00" cy="312.83" r="3" fill="#dc2626"/>
<circle cx="726.00" cy="306.15" r="3" fill="#dc2626"/>
<circle cx="743.00" cy="309.09" r="3" fill="#dc2626"/>
<circle cx="760.00" cy="313.35" r="3" fill="#dc2626"/>
<circle cx="760.00" cy="307.06" r="3" fill="#dc2626"/>
<rect x="795" y="87" width="12" height="12" fill="#dc2626"/>
<text x="815" y="97" font-size="12" font-weight="400" text-anchor="start" fill="#111827">audio layer1</text>
<polyline points="80.00,105.66 80.27,102.58 80.60,99.48 81.59,86.88 83.25,83.18 86.57,70.00 96.54,84.56 96.94,86.67 113.14,86.23 113.94,88.87 130.94,90.69 146.35,99.89 147.94,101.12 164.94,105.22 181.94,110.18 198.95,119.56 215.95,130.12 232.95,132.64 249.95,138.54 266.95,149.43 283.95,148.67 300.96,149.61 317.96,137.40 334.96,151.56 351.96,147.51 368.96,152.12 385.96,154.80 402.97,146.51 419.97,161.70 436.97,145.09 453.97,156.49 470.97,142.41 487.97,150.98 504.98,154.81 521.98,153.99 538.98,153.13 555.98,151.68 572.98,140.88 589.98,160.56 606.99,144.38 623.99,149.65 640.99,157.54 657.99,151.74 674.99,150.35 691.99,148.09 709.00,142.78 726.00,160.94 743.00,155.28 760.00,159.46 760.00,152.43" fill="none" stroke="#16a34a" stroke-width="2.5"/>
<circle cx="80.00" cy="105.66" r="3" fill="#16a34a"/>
<circle cx="80.27" cy="102.58" r="3" fill="#16a34a"/>
<circle cx="80.60" cy="99.48" r="3" fill="#16a34a"/>
<circle cx="81.59" cy="86.88" r="3" fill="#16a34a"/>
<circle cx="83.25" cy="83.18" r="3" fill="#16a34a"/>
<circle cx="86.57" cy="70.00" r="3" fill="#16a34a"/>
<circle cx="96.54" cy="84.56" r="3" fill="#16a34a"/>
<circle cx="96.94" cy="86.67" r="3" fill="#16a34a"/>
<circle cx="113.14" cy="86.23" r="3" fill="#16a34a"/>
<circle cx="113.94" cy="88.87" r="3" fill="#16a34a"/>
<circle cx="130.94" cy="90.69" r="3" fill="#16a34a"/>
<circle cx="146.35" cy="99.89" r="3" fill="#16a34a"/>
<circle cx="147.94" cy="101.12" r="3" fill="#16a34a"/>
<circle cx="164.94" cy="105.22" r="3" fill="#16a34a"/>
<circle cx="181.94" cy="110.18" r="3" fill="#16a34a"/>
<circle cx="198.95" cy="119.56" r="3" fill="#16a34a"/>
<circle cx="215.95" cy="130.12" r="3" fill="#16a34a"/>
<circle cx="232.95" cy="132.64" r="3" fill="#16a34a"/>
<circle cx="249.95" cy="138.54" r="3" fill="#16a34a"/>
<circle cx="266.95" cy="149.43" r="3" fill="#16a34a"/>
<circle cx="283.95" cy="148.67" r="3" fill="#16a34a"/>
<circle cx="300.96" cy="149.61" r="3" fill="#16a34a"/>
<circle cx="317.96" cy="137.40" r="3" fill="#16a34a"/>
<circle cx="334.96" cy="151.56" r="3" fill="#16a34a"/>
<circle cx="351.96" cy="147.51" r="3" fill="#16a34a"/>
<circle cx="368.96" cy="152.12" r="3" fill="#16a34a"/>
<circle cx="385.96" cy="154.80" r="3" fill="#16a34a"/>
<circle cx="402.97" cy="146.51" r="3" fill="#16a34a"/>
<circle cx="419.97" cy="161.70" r="3" fill="#16a34a"/>
<circle cx="436.97" cy="145.09" r="3" fill="#16a34a"/>
<circle cx="453.97" cy="156.49" r="3" fill="#16a34a"/>
<circle cx="470.97" cy="142.41" r="3" fill="#16a34a"/>
<circle cx="487.97" cy="150.98" r="3" fill="#16a34a"/>
<circle cx="504.98" cy="154.81" r="3" fill="#16a34a"/>
<circle cx="521.98" cy="153.99" r="3" fill="#16a34a"/>
<circle cx="538.98" cy="153.13" r="3" fill="#16a34a"/>
<circle cx="555.98" cy="151.68" r="3" fill="#16a34a"/>
<circle cx="572.98" cy="140.88" r="3" fill="#16a34a"/>
<circle cx="589.98" cy="160.56" r="3" fill="#16a34a"/>
<circle cx="606.99" cy="144.38" r="3" fill="#16a34a"/>
<circle cx="623.99" cy="149.65" r="3" fill="#16a34a"/>
<circle cx="640.99" cy="157.54" r="3" fill="#16a34a"/>
<circle cx="657.99" cy="151.74" r="3" fill="#16a34a"/>
<circle cx="674.99" cy="150.35" r="3" fill="#16a34a"/>
<circle cx="691.99" cy="148.09" r="3" fill="#16a34a"/>
<circle cx="709.00" cy="142.78" r="3" fill="#16a34a"/>
<circle cx="726.00" cy="160.94" r="3" fill="#16a34a"/>
<circle cx="743.00" cy="155.28" r="3" fill="#16a34a"/>
<circle cx="760.00" cy="159.46" r="3" fill="#16a34a"/>
<circle cx="760.00" cy="152.43" r="3" fill="#16a34a"/>
<rect x="795" y="109" width="12" height="12" fill="#16a34a"/>
<text x="815" y="119" font-size="12" font-weight="400" text-anchor="start" fill="#111827">text layer0</text>
<polyline points="80.00,147.81 80.27,140.77 80.60,131.61 81.59,114.36 83.25,106.57 86.57,97.15 96.54,106.12 96.94,110.77 113.14,99.03 113.94,100.75 130.94,101.71 146.35,108.95 147.94,109.64 164.94,111.59 181.94,117.61 198.95,120.86 215.95,127.61 232.95,133.70 249.95,136.05 266.95,143.14 283.95,138.73 300.96,146.82 317.96,131.92 334.96,139.66 351.96,139.42 368.96,144.66 385.96,148.71 402.97,146.16 419.97,152.81 436.97,142.69 453.97,148.30 470.97,138.79 487.97,146.23 504.98,145.22 521.98,147.90 538.98,148.89 555.98,152.27 572.98,140.64 589.98,148.38 606.99,138.37 623.99,143.32 640.99,147.59 657.99,140.93 674.99,142.85 691.99,142.00 709.00,144.57 726.00,149.87 743.00,150.39 760.00,153.45 760.00,146.92" fill="none" stroke="#9333ea" stroke-width="2.5"/>
<circle cx="80.00" cy="147.81" r="3" fill="#9333ea"/>
<circle cx="80.27" cy="140.77" r="3" fill="#9333ea"/>
<circle cx="80.60" cy="131.61" r="3" fill="#9333ea"/>
<circle cx="81.59" cy="114.36" r="3" fill="#9333ea"/>
<circle cx="83.25" cy="106.57" r="3" fill="#9333ea"/>
<circle cx="86.57" cy="97.15" r="3" fill="#9333ea"/>
<circle cx="96.54" cy="106.12" r="3" fill="#9333ea"/>
<circle cx="96.94" cy="110.77" r="3" fill="#9333ea"/>
<circle cx="113.14" cy="99.03" r="3" fill="#9333ea"/>
<circle cx="113.94" cy="100.75" r="3" fill="#9333ea"/>
<circle cx="130.94" cy="101.71" r="3" fill="#9333ea"/>
<circle cx="146.35" cy="108.95" r="3" fill="#9333ea"/>
<circle cx="147.94" cy="109.64" r="3" fill="#9333ea"/>
<circle cx="164.94" cy="111.59" r="3" fill="#9333ea"/>
<circle cx="181.94" cy="117.61" r="3" fill="#9333ea"/>
<circle cx="198.95" cy="120.86" r="3" fill="#9333ea"/>
<circle cx="215.95" cy="127.61" r="3" fill="#9333ea"/>
<circle cx="232.95" cy="133.70" r="3" fill="#9333ea"/>
<circle cx="249.95" cy="136.05" r="3" fill="#9333ea"/>
<circle cx="266.95" cy="143.14" r="3" fill="#9333ea"/>
<circle cx="283.95" cy="138.73" r="3" fill="#9333ea"/>
<circle cx="300.96" cy="146.82" r="3" fill="#9333ea"/>
<circle cx="317.96" cy="131.92" r="3" fill="#9333ea"/>
<circle cx="334.96" cy="139.66" r="3" fill="#9333ea"/>
<circle cx="351.96" cy="139.42" r="3" fill="#9333ea"/>
<circle cx="368.96" cy="144.66" r="3" fill="#9333ea"/>
<circle cx="385.96" cy="148.71" r="3" fill="#9333ea"/>
<circle cx="402.97" cy="146.16" r="3" fill="#9333ea"/>
<circle cx="419.97" cy="152.81" r="3" fill="#9333ea"/>
<circle cx="436.97" cy="142.69" r="3" fill="#9333ea"/>
<circle cx="453.97" cy="148.30" r="3" fill="#9333ea"/>
<circle cx="470.97" cy="138.79" r="3" fill="#9333ea"/>
<circle cx="487.97" cy="146.23" r="3" fill="#9333ea"/>
<circle cx="504.98" cy="145.22" r="3" fill="#9333ea"/>
<circle cx="521.98" cy="147.90" r="3" fill="#9333ea"/>
<circle cx="538.98" cy="148.89" r="3" fill="#9333ea"/>
<circle cx="555.98" cy="152.27" r="3" fill="#9333ea"/>
<circle cx="572.98" cy="140.64" r="3" fill="#9333ea"/>
<circle cx="589.98" cy="148.38" r="3" fill="#9333ea"/>
<circle cx="606.99" cy="138.37" r="3" fill="#9333ea"/>
<circle cx="623.99" cy="143.32" r="3" fill="#9333ea"/>
<circle cx="640.99" cy="147.59" r="3" fill="#9333ea"/>
<circle cx="657.99" cy="140.93" r="3" fill="#9333ea"/>
<circle cx="674.99" cy="142.85" r="3" fill="#9333ea"/>
<circle cx="691.99" cy="142.00" r="3" fill="#9333ea"/>
<circle cx="709.00" cy="144.57" r="3" fill="#9333ea"/>
<circle cx="726.00" cy="149.87" r="3" fill="#9333ea"/>
<circle cx="743.00" cy="150.39" r="3" fill="#9333ea"/>
<circle cx="760.00" cy="153.45" r="3" fill="#9333ea"/>
<circle cx="760.00" cy="146.92" r="3" fill="#9333ea"/>
<rect x="795" y="131" width="12" height="12" fill="#9333ea"/>
<text x="815" y="141" font-size="12" font-weight="400" text-anchor="start" fill="#111827">text layer1</text>
<polyline points="80.00,169.82 80.27,177.28 80.60,168.71 81.59,149.65 83.25,150.68 86.57,142.17 96.54,157.18 96.94,158.43 113.14,147.80 113.94,162.30 130.94,156.40 146.35,157.33 147.94,166.02 164.94,158.29 181.94,188.23 198.95,201.92 215.95,229.42 232.95,278.97 249.95,301.77 266.95,340.68 283.95,362.06 300.96,441.37 317.96,401.67 334.96,402.71 351.96,433.18 368.96,396.40 385.96,440.02 402.97,415.23 419.97,441.39 436.97,480.00 453.97,422.74 470.97,410.98 487.97,444.85 504.98,434.36 521.98,456.35 538.98,444.47 555.98,412.54 572.98,435.61 589.98,434.90 606.99,466.11 623.99,451.28 640.99,434.55 657.99,441.76 674.99,439.88 691.99,433.10 709.00,461.70 726.00,415.52 743.00,449.55 760.00,442.78 760.00,420.88" fill="none" stroke="#ea580c" stroke-width="2.5"/>
<circle cx="80.00" cy="169.82" r="3" fill="#ea580c"/>
<circle cx="80.27" cy="177.28" r="3" fill="#ea580c"/>
<circle cx="80.60" cy="168.71" r="3" fill="#ea580c"/>
<circle cx="81.59" cy="149.65" r="3" fill="#ea580c"/>
<circle cx="83.25" cy="150.68" r="3" fill="#ea580c"/>
<circle cx="86.57" cy="142.17" r="3" fill="#ea580c"/>
<circle cx="96.54" cy="157.18" r="3" fill="#ea580c"/>
<circle cx="96.94" cy="158.43" r="3" fill="#ea580c"/>
<circle cx="113.14" cy="147.80" r="3" fill="#ea580c"/>
<circle cx="113.94" cy="162.30" r="3" fill="#ea580c"/>
<circle cx="130.94" cy="156.40" r="3" fill="#ea580c"/>
<circle cx="146.35" cy="157.33" r="3" fill="#ea580c"/>
<circle cx="147.94" cy="166.02" r="3" fill="#ea580c"/>
<circle cx="164.94" cy="158.29" r="3" fill="#ea580c"/>
<circle cx="181.94" cy="188.23" r="3" fill="#ea580c"/>
<circle cx="198.95" cy="201.92" r="3" fill="#ea580c"/>
<circle cx="215.95" cy="229.42" r="3" fill="#ea580c"/>
<circle cx="232.95" cy="278.97" r="3" fill="#ea580c"/>
<circle cx="249.95" cy="301.77" r="3" fill="#ea580c"/>
<circle cx="266.95" cy="340.68" r="3" fill="#ea580c"/>
<circle cx="283.95" cy="362.06" r="3" fill="#ea580c"/>
<circle cx="300.96" cy="441.37" r="3" fill="#ea580c"/>
<circle cx="317.96" cy="401.67" r="3" fill="#ea580c"/>
<circle cx="334.96" cy="402.71" r="3" fill="#ea580c"/>
<circle cx="351.96" cy="433.18" r="3" fill="#ea580c"/>
<circle cx="368.96" cy="396.40" r="3" fill="#ea580c"/>
<circle cx="385.96" cy="440.02" r="3" fill="#ea580c"/>
<circle cx="402.97" cy="415.23" r="3" fill="#ea580c"/>
<circle cx="419.97" cy="441.39" r="3" fill="#ea580c"/>
<circle cx="436.97" cy="480.00" r="3" fill="#ea580c"/>
<circle cx="453.97" cy="422.74" r="3" fill="#ea580c"/>
<circle cx="470.97" cy="410.98" r="3" fill="#ea580c"/>
<circle cx="487.97" cy="444.85" r="3" fill="#ea580c"/>
<circle cx="504.98" cy="434.36" r="3" fill="#ea580c"/>
<circle cx="521.98" cy="456.35" r="3" fill="#ea580c"/>
<circle cx="538.98" cy="444.47" r="3" fill="#ea580c"/>
<circle cx="555.98" cy="412.54" r="3" fill="#ea580c"/>
<circle cx="572.98" cy="435.61" r="3" fill="#ea580c"/>
<circle cx="589.98" cy="434.90" r="3" fill="#ea580c"/>
<circle cx="606.99" cy="466.11" r="3" fill="#ea580c"/>
<circle cx="623.99" cy="451.28" r="3" fill="#ea580c"/>
<circle cx="640.99" cy="434.55" r="3" fill="#ea580c"/>
<circle cx="657.99" cy="441.76" r="3" fill="#ea580c"/>
<circle cx="674.99" cy="439.88" r="3" fill="#ea580c"/>
<circle cx="691.99" cy="433.10" r="3" fill="#ea580c"/>
<circle cx="709.00" cy="461.70" r="3" fill="#ea580c"/>
<circle cx="726.00" cy="415.52" r="3" fill="#ea580c"/>
<circle cx="743.00" cy="449.55" r="3" fill="#ea580c"/>
<circle cx="760.00" cy="442.78" r="3" fill="#ea580c"/>
<circle cx="760.00" cy="420.88" r="3" fill="#ea580c"/>
<rect x="795" y="153" width="12" height="12" fill="#ea580c"/>
<text x="815" y="163" font-size="12" font-weight="400" text-anchor="start" fill="#111827">vision layer0</text>
<polyline points="80.00,181.08 80.27,188.67 80.60,187.54 81.59,176.61 83.25,161.72 86.57,130.97 96.54,125.70 96.94,117.04 113.14,127.40 113.94,130.27 130.94,134.01 146.35,147.88 147.94,158.63 164.94,162.71 181.94,184.27 198.95,198.94 215.95,207.46 232.95,225.38 249.95,231.81 266.95,238.06 283.95,249.51 300.96,254.96 317.96,252.47 334.96,248.31 351.96,268.54 368.96,254.67 385.96,261.63 402.97,258.63 419.97,256.41 436.97,271.17 453.97,265.75 470.97,251.42 487.97,256.89 504.98,260.64 521.98,267.68 538.98,265.33 555.98,260.95 572.98,257.67 589.98,264.84 606.99,275.37 623.99,259.83 640.99,264.92 657.99,271.95 674.99,262.93 691.99,258.22 709.00,265.56 726.00,255.00 743.00,265.22 760.00,266.33 760.00,264.60" fill="none" stroke="#0891b2" stroke-width="2.5"/>
<circle cx="80.00" cy="181.08" r="3" fill="#0891b2"/>
<circle cx="80.27" cy="188.67" r="3" fill="#0891b2"/>
<circle cx="80.60" cy="187.54" r="3" fill="#0891b2"/>
<circle cx="81.59" cy="176.61" r="3" fill="#0891b2"/>
<circle cx="83.25" cy="161.72" r="3" fill="#0891b2"/>
<circle cx="86.57" cy="130.97" r="3" fill="#0891b2"/>
<circle cx="96.54" cy="125.70" r="3" fill="#0891b2"/>
<circle cx="96.94" cy="117.04" r="3" fill="#0891b2"/>
<circle cx="113.14" cy="127.40" r="3" fill="#0891b2"/>
<circle cx="113.94" cy="130.27" r="3" fill="#0891b2"/>
<circle cx="130.94" cy="134.01" r="3" fill="#0891b2"/>
<circle cx="146.35" cy="147.88" r="3" fill="#0891b2"/>
<circle cx="147.94" cy="158.63" r="3" fill="#0891b2"/>
<circle cx="164.94" cy="162.71" r="3" fill="#0891b2"/>
<circle cx="181.94" cy="184.27" r="3" fill="#0891b2"/>
<circle cx="198.95" cy="198.94" r="3" fill="#0891b2"/>
<circle cx="215.95" cy="207.46" r="3" fill="#0891b2"/>
<circle cx="232.95" cy="225.38" r="3" fill="#0891b2"/>
<circle cx="249.95" cy="231.81" r="3" fill="#0891b2"/>
<circle cx="266.95" cy="238.06" r="3" fill="#0891b2"/>
<circle cx="283.95" cy="249.51" r="3" fill="#0891b2"/>
<circle cx="300.96" cy="254.96" r="3" fill="#0891b2"/>
<circle cx="317.96" cy="252.47" r="3" fill="#0891b2"/>
<circle cx="334.96" cy="248.31" r="3" fill="#0891b2"/>
<circle cx="351.96" cy="268.54" r="3" fill="#0891b2"/>
<circle cx="368.96" cy="254.67" r="3" fill="#0891b2"/>
<circle cx="385.96" cy="261.63" r="3" fill="#0891b2"/>
<circle cx="402.97" cy="258.63" r="3" fill="#0891b2"/>
<circle cx="419.97" cy="256.41" r="3" fill="#0891b2"/>
<circle cx="436.97" cy="271.17" r="3" fill="#0891b2"/>
<circle cx="453.97" cy="265.75" r="3" fill="#0891b2"/>
<circle cx="470.97" cy="251.42" r="3" fill="#0891b2"/>
<circle cx="487.97" cy="256.89" r="3" fill="#0891b2"/>
<circle cx="504.98" cy="260.64" r="3" fill="#0891b2"/>
<circle cx="521.98" cy="267.68" r="3" fill="#0891b2"/>
<circle cx="538.98" cy="265.33" r="3" fill="#0891b2"/>
<circle cx="555.98" cy="260.95" r="3" fill="#0891b2"/>
<circle cx="572.98" cy="257.67" r="3" fill="#0891b2"/>
<circle cx="589.98" cy="264.84" r="3" fill="#0891b2"/>
<circle cx="606.99" cy="275.37" r="3" fill="#0891b2"/>
<circle cx="623.99" cy="259.83" r="3" fill="#0891b2"/>
<circle cx="640.99" cy="264.92" r="3" fill="#0891b2"/>
<circle cx="657.99" cy="271.95" r="3" fill="#0891b2"/>
<circle cx="674.99" cy="262.93" r="3" fill="#0891b2"/>
<circle cx="691.99" cy="258.22" r="3" fill="#0891b2"/>
<circle cx="709.00" cy="265.56" r="3" fill="#0891b2"/>
<circle cx="726.00" cy="255.00" r="3" fill="#0891b2"/>
<circle cx="743.00" cy="265.22" r="3" fill="#0891b2"/>
<circle cx="760.00" cy="266.33" r="3" fill="#0891b2"/>
<circle cx="760.00" cy="264.60" r="3" fill="#0891b2"/>
<rect x="795" y="175" width="12" height="12" fill="#0891b2"/>
<text x="815" y="185" font-size="12" font-weight="400" text-anchor="start" fill="#111827">vision layer1</text>
</svg>
