<svg xmlns="http://www.w3.org/2000/svg" width="980" height="560" viewBox="0 0 980 560" font-family="Arial, sans-serif">
<rect width="100%" height="100%" fill="#ffffff"/>
<text x="80" y="35" font-size="20" font-weight="700" text-anchor="start" fill="#111827">late_fusion Self-Attention Entropy Over Training</text>
<text x="20" y="275.0" font-size="13" font-weight="400" text-anchor="middle" fill="#111827">attention entropy</text>
<line x1="80" y1="70" x2="80" y2="480" stroke="#9ca3af"/>
<line x1="80" y1="480" x2="760" y2="480" stroke="#9ca3af"/>
<line x1="80" y1="480.0" x2="760" y2="480.0" stroke="#e5e7eb"/>
<text x="72" y="484.0" font-size="11" font-weight="400" text-anchor="end" fill="#4b5563">3.556</text>
<line x1="80" y1="377.4999999999999" x2="760" y2="377.4999999999999" stroke="#e5e7eb"/>
<text x="72" y="381.4999999999999" font-size="11" font-weight="400" text-anchor="end" fill="#4b5563">3.634</text>
<line x1="80" y1="275.00000000000034" x2="760" y2="275.00000000000034" stroke="#e5e7eb"/>
<text x="72" y="279.00000000000034" font-size="11" font-weight="400" text-anchor="end" fill="#4b5563">3.713</text>
<line x1="80" y1="172.5000000000001" x2="760" y2="172.5000000000001" stroke="#e5e7eb"/>
<text x="72" y="176.5000000000001" font-size="11" font-weight="400" text-anchor="end" fill="#4b5563">3.791</text>
<line x1="80" y1="70.0" x2="760" y2="70.0" stroke="#e5e7eb"/>
<text x="72" y="74.0" font-size="11" font-weight="400" text-anchor="end" fill="#4b5563">3.870</text>
<text x="80.0" y="504" font-size="11" font-weight="400" text-anchor="middle" fill="#4b5563">1</text>
<text x="250.0" y="504" font-size="11" font-weight="400" text-anchor="middle" fill="#4b5563">2561</text>
<text x="420.0" y="504" font-size="11" font-weight="400" text-anchor="middle" fill="#4b5563">5120</text>
<text x="590.0" y="504" font-size="11" font-weight="400" text-anchor="middle" fill="#4b5563">7680</text>
<text x="760.0" y="504" font-size="11" font-weight="400" text-anchor="middle" fill="#4b5563">10240</text>
<polyline points="80.00,73.44 80.27,70.00 80.60,71.31 81.59,84.70 83.25,72.70 86.57,73.34 96.54,93.69 96.94,86.53 113.14,93.40 113.94,86.83 130.94,95.35 146.35,108.18 147.94,106.33 164.94,111.83 181.94,129.09 198.95,135.04 215.95,151.03 232.95,158.45 249.95,173.18 266.95,184.93 283.95,192.03 300.96,197.16 317.96,192.50 334.96,193.55 351.96,199.78 368.96,221.59 385.96,200.21 402.97,202.84 419.97,203.38 436.97,209.88 453.97,202.26 470.97,214.87 487.97,201.20 504.98,201.43 521.98,205.67 538.98,204.77 555.98,201.49 572.98,209.89 589.98,204.98 606.99,205.51 623.99,198.68 640.99,210.99 657.99,223.94 674.99,199.88 691.99,218.57 709.00,207.74 726.00,208.91 743.00,203.83 760.00,235.59 760.00,207.81" fill="none" stroke="#2563eb" stroke-width="2.5"/>
<circle cx="80.00" cy="73.44" r="3" fill="#2563eb"/>
<circle cx="80.27" cy="70.00" r="3" fill="#2563eb"/>
<circle cx="80.60" cy="71.31" r="3" fill="#2563eb"/>
<circle cx="81.59" cy="84.70" r="3" fill="#2563eb"/>
<circle cx="83.25" cy="72.70" r="3" fill="#2563eb"/>
<circle cx="86.57" cy="73.34" r="3" fill="#2563eb"/>
<circle cx="96.54" cy="93.69" r="3" fill="#2563eb"/>
<circle cx="96.94" cy="86.53" r="3" fill="#2563eb"/>
<circle cx="113.14" cy="93.40" r="3" fill="#2563eb"/>
<circle cx="113.94" cy="86.83" r="3" fill="#2563eb"/>
<circle cx="130.94" cy="95.35" r="3" fill="#2563eb"/>
<circle cx="146.35" cy="108.18" r="3" fill="#2563eb"/>
<circle cx="147.94" cy="106.33" r="3" fill="#2563eb"/>
<circle cx="164.94" cy="111.83" r="3" fill="#2563eb"/>
<circle cx="181.94" cy="129.09" r="3" fill="#2563eb"/>
<circle cx="198.95" cy="135.04" r="3" fill="#2563eb"/>
<circle cx="215.95" cy="151.03" r="3" fill="#2563eb"/>
<circle cx="232.95" cy="158.45" r="3" fill="#2563eb"/>
<circle cx="249.95" cy="173.18" r="3" fill="#2563eb"/>
<circle cx="266.95" cy="184.93" r="3" fill="#2563eb"/>
<circle cx="283.95" cy="192.03" r="3" fill="#2563eb"/>
<circle cx="300.96" cy="197.16" r="3" fill="#2563eb"/>
<circle cx="317.96" cy="192.50" r="3" fill="#2563eb"/>
<circle cx="334.96" cy="193.55" r="3" fill="#2563eb"/>
<circle cx="351.96" cy="199.78" r="3" fill="#2563eb"/>
<circle cx="368.96" cy="221.59" r="3" fill="#2563eb"/>
<circle cx="385.96" cy="200.21" r="3" fill="#2563eb"/>
<circle cx="402.97" cy="202.84" r="3" fill="#2563eb"/>
<circle cx="419.97" cy="203.38" r="3" fill="#2563eb"/>
<circle cx="436.97" cy="209.88" r="3" fill="#2563eb"/>
<circle cx="453.97" cy="202.26" r="3" fill="#2563eb"/>
<circle cx="470.97" cy="214.87" r="3" fill="#2563eb"/>
<circle cx="487.97" cy="201.20" r="3" fill="#2563eb"/>
<circle cx="504.98" cy="201.43" r="3" fill="#2563eb"/>
<circle cx="521.98" cy="205.67" r="3" fill="#2563eb"/>
<circle cx="538.98" cy="204.77" r="3" fill="#2563eb"/>
<circle cx="555.98" cy="201.49" r="3" fill="#2563eb"/>
<circle cx="572.98" cy="209.89" r="3" fill="#2563eb"/>
<circle cx="589.98" cy="204.98" r="3" fill="#2563eb"/>
<circle cx="606.99" cy="205.51" r="3" fill="#2563eb"/>
<circle cx="623.99" cy="198.68" r="3" fill="#2563eb"/>
<circle cx="640.99" cy="210.99" r="3" fill="#2563eb"/>
<circle cx="657.99" cy="223.94" r="3" fill="#2563eb"/>
<circle cx="674.99" cy="199.88" r="3" fill="#2563eb"/>
<circle cx="691.99" cy="218.57" r="3" fill="#2563eb"/>
<circle cx="709.00" cy="207.74" r="3" fill="#2563eb"/>
<circle cx="726.00" cy="208.91" r="3" fill="#2563eb"/>
<circle cx="743.00" cy="203.83" r="3" fill="#2563eb"/>
<circle cx="760.00" cy="235.59" r="3" fill="#2563eb"/>
<circle cx="760.00" cy="207.81" r="3" fill="#2563eb"/>
<rect x="795" y="65" width="12" height="12" fill="#2563eb"/>
<text x="815" y="75" font-size="12" font-weight="400" text-anchor="start" fill="#111827">audio layer0</text>
<polyline points="80.00,101.00 80.27,101.09 80.60,101.29 81.59,104.88 83.25,106.18 86.57,109.96 96.54,126.94 96.94,125.92 113.14,138.95 113.94,138.06 130.94,152.81 146.35,181.24 147.94,179.22 164.94,200.14 181.94,227.84 198.95,250.99 215.95,293.80 232.95,302.69 249.95,322.82 266.95,357.67 283.95,356.72 300.96,364.87 317.96,376.30 334.96,366.84 351.96,382.27 368.96,364.31 385.96,393.18 402.97,393.90 419.97,393.74 436.97,386.58 453.97,386.25 470.97,394.77 487.97,399.17 504.98,390.89 521.98,392.04 538.98,386.51 555.98,390.63 572.98,387.78 589.98,403.73 606.99,390.94 623.99,378.91 640.99,387.09 657.99,394.00 674.99,382.47 691.99,401.99 709.00,406.29 726.00,396.65 743.00,377.80 760.00,393.14 760.00,385.84" fill="none" stroke="#dc2626" stroke-width="2.5"/>
<circle cx="80.00" cy="101.00" r="3" fill="#dc2626"/>
<circle cx="80.27" cy="101.09" r="3" fill="#dc2626"/>
<circle cx="80.60" cy="101.29" r="3" fill="#dc2626"/>
<circle cx="81.59" cy="104.88" r="3" fill="#dc2626"/>
<circle cx="83.25" cy="106.18" r="3" fill="#dc2626"/>
<circle cx="86.57" cy="109.96" r="3" fill="#dc2626"/>
<circle cx="96.54" cy="126.94" r="3" fill="#dc2626"/>
<circle cx="96.94" cy="125.92" r="3" fill="#dc2626"/>
<circle cx="113.14" cy="138.95" r="3" fill="#dc2626"/>
<circle cx="113.94" cy="138.06" r="3" fill="#dc2626"/>
<circle cx="130.94" cy="152.81" r="3" fill="#dc2626"/>
<circle cx="146.35" cy="181.24" r="3" fill="#dc2626"/>
<circle cx="147.94" cy="179.22" r="3" fill="#dc2626"/>
<circle cx="164.94" cy="200.14" r="3" fill="#dc2626"/>
<circle cx="181.94" cy="227.84" r="3" fill="#dc2626"/>
<circle cx="198.95" cy="250.99" r="3" fill="#dc2626"/>
<circle cx="215.95" cy="293.80" r="3" fill="#dc2626"/>
<circle cx="232.95" cy="302.69" r="3" fill="#dc2626"/>
<circle cx="249.95" cy="322.82" r="3" fill="#dc2626"/>
<circle cx="266.95" cy="357.67" r="3" fill="#dc2626"/>
<circle cx="283.95" cy="356.72" r="3" fill="#dc2626"/>
<circle cx="300.96" cy="364.87" r="3" fill="#dc2626"/>
<circle cx="317.96" cy="376.30" r="3" fill="#dc2626"/>
<circle cx="334.96" cy="366.84" r="3" fill="#dc2626"/>
<circle cx="351.96" cy="382.27" r="3" fill="#dc2626"/>
<circle cx="368.96" cy="364.31" r="3" fill="#dc2626"/>
<circle cx="385.96" cy="393.18" r="3" fill="#dc2626"/>
<circle cx="402.97" cy="393.90" r="3" fill="#dc2626"/>
<circle cx="419.97" cy="393.74" r="3" fill="#dc2626"/>
<circle cx="436.97" cy="386.58" r="3" fill="#dc2626"/>
<circle cx="453.97" cy="386.25" r="3" fill="#dc2626"/>
<circle cx="470.97" cy="394.77" r="3" fill="#dc2626"/>
<circle cx="487.97" cy="399.17" r="3" fill="#dc2626"/>
<circle cx="504.98" cy="390.89" r="3" fill="#dc2626"/>
<circle cx="521.98" cy="392.04" r="3" fill="#dc2626"/>
<circle cx="538.98" cy="386.51" r="3" fill="#dc2626"/>
<circle cx="555.98" cy="390.63" r="3" fill="#dc2626"/>
<circle cx="572.98" cy="387.78" r="3" fill="#dc2626"/>
<circle cx="589.98" cy="403.73" r="3" fill="#dc2626"/>
<circle cx="606.99" cy="390.94" r="3" fill="#dc2626"/>
<circle cx="623.99" cy="378.91" r="3" fill="#dc2626"/>
<circle cx="640.99" cy="387.09" r="3" fill="#dc2626"/>
<circle cx="657.99" cy="394.00" r="3" fill="#dc2626"/>
<circle cx="674.99" cy="382.47" r="3" fill="#dc2626"/>
<circle cx="691.99" cy="401.99" r="3" fill="#dc2626"/>
<circle cx="709.00" cy="406.29" r="3" fill="#dc2626"/>
<circle cx="726.00" cy="396.65" r="3" fill="#dc2626"/>
<circle cx="743.00" cy="377.80" r="3" fill="#dc2626"/>
<circle cx="760.00" cy="393.14" r="3" fill="#dc2626"/>
<circle cx="760.00" cy="385.84" r="3" fill="#dc2626"/>
<rect x="795" y="87" width="12" height="12" fill="#dc2626"/>
<text x="815" y="97" font-size="12" font-weight="400" text-anchor="start" fill="#111827">audio layer1</text>
<polyline points="80.00,78.16 80.27,76.09 80.60,75.15 81.59,77.79 83.25,78.26 86.57,77.07 96.54,78.38 96.94,80.44 113.14,80.39 113.94,81.21 130.94,84.83 146.35,84.59 147.94,83.76 164.94,88.06 181.94,91.86 198.95,97.14 215.95,101.51 232.95,109.39 249.95,118.54 266.95,119.30 283.95,129.95 300.96,133.82 317.96,134.12 334.96,136.42 351.96,142.07 368.96,146.84 385.96,142.98 402.97,142.52 419.97,142.77 436.97,146.58 453.97,148.69 470.97,148.13 487.97,144.60 504.98,147.28 521.98,147.35 538.98,151.51 555.98,148.86 572.98,149.95 589.98,147.97 606.99,147.02 623.99,148.12 640.99,149.57 657.99,147.88 674.99,151.94 691.99,148.62 709.00,148.08 726.00,153.13 743.00,152.42 760.00,148.68 760.00,147.98" fill="none" stroke="#16a34a" stroke-width="2.5"/>
<circle cx="80.00" cy="78.16" r="3" fill="#16a34a"/>
<circle cx="80.27" cy="76.09" r="3" fill="#16a34a"/>
<circle cx="80.60" cy="75.15" r="3" fill="#16a34a"/>
<circle cx="81.59" cy="77.79" r="3" fill="#16a34a"/>
<circle cx="83.25" cy="78.26" r="3" fill="#16a34a"/>
<circle cx="86.57" cy="77.07" r="3" fill="#16a34a"/>
<circle cx="96.54" cy="78.38" r="3" fill="#16a34a"/>
<circle cx="96.94" cy="80.44" r="3" fill="#16a34a"/>
<circle cx="113.14" cy="80.39" r="3" fill="#16a34a"/>
<circle cx="113.94" cy="81.21" r="3" fill="#16a34a"/>
<circle cx="130.94" cy="84.83" r="3" fill="#16a34a"/>
<circle cx="146.35" cy="84.59" r="3" fill="#16a34a"/>
<circle cx="147.94" cy="83.76" r="3" fill="#16a34a"/>
<circle cx="164.94" cy="88.06" r="3" fill="#16a34a"/>
<circle cx="181.94" cy="91.86" r="3" fill="#16a34a"/>
<circle cx="198.95" cy="97.14" r="3" fill="#16a34a"/>
<circle cx="215.95" cy="101.51" r="3" fill="#16a34a"/>
<circle cx="232.95" cy="109.39" r="3" fill="#16a34a"/>
<circle cx="249.95" cy="118.54" r="3" fill="#16a34a"/>
<circle cx="266.95" cy="119.30" r="3" fill="#16a34a"/>
<circle cx="283.95" cy="129.95" r="3" fill="#16a34a"/>
<circle cx="300.96" cy="133.82" r="3" fill="#16a34a"/>
<circle cx="317.96" cy="134.12" r="3" fill="#16a34a"/>
<circle cx="334.96" cy="136.42" r="3" fill="#16a34a"/>
<circle cx="351.96" cy="142.07" r="3" fill="#16a34a"/>
<circle cx="368.96" cy="146.84" r="3" fill="#16a34a"/>
<circle cx="385.96" cy="142.98" r="3" fill="#16a34a"/>
<circle cx="402.97" cy="142.52" r="3" fill="#16a34a"/>
<circle cx="419.97" cy="142.77" r="3" fill="#16a34a"/>
<circle cx="436.97" cy="146.58" r="3" fill="#16a34a"/>
<circle cx="453.97" cy="148.69" r="3" fill="#16a34a"/>
<circle cx="470.97" cy="148.13" r="3" fill="#16a34a"/>
<circle cx="487.97" cy="144.60" r="3" fill="#16a34a"/>
<circle cx="504.98" cy="147.28" r="3" fill="#16a34a"/>
<circle cx="521.98" cy="147.35" r="3" fill="#16a34a"/>
<circle cx="538.98" cy="151.51" r="3" fill="#16a34a"/>
<circle cx="555.98" cy="148.86" r="3" fill="#16a34a"/>
<circle cx="572.98" cy="149.95" r="3" fill="#16a34a"/>
<circle cx="589.98" cy="147.97" r="3" fill="#16a34a"/>
<circle cx="606.99" cy="147.02" r="3" fill="#16a34a"/>
<circle cx="623.99" cy="148.12" r="3" fill="#16a34a"/>
<circle cx="640.99" cy="149.57" r="3" fill="#16a34a"/>
<circle cx="657.99" cy="147.88" r="3" fill="#16a34a"/>
<circle cx="674.99" cy="151.94" r="3" fill="#16a34a"/>
<circle cx="691.99" cy="148.62" r="3" fill="#16a34a"/>
<circle cx="709.00" cy="148.08" r="3" fill="#16a34a"/>
<circle cx="726.00" cy="153.13" r="3" fill="#16a34a"/>
<circle cx="743.00" cy="152.42" r="3" fill="#16a34a"/>
<circle cx="760.00" cy="148.68" r="3" fill="#16a34a"/>
<circle cx="760.00" cy="147.98" r="3" fill="#16a34a"/>
<rect x="795" y="109" width="12" height="12" fill="#16a34a"/>
<text x="815" y="119" font-size="12" font-weight="400" text-anchor="start" fill="#111827">text layer0</text>
<polyline points="80.00,100.85 80.27,99.18 80.60,99.29 81.59,100.32 83.25,101.06 86.57,101.43 96.54,109.07 96.94,110.14 113.14,114.27 113.94,113.98 130.94,117.17 146.35,118.48 147.94,118.53 164.94,121.67 181.94,123.23 198.95,128.24 215.95,134.10 232.95,137.25 249.95,145.06 266.95,149.18 283.95,152.79 300.96,158.18 317.96,159.30 334.96,157.10 351.96,162.53 368.96,163.13 385.96,162.91 402.97,167.13 419.97,164.79 436.97,165.98 453.97,169.44 470.97,167.97 487.97,166.36 504.98,167.22 521.98,167.37 538.98,168.96 555.98,168.09 572.98,168.08 589.98,168.00 606.99,167.52 623.99,168.66 640.99,168.76 657.99,166.37 674.99,168.62 691.99,168.34 709.00,169.43 726.00,169.64 743.00,169.33 760.00,168.58 760.00,167.88" fill="none" stroke="#9333ea" stroke-width="2.5"/>
<circle cx="80.00" cy="100.85" r="3" fill="#9333ea"/>
<circle cx="80.27" cy="99.18" r="3" fill="#9333ea"/>
<circle cx="80.60" cy="99.29" r="3" fill="#9333ea"/>
<circle cx="81.59" cy="100.32" r="3" fill="#9333ea"/>
<circle cx="83.25" cy="101.06" r="3" fill="#9333ea"/>
<circle cx="86.57" cy="101.43" r="3" fill="#9333ea"/>
<circle cx="96.54" cy="109.07" r="3" fill="#9333ea"/>
<circle cx="96.94" cy="110.14" r="3" fill="#9333ea"/>
<circle cx="113.14" cy="114.27" r="3" fill="#9333ea"/>
<circle cx="113.94" cy="113.98" r="3" fill="#9333ea"/>
<circle cx="130.94" cy="117.17" r="3" fill="#9333ea"/>
<circle cx="146.35" cy="118.48" r="3" fill="#9333ea"/>
<circle cx="147.94" cy="118.53" r="3" fill="#9333ea"/>
<circle cx="164.94" cy="121.67" r="3" fill="#9333ea"/>
<circle cx="181.94" cy="123.23" r="3" fill="#9333ea"/>
<circle cx="198.95" cy="128.24" r="3" fill="#9333ea"/>
<circle cx="215.95" cy="134.10" r="3" fill="#9333ea"/>
<circle cx="232.95" cy="137.25" r="3" fill="#9333ea"/>
<circle cx="249.95" cy="145.06" r="3" fill="#9333ea"/>
<circle cx="266.95" cy="149.18" r="3" fill="#9333ea"/>
<circle cx="283.95" cy="152.79" r="3" fill="#9333ea"/>
<circle cx="300.96" cy="158.18" r="3" fill="#9333ea"/>
<circle cx="317.96" cy="159.30" r="3" fill="#9333ea"/>
<circle cx="334.96" cy="157.10" r="3" fill="#9333ea"/>
<circle cx="351.96" cy="162.53" r="3" fill="#9333ea"/>
<circle cx="368.96" cy="163.13" r="3" fill="#9333ea"/>
<circle cx="385.96" cy="162.91" r="3" fill="#9333ea"/>
<circle cx="402.97" cy="167.13" r="3" fill="#9333ea"/>
<circle cx="419.97" cy="164.79" r="3" fill="#9333ea"/>
<circle cx="436.97" cy="165.98" r="3" fill="#9333ea"/>
<circle cx="453.97" cy="169.44" r="3" fill="#9333ea"/>
<circle cx="470.97" cy="167.97" r="3" fill="#9333ea"/>
<circle cx="487.97" cy="166.36" r="3" fill="#9333ea"/>
<circle cx="504.98" cy="167.22" r="3" fill="#9333ea"/>
<circle cx="521.98" cy="167.37" r="3" fill="#9333ea"/>
<circle cx="538.98" cy="168.96" r="3" fill="#9333ea"/>
<circle cx="555.98" cy="168.09" r="3" fill="#9333ea"/>
<circle cx="572.98" cy="168.08" r="3" fill="#9333ea"/>
<circle cx="589.98" cy="168.00" r="3" fill="#9333ea"/>
<circle cx="606.99" cy="167.52" r="3" fill="#9333ea"/>
<circle cx="623.99" cy="168.66" r="3" fill="#9333ea"/>
<circle cx="640.99" cy="168.76" r="3" fill="#9333ea"/>
<circle cx="657.99" cy="166.37" r="3" fill="#9333ea"/>
<circle cx="674.99" cy="168.62" r="3" fill="#9333ea"/>
<circle cx="691.99" cy="168.34" r="3" fill="#9333ea"/>
<circle cx="709.00" cy="169.43" r="3" fill="#9333ea"/>
<circle cx="726.00" cy="169.64" r="3" fill="#9333ea"/>
<circle cx="743.00" cy="169.33" r="3" fill="#9333ea"/>
<circle cx="760.00" cy="168.58" r="3" fill="#9333ea"/>
<circle cx="760.00" cy="167.88" r="3" fill="#9333ea"/>
<rect x="795" y="131" width="12" height="12" fill="#9333ea"/>
<text x="815" y="141" font-size="12" font-weight="400" text-anchor="start" fill="#111827">text layer1</text>
<polyline points="80.00,74.41 80.27,72.48 80.60,73.64 81.59,71.83 83.25,74.69 86.57,73.62 96.54,83.62 96.94,89.13 113.14,124.56 113.94,134.91 130.94,184.81 146.35,210.48 147.94,221.48 164.94,263.14 181.94,262.84 198.95,276.25 215.95,299.31 232.95,292.33 249.95,315.98 266.95,312.23 283.95,324.73 300.96,319.95 317.96,317.63 334.96,325.79 351.96,347.24 368.96,347.20 385.96,330.82 402.97,343.19 419.97,361.28 436.97,315.76 453.97,325.05 470.97,331.14 487.97,327.13 504.98,328.00 521.98,331.70 538.98,349.94 555.98,326.82 572.98,325.44 589.98,320.25 606.99,356.12 623.99,359.15 640.99,336.61 657.99,340.99 674.99,322.92 691.99,358.65 709.00,338.27 726.00,331.22 743.00,327.86 760.00,342.93 760.00,337.11" fill="none" stroke="#ea580c" stroke-width="2.5"/>
<circle cx="80.00" cy="74.41" r="3" fill="#ea580c"/>
<circle cx="80.27" cy="72.48" r="3" fill="#ea580c"/>
<circle cx="80.60" cy="73.64" r="3" fill="#ea580c"/>
<circle cx="81.59" cy="71.83" r="3" fill="#ea580c"/>
<circle cx="83.25" cy="74.69" r="3" fill="#ea580c"/>
<circle cx="86.57" cy="73.62" r="3" fill="#ea580c"/>
<circle cx="96.54" cy="83.62" r="3" fill="#ea580c"/>
<circle cx="96.94" cy="89.13" r="3" fill="#ea580c"/>
<circle cx="113.14" cy="124.56" r="3" fill="#ea580c"/>
<circle cx="113.94" cy="134.91" r="3" fill="#ea580c"/>
<circle cx="130.94" cy="184.81" r="3" fill="#ea580c"/>
<circle cx="146.35" cy="210.48" r="3" fill="#ea580c"/>
<circle cx="147.94" cy="221.48" r="3" fill="#ea580c"/>
<circle cx="164.94" cy="263.14" r="3" fill="#ea580c"/>
<circle cx="181.94" cy="262.84" r="3" fill="#ea580c"/>
<circle cx="198.95" cy="276.25" r="3" fill="#ea580c"/>
<circle cx="215.95" cy="299.31" r="3" fill="#ea580c"/>
<circle cx="232.95" cy="292.33" r="3" fill="#ea580c"/>
<circle cx="249.95" cy="315.98" r="3" fill="#ea580c"/>
<circle cx="266.95" cy="312.23" r="3" fill="#ea580c"/>
<circle cx="283.95" cy="324.73" r="3" fill="#ea580c"/>
<circle cx="300.96" cy="319.95" r="3" fill="#ea580c"/>
<circle cx="317.96" cy="317.63" r="3" fill="#ea580c"/>
<circle cx="334.96" cy="325.79" r="3" fill="#ea580c"/>
<circle cx="351.96" cy="347.24" r="3" fill="#ea580c"/>
<circle cx="368.96" cy="347.20" r="3" fill="#ea580c"/>
<circle cx="385.96" cy="330.82" r="3" fill="#ea580c"/>
<circle cx="402.97" cy="343.19" r="3" fill="#ea580c"/>
<circle cx="419.97" cy="361.28" r="3" fill="#ea580c"/>
<circle cx="436.97" cy="315.76" r="3" fill="#ea580c"/>
<circle cx="453.97" cy="325.05" r="3" fill="#ea580c"/>
<circle cx="470.97" cy="331.14" r="3" fill="#ea580c"/>
<circle cx="487.97" cy="327.13" r="3" fill="#ea580c"/>
<circle cx="504.98" cy="328.00" r="3" fill="#ea580c"/>
<circle cx="521.98" cy="331.70" r="3" fill="#ea580c"/>
<circle cx="538.98" cy="349.94" r="3" fill="#ea580c"/>
<circle cx="555.98" cy="326.82" r="3" fill="#ea580c"/>
<circle cx="572.98" cy="325.44" r="3" fill="#ea580c"/>
<circle cx="589.98" cy="320.25" r="3" fill="#ea580c"/>
<circle cx="606.99" cy="356.12" r="3" fill="#ea580c"/>
<circle cx="623.99" cy="359.15" r="3" fill="#ea580c"/>
<circle cx="640.99" cy="336.61" r="3" fill="#ea580c"/>
<circle cx="657.99" cy="340.99" r="3" fill="#ea580c"/>
<circle cx="674.99" cy="322.92" r="3" fill="#ea580c"/>
<circle cx="691.99" cy="358.65" r="3" fill="#ea580c"/>
<circle cx="709.00" cy="338.27" r="3" fill="#ea580c"/>
<circle cx="726.00" cy="331.22" r="3" fill="#ea580c"/>
<circle cx="743.00" cy="327.86" r="3" fill="#ea580c"/>
<circle cx="760.00" cy="342.93" r="3" fill="#ea580c"/>
<circle cx="760.00" cy="337.11" r="3" fill="#ea580c"/>
<rect x="795" y="153" width="12" height="12" fill="#ea580c"/>
<text x="815" y="163" font-size="12" font-weight="400" text-anchor="start" fill="#111827">vision layer0</text>
<polyline points="80.00,90.32 80.27,88.52 80.60,92.30 81.59,92.53 83.25,93.80 86.57,93.39 96.54,115.74 96.94,113.96 113.14,165.36 113.94,171.42 130.94,227.38 146.35,267.15 147.94,277.18 164.94,325.09 181.94,344.27 198.95,352.91 215.95,389.48 232.95,397.94 249.95,418.45 266.95,427.38 283.95,434.33 300.96,415.77 317.96,425.55 334.96,441.50 351.96,439.75 368.96,430.22 385.96,462.66 402.97,455.33 419.97,437.03 436.97,438.90 453.97,465.22 470.97,450.33 487.97,465.75 504.98,453.34 521.98,454.42 538.98,446.12 555.98,444.47 572.98,453.15 589.98,437.37 606.99,444.78 623.99,480.00 640.99,442.89 657.99,461.01 674.99,456.02 691.99,460.05 709.00,465.22 726.00,438.63 743.00,436.16 760.00,454.30 760.00,437.73" fill="none" stroke="#0891b2" stroke-width="2.5"/>
<circle cx="80.00" cy="90.32" r="3" fill="#0891b2"/>
<circle cx="80.27" cy="88.52" r="3" fill="#0891b2"/>
<circle cx="80.60" cy="92.30" r="3" fill="#0891b2"/>
<circle cx="81.59" cy="92.53" r="3" fill="#0891b2"/>
<circle cx="83.25" cy="93.80" r="3" fill="#0891b2"/>
<circle cx="86.57" cy="93.39" r="3" fill="#0891b2"/>
<circle cx="96.54" cy="115.74" r="3" fill="#0891b2"/>
<circle cx="96.94" cy="113.96" r="3" fill="#0891b2"/>
<circle cx="113.14" cy="165.36" r="3" fill="#0891b2"/>
<circle cx="113.94" cy="171.42" r="3" fill="#0891b2"/>
<circle cx="130.94" cy="227.38" r="3" fill="#0891b2"/>
<circle cx="146.35" cy="267.15" r="3" fill="#0891b2"/>
<circle cx="147.94" cy="277.18" r="3" fill="#0891b2"/>
<circle cx="164.94" cy="325.09" r="3" fill="#0891b2"/>
<circle cx="181.94" cy="344.27" r="3" fill="#0891b2"/>
<circle cx="198.95" cy="352.91" r="3" fill="#0891b2"/>
<circle cx="215.95" cy="389.48" r="3" fill="#0891b2"/>
<circle cx="232.95" cy="397.94" r="3" fill="#0891b2"/>
<circle cx="249.95" cy="418.45" r="3" fill="#0891b2"/>
<circle cx="266.95" cy="427.38" r="3" fill="#0891b2"/>
<circle cx="283.95" cy="434.33" r="3" fill="#0891b2"/>
<circle cx="300.96" cy="415.77" r="3" fill="#0891b2"/>
<circle cx="317.96" cy="425.55" r="3" fill="#0891b2"/>
<circle cx="334.96" cy="441.50" r="3" fill="#0891b2"/>
<circle cx="351.96" cy="439.75" r="3" fill="#0891b2"/>
<circle cx="368.96" cy="430.22" r="3" fill="#0891b2"/>
<circle cx="385.96" cy="462.66" r="3" fill="#0891b2"/>
<circle cx="402.97" cy="455.33" r="3" fill="#0891b2"/>
<circle cx="419.97" cy="437.03" r="3" fill="#0891b2"/>
<circle cx="436.97" cy="438.90" r="3" fill="#0891b2"/>
<circle cx="453.97" cy="465.22" r="3" fill="#0891b2"/>
<circle cx="470.97" cy="450.33" r="3" fill="#0891b2"/>
<circle cx="487.97" cy="465.75" r="3" fill="#0891b2"/>
<circle cx="504.98" cy="453.34" r="3" fill="#0891b2"/>
<circle cx="521.98" cy="454.42" r="3" fill="#0891b2"/>
<circle cx="538.98" cy="446.12" r="3" fill="#0891b2"/>
<circle cx="555.98" cy="444.47" r="3" fill="#0891b2"/>
<circle cx="572.98" cy="453.15" r="3" fill="#0891b2"/>
<circle cx="589.98" cy="437.37" r="3" fill="#0891b2"/>
<circle cx="606.99" cy="444.78" r="3" fill="#0891b2"/>
<circle cx="623.99" cy="480.00" r="3" fill="#0891b2"/>
<circle cx="640.99" cy="442.89" r="3" fill="#0891b2"/>
<circle cx="657.99" cy="461.01" r="3" fill="#0891b2"/>
<circle cx="674.99" cy="456.02" r="3" fill="#0891b2"/>
<circle cx="691.99" cy="460.05" r="3" fill="#0891b2"/>
<circle cx="709.00" cy="465.22" r="3" fill="#0891b2"/>
<circle cx="726.00" cy="438.63" r="3" fill="#0891b2"/>
<circle cx="743.00" cy="436.16" r="3" fill="#0891b2"/>
<circle cx="760.00" cy="454.30" r="3" fill="#0891b2"/>
<circle cx="760.00" cy="437.73" r="3" fill="#0891b2"/>
<rect x="795" y="175" width="12" height="12" fill="#0891b2"/>
<text x="815" y="185" font-size="12" font-weight="400" text-anchor="start" fill="#111827">vision layer1</text>
</svg>
