<svg xmlns="http://www.w3.org/2000/svg" width="980" height="560" viewBox="0 0 980 560" font-family="Arial, sans-serif">
<rect width="100%" height="100%" fill="#ffffff"/>
<text x="80" y="35" font-size="20" font-weight="700" text-anchor="start" fill="#111827">Ortho Fusion Real Loss Over Epochs</text>
<text x="20" y="275.0" font-size="13" font-weight="400" text-anchor="middle" fill="#111827">loss</text>
<line x1="80" y1="70" x2="80" y2="480" stroke="#9ca3af"/>
<line x1="80" y1="480" x2="760" y2="480" stroke="#9ca3af"/>
<line x1="80" y1="480.0" x2="760" y2="480.0" stroke="#e5e7eb"/>
<text x="72" y="484.0" font-size="11" font-weight="400" text-anchor="end" fill="#4b5563">0.676</text>
<line x1="80" y1="377.5" x2="760" y2="377.5" stroke="#e5e7eb"/>
<text x="72" y="381.5" font-size="11" font-weight="400" text-anchor="end" fill="#4b5563">1.103</text>
<line x1="80" y1="275.0" x2="760" y2="275.0" stroke="#e5e7eb"/>
<text x="72" y="279.0" font-size="11" font-weight="400" text-anchor="end" fill="#4b5563">1.531</text>
<line x1="80" y1="172.5" x2="760" y2="172.5" stroke="#e5e7eb"/>
<text x="72" y="176.5" font-size="11" font-weight="400" text-anchor="end" fill="#4b5563">1.958</text>
<line x1="80" y1="70.0" x2="760" y2="70.0" stroke="#e5e7eb"/>
<text x="72" y="74.0" font-size="11" font-weight="400" text-anchor="end" fill="#4b5563">2.385</text>
<text x="80.0" y="504" font-size="11" font-weight="400" text-anchor="middle" fill="#4b5563">1</text>
<text x="250.0" y="504" font-size="11" font-weight="400" text-anchor="middle" fill="#4b5563">11</text>
<text x="420.0" y="504" font-size="11" font-weight="400" text-anchor="middle" fill="#4b5563">20</text>
<text x="590.0" y="504" font-size="11" font-weight="400" text-anchor="middle" fill="#4b5563">30</text>
<text x="760.0" y="504" font-size="11" font-weight="400" text-anchor="middle" fill="#4b5563">40</text>
<polyline points="80.00,70.00 97.44,433.52 114.87,450.28 132.31,456.88 149.74,461.44 167.18,464.48 184.62,466.47 202.05,468.14 219.49,469.91 236.92,470.57 254.36,472.71 271.79,473.35 289.23,474.25 306.67,475.89 324.10,476.19 341.54,477.04 358.97,477.67 376.41,478.08 393.85,478.19 411.28,478.82 428.72,478.65 446.15,478.89 463.59,479.19 481.03,478.83 498.46,479.27 515.90,479.23 533.33,479.40 550.77,479.29 568.21,479.38 585.64,479.62 603.08,479.66 620.51,479.90 637.95,480.00 655.38,479.75 672.82,479.43 690.26,479.29 707.69,479.11 725.13,479.20 742.56,479.24 760.00,479.31" fill="none" stroke="#2563eb" stroke-width="2.5"/>
<circle cx="80.00" cy="70.00" r="3" fill="#2563eb"/>
<circle cx="97.44" cy="433.52" r="3" fill="#2563eb"/>
<circle cx="114.87" cy="450.28" r="3" fill="#2563eb"/>
<circle cx="132.31" cy="456.88" r="3" fill="#2563eb"/>
<circle cx="149.74" cy="461.44" r="3" fill="#2563eb"/>
<circle cx="167.18" cy="464.48" r="3" fill="#2563eb"/>
<circle cx="184.62" cy="466.47" r="3" fill="#2563eb"/>
<circle cx="202.05" cy="468.14" r="3" fill="#2563eb"/>
<circle cx="219.49" cy="469.91" r="3" fill="#2563eb"/>
<circle cx="236.92" cy="470.57" r="3" fill="#2563eb"/>
<circle cx="254.36" cy="472.71" r="3" fill="#2563eb"/>
<circle cx="271.79" cy="473.35" r="3" fill="#2563eb"/>
<circle cx="289.23" cy="474.25" r="3" fill="#2563eb"/>
<circle cx="306.67" cy="475.89" r="3" fill="#2563eb"/>
<circle cx="324.10" cy="476.19" r="3" fill="#2563eb"/>
<circle cx="341.54" cy="477.04" r="3" fill="#2563eb"/>
<circle cx="358.97" cy="477.67" r="3" fill="#2563eb"/>
<circle cx="376.41" cy="478.08" r="3" fill="#2563eb"/>
<circle cx="393.85" cy="478.19" r="3" fill="#2563eb"/>
<circle cx="411.28" cy="478.82" r="3" fill="#2563eb"/>
<circle cx="428.72" cy="478.65" r="3" fill="#2563eb"/>
<circle cx="446.15" cy="478.89" r="3" fill="#2563eb"/>
<circle cx="463.59" cy="479.19" r="3" fill="#2563eb"/>
<circle cx="481.03" cy="478.83" r="3" fill="#2563eb"/>
<circle cx="498.46" cy="479.27" r="3" fill="#2563eb"/>
<circle cx="515.90" cy="479.23" r="3" fill="#2563eb"/>
<circle cx="533.33" cy="479.40" r="3" fill="#2563eb"/>
<circle cx="550.77" cy="479.29" r="3" fill="#2563eb"/>
<circle cx="568.21" cy="479.38" r="3" fill="#2563eb"/>
<circle cx="585.64" cy="479.62" r="3" fill="#2563eb"/>
<circle cx="603.08" cy="479.66" r="3" fill="#2563eb"/>
<circle cx="620.51" cy="479.90" r="3" fill="#2563eb"/>
<circle cx="637.95" cy="480.00" r="3" fill="#2563eb"/>
<circle cx="655.38" cy="479.75" r="3" fill="#2563eb"/>
<circle cx="672.82" cy="479.43" r="3" fill="#2563eb"/>
<circle cx="690.26" cy="479.29" r="3" fill="#2563eb"/>
<circle cx="707.69" cy="479.11" r="3" fill="#2563eb"/>
<circle cx="725.13" cy="479.20" r="3" fill="#2563eb"/>
<circle cx="742.56" cy="479.24" r="3" fill="#2563eb"/>
<circle cx="760.00" cy="479.31" r="3" fill="#2563eb"/>
<rect x="795" y="65" width="12" height="12" fill="#2563eb"/>
<text x="815" y="75" font-size="12" font-weight="400" text-anchor="start" fill="#111827">Train loss</text>
<polyline points="80.00,424.28 97.44,447.02 114.87,452.36 132.31,454.91 149.74,457.21 167.18,459.68 184.62,459.55 202.05,460.12 219.49,458.93 236.92,461.15 254.36,460.07 271.79,459.35 289.23,459.86 306.67,459.92 324.10,459.20 341.54,460.07 358.97,460.32 376.41,460.08 393.85,459.70 411.28,460.03 428.72,460.26 446.15,460.14 463.59,459.92 481.03,460.11 498.46,459.98 515.90,460.08 533.33,460.02 550.77,460.09 568.21,460.09 585.64,460.05 603.08,460.06 620.51,460.05 637.95,460.04 655.38,460.02 672.82,460.03 690.26,460.04 707.69,460.03 725.13,460.03 742.56,460.03 760.00,460.03" fill="none" stroke="#dc2626" stroke-width="2.5"/>
<circle cx="80.00" cy="424.28" r="3" fill="#dc2626"/>
<circle cx="97.44" cy="447.02" r="3" fill="#dc2626"/>
<circle cx="114.87" cy="452.36" r="3" fill="#dc2626"/>
<circle cx="132.31" cy="454.91" r="3" fill="#dc2626"/>
<circle cx="149.74" cy="457.21" r="3" fill="#dc2626"/>
<circle cx="167.18" cy="459.68" r="3" fill="#dc2626"/>
<circle cx="184.62" cy="459.55" r="3" fill="#dc2626"/>
<circle cx="202.05" cy="460.12" r="3" fill="#dc2626"/>
<circle cx="219.49" cy="458.93" r="3" fill="#dc2626"/>
<circle cx="236.92" cy="461.15" r="3" fill="#dc2626"/>
<circle cx="254.36" cy="460.07" r="3" fill="#dc2626"/>
<circle cx="271.79" cy="459.35" r="3" fill="#dc2626"/>
<circle cx="289.23" cy="459.86" r="3" fill="#dc2626"/>
<circle cx="306.67" cy="459.92" r="3" fill="#dc2626"/>
<circle cx="324.10" cy="459.20" r="3" fill="#dc2626"/>
<circle cx="341.54" cy="460.07" r="3" fill="#dc2626"/>
<circle cx="358.97" cy="460.32" r="3" fill="#dc2626"/>
<circle cx="376.41" cy="460.08" r="3" fill="#dc2626"/>
<circle cx="393.85" cy="459.70" r="3" fill="#dc2626"/>
<circle cx="411.28" cy="460.03" r="3" fill="#dc2626"/>
<circle cx="428.72" cy="460.26" r="3" fill="#dc2626"/>
<circle cx="446.15" cy="460.14" r="3" fill="#dc2626"/>
<circle cx="463.59" cy="459.92" r="3" fill="#dc2626"/>
<circle cx="481.03" cy="460.11" r="3" fill="#dc2626"/>
<circle cx="498.46" cy="459.98" r="3" fill="#dc2626"/>
<circle cx="515.90" cy="460.08" r="3" fill="#dc2626"/>
<circle cx="533.33" cy="460.02" r="3" fill="#dc2626"/>
<circle cx="550.77" cy="460.09" r="3" fill="#dc2626"/>
<circle cx="568.21" cy="460.09" r="3" fill="#dc2626"/>
<circle cx="585.64" cy="460.05" r="3" fill="#dc2626"/>
<circle cx="603.08" cy="460.06" r="3" fill="#dc2626"/>
<circle cx="620.51" cy="460.05" r="3" fill="#dc2626"/>
<circle cx="637.95" cy="460.04" r="3" fill="#dc2626"/>
<circle cx="655.38" cy="460.02" r="3" fill="#dc2626"/>
<circle cx="672.82" cy="460.03" r="3" fill="#dc2626"/>
<circle cx="690.26" cy="460.04" r="3" fill="#dc2626"/>
<circle cx="707.69" cy="460.03" r="3" fill="#dc2626"/>
<circle cx="725.13" cy="460.03" r="3" fill="#dc2626"/>
<circle cx="742.56" cy="460.03" r="3" fill="#dc2626"/>
<circle cx="760.00" cy="460.03" r="3" fill="#dc2626"/>
<rect x="795" y="87" width="12" height="12" fill="#dc2626"/>
<text x="815" y="97" font-size="12" font-weight="400" text-anchor="start" fill="#111827">Validation loss</text>
<polyline points="80.00,427.12 97.44,449.62 114.87,454.65 132.31,457.92 149.74,460.21 167.18,462.78 184.62,463.21 202.05,463.85 219.49,463.06 236.92,465.20 254.36,464.97 271.79,465.22 289.23,465.07 306.67,465.74 324.10,464.50 341.54,465.50 358.97,465.52 376.41,465.42 393.85,465.06 411.28,465.45 428.72,465.77 446.15,465.50 463.59,465.35 481.03,465.53 498.46,465.40 515.90,465.51 533.33,465.46 550.77,465.54 568.21,465.55 585.64,465.52 603.08,465.52 620.51,465.51 637.95,465.50 655.38,465.48 672.82,465.49 690.26,465.50 707.69,465.49 725.13,465.49 742.56,465.49 760.00,465.49" fill="none" stroke="#16a34a" stroke-width="2.5"/>
<circle cx="80.00" cy="427.12" r="3" fill="#16a34a"/>
<circle cx="97.44" cy="449.62" r="3" fill="#16a34a"/>
<circle cx="114.87" cy="454.65" r="3" fill="#16a34a"/>
<circle cx="132.31" cy="457.92" r="3" fill="#16a34a"/>
<circle cx="149.74" cy="460.21" r="3" fill="#16a34a"/>
<circle cx="167.18" cy="462.78" r="3" fill="#16a34a"/>
<circle cx="184.62" cy="463.21" r="3" fill="#16a34a"/>
<circle cx="202.05" cy="463.85" r="3" fill="#16a34a"/>
<circle cx="219.49" cy="463.06" r="3" fill="#16a34a"/>
<circle cx="236.92" cy="465.20" r="3" fill="#16a34a"/>
<circle cx="254.36" cy="464.97" r="3" fill="#16a34a"/>
<circle cx="271.79" cy="465.22" r="3" fill="#16a34a"/>
<circle cx="289.23" cy="465.07" r="3" fill="#16a34a"/>
<circle cx="306.67" cy="465.74" r="3" fill="#16a34a"/>
<circle cx="324.10" cy="464.50" r="3" fill="#16a34a"/>
<circle cx="341.54" cy="465.50" r="3" fill="#16a34a"/>
<circle cx="358.97" cy="465.52" r="3" fill="#16a34a"/>
<circle cx="376.41" cy="465.42" r="3" fill="#16a34a"/>
<circle cx="393.85" cy="465.06" r="3" fill="#16a34a"/>
<circle cx="411.28" cy="465.45" r="3" fill="#16a34a"/>
<circle cx="428.72" cy="465.77" r="3" fill="#16a34a"/>
<circle cx="446.15" cy="465.50" r="3" fill="#16a34a"/>
<circle cx="463.59" cy="465.35" r="3" fill="#16a34a"/>
<circle cx="481.03" cy="465.53" r="3" fill="#16a34a"/>
<circle cx="498.46" cy="465.40" r="3" fill="#16a34a"/>
<circle cx="515.90" cy="465.51" r="3" fill="#16a34a"/>
<circle cx="533.33" cy="465.46" r="3" fill="#16a34a"/>
<circle cx="550.77" cy="465.54" r="3" fill="#16a34a"/>
<circle cx="568.21" cy="465.55" r="3" fill="#16a34a"/>
<circle cx="585.64" cy="465.52" r="3" fill="#16a34a"/>
<circle cx="603.08" cy="465.52" r="3" fill="#16a34a"/>
<circle cx="620.51" cy="465.51" r="3" fill="#16a34a"/>
<circle cx="637.95" cy="465.50" r="3" fill="#16a34a"/>
<circle cx="655.38" cy="465.48" r="3" fill="#16a34a"/>
<circle cx="672.82" cy="465.49" r="3" fill="#16a34a"/>
<circle cx="690.26" cy="465.50" r="3" fill="#16a34a"/>
<circle cx="707.69" cy="465.49" r="3" fill="#16a34a"/>
<circle cx="725.13" cy="465.49" r="3" fill="#16a34a"/>
<circle cx="742.56" cy="465.49" r="3" fill="#16a34a"/>
<circle cx="760.00" cy="465.49" r="3" fill="#16a34a"/>
<rect x="795" y="109" width="12" height="12" fill="#16a34a"/>
<text x="815" y="119" font-size="12" font-weight="400" text-anchor="start" fill="#111827">Test loss</text>
</svg>
